<svg width="196" height="203" viewBox="0 0 196 203" fill="none" xmlns="http://www.w3.org/2000/svg">
<g filter="url(#filter0_d_4_2008)">
<path fill-rule="evenodd" clip-rule="evenodd" d="M81.4696 175.21L80.5115 149.363C80.4513 147.817 81.6149 146.513 83.1067 146.454C84.5981 146.396 85.8551 147.602 85.9112 149.146L86.8734 174.993C86.9291 176.538 85.7687 177.841 84.2785 177.9C84.2422 177.902 84.2085 177.903 84.1736 177.903C82.7266 177.903 81.527 176.718 81.4696 175.21Z" fill="#F3C5DB"/>
<path fill-rule="evenodd" clip-rule="evenodd" d="M86.4052 178.71C88.4236 178.71 90.0583 176.867 90.0583 174.598C90.0583 172.327 88.4236 170.484 86.4052 170.484L68.4552 168.226C65.8806 168.226 63.7984 170.577 63.7984 173.471C63.7984 176.357 65.8806 178.71 68.4552 178.71H86.4052Z" fill="#1B1918"/>
<path fill-rule="evenodd" clip-rule="evenodd" d="M155.43 158.427C155.339 158.297 155.252 158.164 155.164 158.031C154.13 157.921 153.037 157.748 151.887 157.511C147.402 156.569 144.636 155.608 142.716 154.508C140.88 153.478 139.412 151.852 139.395 149.7C139.502 147.358 140.781 146.524 140.99 146.293C142.227 145.284 144.011 145.516 144.969 146.809C145.522 147.549 145.685 148.476 145.494 149.323C146.485 149.907 148.681 150.764 152.523 151.585C152.446 151.072 152.407 150.562 152.405 150.059C152.382 147.42 153.561 145.069 155.239 143.67C156.918 142.248 158.954 141.616 160.968 141.613C163.012 141.613 165.132 142.282 166.825 143.847C168.454 145.359 169.504 147.461 169.501 149.734C169.525 152.158 168.225 154.522 166.156 155.966C165.079 156.73 163.818 157.298 162.375 157.669C163.699 158.81 164.779 159.032 165.691 159.06C167.681 159.147 169.878 157.263 170.23 156.83C170.268 156.793 170.268 156.793 170.268 156.793C171.324 155.582 173.121 155.496 174.279 156.601C175.44 157.706 175.517 159.586 174.462 160.801C174.223 160.968 171.115 164.872 165.691 165C165.653 165 165.615 165 165.578 165C162.203 165 158.444 162.98 155.43 158.427ZM158.835 148.268C158.366 148.709 158.112 149.097 158.084 150.059C158.081 150.576 158.204 151.305 158.563 152.231C160.806 152.146 162.226 151.589 162.95 151.06C163.743 150.452 163.804 150.075 163.826 149.734C163.822 149.402 163.68 148.878 163.049 148.279C162.603 147.852 161.827 147.549 160.968 147.552C160.958 147.552 160.947 147.552 160.936 147.552C160.108 147.552 159.299 147.856 158.835 148.268Z" fill="#F3C5DB"/>
<path fill-rule="evenodd" clip-rule="evenodd" d="M27.367 130.203C26.8292 128.835 27.5849 127.317 29.0491 126.817L60.7921 115.969C62.2611 115.466 63.8815 116.171 64.4208 117.541C64.9586 118.909 64.2029 120.422 62.7386 120.925L30.9956 131.773C30.6755 131.883 30.3465 131.935 30.0251 131.935C28.8705 131.935 27.7894 131.271 27.367 130.203Z" fill="#F3C5DB"/>
<path fill-rule="evenodd" clip-rule="evenodd" d="M172.208 132.609L137.424 121.957C135.9 121.49 135.067 119.949 135.557 118.508C136.051 117.07 137.686 116.279 139.211 116.748L173.995 127.397C175.516 127.864 176.352 129.407 175.858 130.849C175.459 132.005 174.324 132.742 173.102 132.742C172.806 132.742 172.505 132.698 172.208 132.609Z" fill="#F3C5DB"/>
<path fill-rule="evenodd" clip-rule="evenodd" d="M161.058 137.374L160.096 127.127C160.005 126.119 160.472 125.13 161.328 124.536L169.641 118.776C170.985 117.839 172.862 118.128 173.839 119.419C174.811 120.708 174.509 122.509 173.16 123.442L166.237 128.248L167.045 136.863C167.191 138.447 165.967 139.848 164.317 139.988C164.227 139.996 164.137 140 164.05 140C162.508 140 161.195 138.87 161.058 137.374Z" fill="#F3C5DB"/>
<path fill-rule="evenodd" clip-rule="evenodd" d="M61.5133 107.413C58.728 118.304 56.1184 129.97 60.8078 140.746C65.6908 151.961 76.8036 158.044 88.2444 160.355C101.323 162.993 116.022 162.022 128.398 156.865C139.59 152.198 149.595 142.65 150.477 129.823C151.322 117.532 142.963 109.049 133.509 102.806C132.313 102.016 131.1 101.249 129.89 100.484L61.5133 107.413Z" fill="#5C8DC5"/>
<path fill-rule="evenodd" clip-rule="evenodd" d="M87.7772 163.535C75.8878 161.135 63.966 154.74 58.6246 142.527C56.5922 137.863 55.8408 133.062 55.8408 128.336C55.8452 121.198 57.5268 114.183 59.2073 107.601C59.4552 106.628 60.2739 105.921 61.2602 105.82L129.666 98.8826C130.188 98.8306 130.715 98.9537 131.161 99.2371C132.37 100.005 133.599 100.779 134.818 101.586C144.031 107.658 152.892 116.252 152.922 128.923C152.927 129.539 152.907 130.16 152.858 130.795C151.85 144.891 141.039 155.019 129.312 159.906C120.998 163.367 111.758 165 102.627 165C97.5888 165 92.5846 164.505 87.7772 163.535ZM60.5721 128.336C60.5779 132.56 61.2352 136.647 62.9593 140.597C67.387 150.837 77.7003 156.616 88.7061 158.841C93.1966 159.75 97.8983 160.216 102.627 160.216C111.202 160.216 119.856 158.672 127.507 155.482C138.177 151.029 147.388 142.041 148.138 130.467C148.175 129.943 148.191 129.43 148.191 128.923C148.222 118.807 141.037 111.417 132.229 105.593C131.282 104.967 130.313 104.346 129.336 103.726L63.3792 110.415C61.8721 116.415 60.5704 122.494 60.5721 128.336Z" fill="#006699"/>
<path fill-rule="evenodd" clip-rule="evenodd" d="M126.197 46.7741C127.923 44.7438 129.456 42.5704 130.92 40.2807C133.808 35.7717 139.059 21.0147 127.685 24.4134C121.532 26.2516 118.977 34.3792 117.233 41.2035C114.235 39.6324 111.117 38.24 107.946 37.0058C108.266 36.1157 108.562 35.2238 108.784 34.329C109.987 29.4261 110.488 16.3193 101.807 19.5335C96.3229 21.5667 95.39 27.536 96.0217 33.0592C75.0075 26.8806 40.1578 19.5645 26.4074 39.1495C20.2313 47.9476 21.7084 59.9808 27.5511 68.5394C33.8919 77.8293 44.2399 81.5587 55.0174 82.616C56.4266 82.7531 57.8402 82.8507 59.2553 82.9349C57.011 91.3877 55.6532 100.361 60.6914 108.133C67.4029 118.489 81.3208 122.428 92.9509 122.998C118.378 124.243 143.898 107.868 144.168 80.5534C144.317 65.5442 136.829 54.6125 126.197 46.7741Z" fill="#F3C5DB"/>
<path fill-rule="evenodd" clip-rule="evenodd" d="M34.9223 137.86C34.9223 130.505 33.5042 126.628 32.2509 124.692C30.9873 122.767 29.9122 122.543 29.7357 122.472C28.2021 122.281 27.0761 120.888 27.2034 119.311C27.3385 117.689 28.737 116.485 30.3328 116.624C30.8422 116.644 33.6795 117.109 36.1918 120.21C38.7028 123.302 40.7215 128.623 40.7215 137.86C40.7215 139.487 39.4231 140.806 37.8195 140.806C36.219 140.806 34.9223 139.487 34.9223 137.86Z" fill="#F3C5DB"/>
<path fill-rule="evenodd" clip-rule="evenodd" d="M95.6012 124.677C94.6714 124.677 93.742 124.652 92.8113 124.608C80.9364 123.996 66.5121 120.053 59.2172 108.825C56.4555 104.54 55.4686 99.8924 55.4727 95.3168C55.4771 91.5693 56.1145 87.8455 56.9737 84.2492C56.3098 84.1971 55.6417 84.1408 54.9765 84.0756C43.9755 82.997 33.0183 79.0907 26.2649 69.1242C22.8334 64.0472 20.8305 57.8802 20.8276 51.7068C20.8246 46.7352 22.1491 41.74 25.1402 37.4471C32.3649 27.0864 44.8036 23.8651 57.7079 23.871C73.5386 23.8799 90.5557 28.6705 101.557 32.1512C112.466 35.6129 123.423 40.8109 131.762 48.4972C140.101 56.1643 145.779 66.4822 145.761 79.6569C145.761 79.8034 145.761 79.9547 145.761 80.1205C145.449 107.816 120.794 124.677 95.7187 124.677C95.6792 124.677 95.6409 124.677 95.6012 124.677ZM59.2613 95.3168C59.2657 99.3635 60.103 103.168 62.3964 106.739C68.4534 116.296 81.7277 120.264 92.996 120.789C93.8668 120.832 94.7347 120.853 95.6012 120.853C119.232 120.804 141.76 105.22 141.976 80.1076C141.976 79.9547 141.976 79.8064 141.976 79.6569C141.955 67.6084 136.935 58.4846 129.202 51.3217C121.476 44.1746 110.991 39.1425 100.425 35.7994C89.5658 32.3513 72.7969 27.6879 57.7079 27.6954C45.3116 27.7028 34.3707 30.7954 28.24 39.6448C25.7483 43.2295 24.6175 47.4069 24.6116 51.7068C24.6116 57.0354 26.3798 62.5167 29.3942 66.9636C35.2635 75.6413 44.8932 79.2212 55.3436 80.2689C56.2069 80.3533 57.0765 80.4229 57.9502 80.4838C58.2099 79.5384 58.4771 78.6034 58.7431 77.6831L58.746 77.686C59.0365 76.6711 60.0896 76.0903 61.0911 76.3851C62.0968 76.6754 62.6724 77.7381 62.3831 78.7516C62.1966 79.4019 62.0088 80.0525 61.8253 80.7073C62.2745 80.7297 62.7269 80.7519 63.1776 80.7725C64.2199 80.8216 65.0291 81.7151 64.9779 82.7701C64.9321 83.8253 64.0455 84.6356 63 84.5898C62.2761 84.5557 61.5489 84.5202 60.8209 84.4848C59.916 88.1388 59.2554 91.8049 59.2613 95.3168Z" fill="#EE9AC1"/>
<path fill-rule="evenodd" clip-rule="evenodd" d="M120.946 51.4268C120.298 50.6211 120.38 49.4052 121.132 48.7115C124.107 45.9615 126.36 42.6117 128.579 38.8888C129.862 36.8151 131.88 31.4224 131.83 28.1369C131.834 27.0165 131.605 26.2391 131.35 25.8961C131.095 25.572 130.861 25.3378 129.842 25.3006C129.289 25.3006 128.523 25.4215 127.556 25.7362C124.61 26.6286 122.443 30.0127 120.886 34.4457C119.329 38.8263 118.435 43.8919 117.447 47.5056H117.451C117.169 48.5262 116.168 49.1083 115.221 48.81C114.269 48.5068 113.724 47.4341 114.005 46.4183C114.92 43.1175 115.834 37.8804 117.533 33.0774C119.236 28.3145 121.777 23.6205 126.531 22.0476C127.742 21.6556 128.829 21.4525 129.842 21.4525C131.634 21.4212 133.292 22.2046 134.221 23.5876C135.156 24.947 135.409 26.5465 135.416 28.1369C135.365 32.7894 133.226 38.1651 131.599 40.9629C129.318 44.7887 126.865 48.4907 123.474 51.6316C123.136 51.9446 122.719 52.0968 122.306 52.0968C121.802 52.0968 121.3 51.8701 120.946 51.4268Z" fill="#EE9AC1"/>
<path fill-rule="evenodd" clip-rule="evenodd" d="M104.201 44.7134C103.21 44.331 102.711 43.2214 103.091 42.2234C104.234 39.2152 105.654 36.2791 106.307 33.5681C106.628 32.2433 106.922 30.0802 106.917 27.9116C106.925 25.8056 106.623 23.6638 106.008 22.3077C105.313 20.9321 104.825 20.5213 103.651 20.4676C103.195 20.4676 102.591 20.5721 101.816 20.8601C98.3019 22.1642 97.1278 25.4606 97.0714 29.8148C97.0702 33.0512 97.8568 36.5611 98.7147 39.0735C99.0542 40.0815 98.5245 41.1752 97.5211 41.5202C96.5225 41.8624 95.4303 41.3259 95.0904 40.3208C94.1269 37.4751 93.2456 33.6574 93.2427 29.8148C93.1876 24.8869 94.8737 19.3278 100.488 17.2473C101.581 16.8349 102.63 16.6139 103.651 16.6139C106.514 16.5631 108.617 18.5586 109.501 20.7318C110.467 22.9228 110.74 25.4695 110.748 27.9116C110.744 30.4252 110.432 32.7824 110.029 34.4793C109.218 37.7622 107.714 40.8076 106.673 43.5932C106.382 44.3654 105.651 44.8387 104.878 44.8387C104.652 44.8387 104.424 44.7986 104.201 44.7134Z" fill="#EE9AC1"/>
<path fill-rule="evenodd" clip-rule="evenodd" d="M26.3939 68.9071V68.9086C25.5531 68.3015 25.3486 67.1176 25.9417 66.2605C26.5305 65.4035 27.6898 65.1944 28.5305 65.7967C30.3577 67.1059 32.1862 67.6436 34.084 67.6494C38.4957 67.6966 43.5264 64.3782 47.3506 59.4109C51.1818 54.4889 53.7359 48.0579 53.7143 42.6753C53.6869 38.537 52.3539 35.1625 49.1244 32.8577C47.2093 31.4972 44.8985 30.9006 42.4595 30.9006C40.1401 30.8948 37.7311 31.4484 35.6159 32.3647C34.6685 32.771 33.5784 32.3189 33.1812 31.3528C32.7797 30.3823 33.2244 29.2676 34.1718 28.8627C36.7161 27.7698 39.5699 27.0997 42.4595 27.0968C45.4874 27.0968 48.5815 27.8536 51.2394 29.7297C55.6137 32.8035 57.4594 37.6853 57.4321 42.6753C57.412 49.2361 54.5236 56.2478 50.2574 61.7733C45.9842 67.2632 40.2665 71.4079 34.084 71.4516C34.0694 71.4516 34.0567 71.4516 34.0436 71.4516C31.4376 71.4516 28.7925 70.6391 26.3939 68.9071Z" fill="#EE9AC1"/>
<path fill-rule="evenodd" clip-rule="evenodd" d="M48.6791 48.4684C48.6791 50.4724 46.8981 52.0968 44.6997 52.0968C42.5021 52.0968 40.7216 50.4724 40.7216 48.4684C40.7216 46.4628 42.5021 44.8387 44.6997 44.8387C46.8981 44.8387 48.6791 46.4628 48.6791 48.4684Z" fill="#C26F98"/>
<path fill-rule="evenodd" clip-rule="evenodd" d="M36.7427 47.6607C36.7427 49.6646 34.9607 51.2903 32.7642 51.2903C30.5671 51.2903 28.7852 49.6646 28.7852 47.6607C28.7852 45.6567 30.5671 44.0323 32.7642 44.0323C34.9607 44.0323 36.7427 45.6567 36.7427 47.6607Z" fill="#C26F98"/>
<path fill-rule="evenodd" clip-rule="evenodd" d="M119.736 73.9228C106.425 73.7127 101.026 91.5618 111.446 98.7972C123.124 106.906 133.807 93.5573 132.985 82.7723C132.494 76.3245 126.74 73.8836 120.116 73.871L119.736 73.9228Z" fill="#F0A1C5"/>
<path fill-rule="evenodd" clip-rule="evenodd" d="M77.4056 104.367C72.1193 103.643 68.7984 100.224 67.015 97.231C65.2019 94.2124 64.6824 91.5054 64.6426 91.334C64.3792 90.0004 65.2166 88.7077 66.5145 88.4361C67.8053 88.1674 69.0648 89.0313 69.3252 90.3698C69.3252 90.3698 69.3371 90.429 69.3904 90.6457C69.4448 90.8671 69.5397 91.1939 69.6744 91.6014C69.9483 92.4099 70.3981 93.515 71.0672 94.6241C72.4494 96.8598 74.4975 98.9782 78.0449 99.4847C78.5749 99.5582 79.0853 99.5916 79.5707 99.5916C84.8693 99.6573 88.0261 95.2912 88.6773 94.2336C88.7644 94.0948 88.7763 94.0717 88.7763 94.0748C89.4214 92.8878 90.8793 92.4712 92.0263 93.1378C93.1719 93.8019 93.5817 95.3034 92.9337 96.4908C92.7931 96.6889 88.6965 104.405 79.5707 104.516C79.5456 104.516 79.5191 104.516 79.4923 104.516C78.8189 104.516 78.1235 104.467 77.4056 104.367Z" fill="#C06D93"/>
<path fill-rule="evenodd" clip-rule="evenodd" d="M80.9343 35.9677C78.0265 37.9352 75.0797 38.6385 73.7311 42.1227C72.5072 45.2816 71.6317 48.8052 74.2859 51.3671C80.5748 57.4355 87.8198 50.6055 88.4372 43.4774C88.816 39.1025 85.5058 37.6143 82.0524 36.6541L80.9343 35.9677Z" fill="white"/>
<path fill-rule="evenodd" clip-rule="evenodd" d="M72.6046 53.8355C70.8426 52.1161 70.1374 49.8453 70.1653 47.7805C70.1727 45.5205 70.8468 43.4215 71.5491 41.5382C73.4205 36.7402 77.2937 35.7994 79.9146 33.8819C80.5256 33.4525 81.3088 33.4386 81.9373 33.8353L82.9061 34.446C84.6463 34.9593 86.4588 35.6167 88.012 36.8628C89.6505 38.1464 90.8929 40.3448 90.8533 43.0278C90.8533 43.3116 90.8415 43.6153 90.8165 43.9317C90.2039 50.4156 85.6738 56.7651 79.3992 56.9355C79.3844 56.9355 79.3712 56.9355 79.3578 56.9355C77.0509 56.9355 74.6716 55.9046 72.6046 53.8355ZM75.0811 43.0106C74.4305 44.7191 73.9564 46.4209 73.9635 47.7805C73.9872 49.0504 74.2535 49.9445 75.2109 50.9226C76.7491 52.4342 78.1184 52.9225 79.3992 52.9364C82.7883 53.107 86.6854 48.4396 87.0313 43.5875C87.0477 43.392 87.0534 43.2045 87.0534 43.0278C87.015 41.4825 86.5823 40.814 85.6929 40.0345C84.7861 39.2845 83.3021 38.6922 81.6561 38.2316L81.1703 38.0163L80.9671 37.8894C77.9902 39.7401 75.9807 40.4809 75.0811 43.0106Z" fill="#EE9AC1"/>
<path fill-rule="evenodd" clip-rule="evenodd" d="M101.456 47.2581C95.4784 48.9377 89.421 59.1333 96.2938 64.0571C99.1645 66.1165 103.726 64.3939 106.443 62.7742C110.006 60.6489 110.094 57.968 109.888 54.0086C109.624 48.9819 107.356 47.2767 102.423 47.5045L101.456 47.2581Z" fill="white"/>
<path fill-rule="evenodd" clip-rule="evenodd" d="M95.3943 66.1147C92.8193 64.2349 91.6185 61.3782 91.6505 58.6581C91.7921 52.7817 96.059 47.2846 100.963 45.7155C101.27 45.6249 101.609 45.6218 101.912 45.7062L102.579 45.8813C102.798 45.8721 103.004 45.8705 103.192 45.8705C105.518 45.8659 107.612 46.3611 109.172 47.9023C110.712 49.4544 111.345 51.6813 111.472 54.312C111.504 55.0177 111.535 55.7181 111.535 56.4173C111.653 59.5155 110.635 62.9412 107.213 64.9189C105.249 66.1099 102.503 67.3932 99.5975 67.4194C98.1926 67.4194 96.6949 67.0796 95.3943 66.1147ZM95.3885 58.6581C95.4234 60.2917 95.92 61.6178 97.5434 62.8658C98.0591 63.253 98.7282 63.447 99.5974 63.4513C101.367 63.476 103.766 62.4773 105.336 61.4888C107.57 59.9616 107.679 59.1317 107.799 56.4173C107.799 55.8444 107.771 55.2038 107.74 54.5089C107.63 52.3757 107.156 51.3262 106.609 50.7912C106.071 50.2458 105.079 49.8386 103.192 49.8355C102.95 49.8355 102.727 49.8417 102.517 49.8538L101.941 49.8016L101.496 49.6835C98.5919 50.756 95.2567 55.262 95.3885 58.6581Z" fill="#EE9AC1"/>
<path fill-rule="evenodd" clip-rule="evenodd" d="M85.2838 44.4362C85.2838 46.44 84.0379 48.0645 82.498 48.0645C80.9593 48.0645 79.7135 46.44 79.7135 44.4362C79.7135 42.4328 80.9593 40.8065 82.498 40.8065C84.0379 40.8065 85.2838 42.4328 85.2838 44.4362Z" fill="#1B1918"/>
<path fill-rule="evenodd" clip-rule="evenodd" d="M106.769 56.1296C106.769 57.9107 105.345 59.3548 103.586 59.3548C101.827 59.3548 100.403 57.9107 100.403 56.1296C100.403 54.3472 101.827 52.9032 103.586 52.9032C105.345 52.9032 106.769 54.3472 106.769 56.1296Z" fill="#1B1918"/>
<path fill-rule="evenodd" clip-rule="evenodd" d="M119.677 175.146L118.708 151.851C118.644 150.266 119.975 148.932 121.68 148.873C123.392 148.814 124.832 150.045 124.896 151.626L125.865 174.924C125.929 176.506 124.6 177.839 122.893 177.9C122.853 177.902 122.811 177.903 122.775 177.903C121.115 177.903 119.739 176.69 119.677 175.146Z" fill="#F3C5DB"/>
<path fill-rule="evenodd" clip-rule="evenodd" d="M124.027 178.71C125.923 178.71 127.459 176.867 127.459 174.598C127.459 172.327 125.923 170.484 124.027 170.484L107.166 168.226C104.748 168.226 102.79 170.577 102.79 173.471C102.79 176.357 104.748 178.71 107.166 178.71H124.027Z" fill="#1B1918"/>
</g>
<defs>
<filter id="filter0_d_4_2008" x="0.827576" y="0.612915" width="195.172" height="202.097" filterUnits="userSpaceOnUse" color-interpolation-filters="sRGB">
<feFlood flood-opacity="0" result="BackgroundImageFix"/>
<feColorMatrix in="SourceAlpha" type="matrix" values="0 0 0 0 0 0 0 0 0 0 0 0 0 0 0 0 0 0 127 0" result="hardAlpha"/>
<feOffset dy="4"/>
<feGaussianBlur stdDeviation="10"/>
<feComposite in2="hardAlpha" operator="out"/>
<feColorMatrix type="matrix" values="0 0 0 0 0 0 0 0 0 0 0 0 0 0 0 0 0 0 0.25 0"/>
<feBlend mode="normal" in2="BackgroundImageFix" result="effect1_dropShadow_4_2008"/>
<feBlend mode="normal" in="SourceGraphic" in2="effect1_dropShadow_4_2008" result="shape"/>
</filter>
</defs>
</svg>
