<svg width="156" height="163" viewBox="0 0 156 163" fill="none" xmlns="http://www.w3.org/2000/svg">
<path fill-rule="evenodd" clip-rule="evenodd" d="M60.642 158.597L59.6839 132.75C59.6237 131.204 60.7872 129.9 62.279 129.841C63.7704 129.783 65.0274 130.989 65.0836 132.533L66.0458 158.38C66.1015 159.925 64.9411 161.228 63.4508 161.287C63.4145 161.289 63.3809 161.29 63.346 161.29C61.899 161.29 60.6994 160.105 60.642 158.597Z" fill="#F3C5DB"/>
<path fill-rule="evenodd" clip-rule="evenodd" d="M65.5776 162.097C67.596 162.097 69.2307 160.254 69.2307 157.985C69.2307 155.714 67.596 153.871 65.5776 153.871L47.6275 151.613C45.0529 151.613 42.9708 153.964 42.9708 156.858C42.9708 159.744 45.0529 162.097 47.6275 162.097H65.5776Z" fill="#1B1918"/>
<path fill-rule="evenodd" clip-rule="evenodd" d="M134.602 141.814C134.511 141.684 134.425 141.551 134.336 141.418C133.302 141.308 132.21 141.135 131.06 140.898C126.575 139.956 123.808 138.996 121.888 137.895C120.052 136.865 118.584 135.239 118.568 133.087C118.675 130.745 119.954 129.911 120.162 129.68C121.4 128.671 123.183 128.903 124.141 130.196C124.694 130.936 124.857 131.863 124.666 132.71C125.658 133.295 127.853 134.151 131.695 134.972C131.619 134.459 131.579 133.95 131.577 133.446C131.554 130.807 132.733 128.456 134.411 127.057C136.091 125.636 138.127 125.003 140.141 125C142.185 125 144.304 125.669 145.997 127.234C147.626 128.746 148.677 130.848 148.674 133.121C148.697 135.546 147.398 137.909 145.328 139.353C144.252 140.117 142.99 140.685 141.547 141.056C142.871 142.197 143.951 142.419 144.863 142.447C146.853 142.534 149.051 140.65 149.403 140.217C149.441 140.18 149.441 140.18 149.441 140.18C150.497 138.969 152.294 138.883 153.451 139.988C154.613 141.093 154.689 142.973 153.634 144.189C153.395 144.356 150.287 148.26 144.863 148.387C144.825 148.387 144.787 148.387 144.75 148.387C141.375 148.387 137.616 146.367 134.602 141.814ZM138.008 131.655C137.538 132.096 137.285 132.484 137.257 133.446C137.254 133.963 137.377 134.692 137.735 135.618C139.979 135.533 141.399 134.977 142.122 134.447C142.915 133.839 142.977 133.462 142.999 133.121C142.994 132.789 142.852 132.265 142.222 131.666C141.776 131.24 141 130.936 140.141 130.939C140.13 130.939 140.12 130.939 140.108 130.939C139.281 130.939 138.471 131.243 138.008 131.655Z" fill="#F3C5DB"/>
<path fill-rule="evenodd" clip-rule="evenodd" d="M6.53932 113.59C6.00155 112.222 6.75724 110.704 8.2215 110.204L39.9645 99.3558C41.4334 98.8531 43.0539 99.5579 43.5931 100.928C44.1309 102.296 43.3753 103.81 41.911 104.312L10.168 115.16C9.84782 115.27 9.51884 115.323 9.19749 115.323C8.04289 115.323 6.96179 114.658 6.53932 113.59Z" fill="#F3C5DB"/>
<path fill-rule="evenodd" clip-rule="evenodd" d="M151.38 115.996L116.597 105.344C115.072 104.877 114.239 103.336 114.729 101.895C115.223 100.457 116.859 99.6665 118.383 100.135L153.167 110.784C154.689 111.251 155.524 112.794 155.03 114.236C154.632 115.392 153.496 116.129 152.274 116.129C151.978 116.129 151.677 116.085 151.38 115.996Z" fill="#F3C5DB"/>
<path fill-rule="evenodd" clip-rule="evenodd" d="M140.23 120.761L139.269 110.514C139.177 109.506 139.645 108.517 140.501 107.924L148.813 102.163C150.158 101.226 152.034 101.515 153.011 102.806C153.984 104.096 153.681 105.896 152.332 106.829L145.41 111.635L146.218 120.25C146.364 121.834 145.14 123.235 143.49 123.375C143.4 123.383 143.309 123.387 143.223 123.387C141.68 123.387 140.367 122.257 140.23 120.761Z" fill="#F3C5DB"/>
<path fill-rule="evenodd" clip-rule="evenodd" d="M40.6857 90.7998C37.9004 101.691 35.2908 113.357 39.9802 124.133C44.8632 135.348 55.9759 141.431 67.4168 143.742C80.495 146.38 95.194 145.409 107.571 140.253C118.763 135.585 128.768 126.037 129.649 113.21C130.494 100.919 122.135 92.4358 112.681 86.1929C111.486 85.4033 110.273 84.6359 109.063 83.871L40.6857 90.7998Z" fill="#5C8DC5"/>
<path fill-rule="evenodd" clip-rule="evenodd" d="M66.9496 146.922C55.0602 144.522 43.1384 138.127 37.797 125.915C35.7645 121.25 35.0132 116.449 35.0132 111.723C35.0176 104.585 36.6991 97.5704 38.3797 90.9883C38.6275 90.0154 39.4462 89.3083 40.4325 89.2074L108.838 82.2697C109.361 82.2177 109.888 82.3408 110.333 82.6242C111.543 83.3923 112.771 84.1665 113.99 84.9733C123.203 91.0449 132.064 99.6391 132.095 112.31C132.099 112.926 132.08 113.547 132.03 114.182C131.022 128.278 120.211 138.406 108.484 143.293C100.17 146.754 90.9308 148.387 81.799 148.387C76.7612 148.387 71.757 147.892 66.9496 146.922ZM39.7444 111.723C39.7503 115.947 40.4076 120.034 42.1317 123.984C46.5593 134.224 56.8727 140.004 67.8785 142.228C72.3689 143.137 77.0706 143.603 81.799 143.603C90.3747 143.603 99.0281 142.059 106.68 138.869C117.35 134.417 126.561 125.428 127.311 113.854C127.347 113.33 127.364 112.818 127.364 112.31C127.394 102.194 120.21 94.8042 111.402 88.9804C110.454 88.3545 109.485 87.7331 108.508 87.1131L42.5515 93.8019C41.0444 99.8022 39.7428 105.881 39.7444 111.723Z" fill="#006699"/>
<path fill-rule="evenodd" clip-rule="evenodd" d="M105.37 30.1612C107.095 28.131 108.629 25.9575 110.092 23.6678C112.98 19.1588 118.231 4.4018 106.857 7.80057C100.704 9.63873 98.1492 17.7663 96.4049 24.5906C93.4075 23.0195 90.2894 21.6271 87.1182 20.393C87.4382 19.5028 87.7348 18.6109 87.9565 17.7162C89.1592 12.8132 89.6608 -0.293576 80.9789 2.92063C75.4952 4.95383 74.5624 10.9231 75.194 16.4463C54.1799 10.2677 19.3302 2.95165 5.57974 22.5366C-0.596351 31.3347 0.880746 43.3679 6.72347 51.9266C13.0642 61.2165 23.4122 64.9458 34.1898 66.0031C35.599 66.1403 37.0125 66.2379 38.4276 66.322C36.1833 74.7748 34.8255 83.7485 39.8638 91.5205C46.5753 101.876 60.4931 105.815 72.1232 106.385C97.5502 107.63 123.07 91.2548 123.34 63.9405C123.489 48.9313 116.001 37.9996 105.37 30.1612Z" fill="#F3C5DB"/>
<path fill-rule="evenodd" clip-rule="evenodd" d="M14.0947 121.247C14.0947 113.892 12.6765 110.016 11.4232 108.079C10.1596 106.154 9.08459 105.931 8.90805 105.859C7.37449 105.668 6.2485 104.275 6.37577 102.698C6.51083 101.077 7.90934 99.8725 9.5052 100.011C10.0146 100.031 12.8519 100.496 15.3641 103.597C17.8751 106.689 19.8938 112.01 19.8938 121.247C19.8938 122.874 18.5955 124.194 16.9919 124.194C15.3914 124.194 14.0947 122.874 14.0947 121.247Z" fill="#F3C5DB"/>
<path fill-rule="evenodd" clip-rule="evenodd" d="M74.7736 108.065C73.8438 108.065 72.9143 108.039 71.9837 107.995C60.1088 107.383 45.6844 103.44 38.3896 92.2122C35.6278 87.9269 34.641 83.2795 34.6451 78.704C34.6495 74.9565 35.2869 71.2326 36.146 67.6363C35.4822 67.5843 34.8141 67.528 34.1489 67.4628C23.1478 66.3841 12.1907 62.4778 5.43723 52.5114C2.00574 47.4344 0.00288062 41.2673 -5.61625e-05 35.0939C-0.00299295 30.1223 1.32147 25.1271 4.31259 20.8343C11.5372 10.4735 23.976 7.2522 36.8802 7.25813C52.711 7.26702 69.7281 12.0576 80.7293 15.5384C91.638 19 102.595 24.198 110.934 31.8843C119.273 39.5514 124.952 49.8693 124.934 63.044C124.934 63.1905 124.934 63.3418 124.934 63.5076C124.621 91.2028 99.9668 108.065 74.8911 108.065C74.8516 108.065 74.8132 108.065 74.7736 108.065ZM38.4336 78.704C38.438 82.7507 39.2753 86.5546 41.5688 90.1258C47.6258 99.6834 60.9001 103.652 72.1684 104.176C73.0391 104.219 73.9071 104.24 74.7736 104.24C98.4043 104.191 120.932 88.607 121.148 63.4948C121.148 63.3418 121.148 63.1935 121.148 63.044C121.128 50.9955 116.107 41.8718 108.375 34.7088C100.648 27.5617 90.1637 22.5296 79.597 19.1865C68.7382 15.7384 51.9693 11.075 36.8802 11.0826C24.4839 11.09 13.5431 14.1825 7.4124 23.0319C4.92068 26.6166 3.78986 30.794 3.78399 35.0939C3.78399 40.4226 5.55221 45.9038 8.56653 50.3507C14.4358 59.0284 24.0656 62.6083 34.516 63.656C35.3792 63.7404 36.2488 63.8101 37.1225 63.871C37.3823 62.9256 37.6495 61.9906 37.9154 61.0702L37.9184 61.0731C38.2088 60.0583 39.262 59.4774 40.2634 59.7723C41.2691 60.0625 41.8447 61.1252 41.5555 62.1387C41.369 62.789 41.1812 63.4396 40.9976 64.0944C41.4468 64.1168 41.8992 64.139 42.35 64.1596C43.3923 64.2087 44.2015 65.1022 44.1502 66.1573C44.1044 67.2125 43.2178 68.0227 42.1723 67.9769C41.4484 67.9428 40.7213 67.9073 39.9932 67.8719C39.0884 71.5259 38.4278 75.1921 38.4336 78.704Z" fill="#EE9AC1"/>
<path fill-rule="evenodd" clip-rule="evenodd" d="M100.118 34.814C99.4704 34.0082 99.5524 32.7923 100.304 32.0987C103.279 29.3486 105.532 25.9988 107.751 22.2759C109.034 20.2022 111.052 14.8095 111.002 11.5241C111.007 10.4037 110.777 9.62627 110.523 9.28324C110.267 8.95916 110.034 8.72493 109.014 8.68778C108.461 8.68778 107.695 8.80864 106.728 9.12332C103.782 10.0157 101.615 13.3998 100.058 17.8328C98.5015 22.2134 97.6074 27.279 96.6192 30.8927H96.6234C96.3412 31.9133 95.3403 32.4954 94.3935 32.1971C93.4415 31.8939 92.8966 30.8213 93.1771 29.8054C94.092 26.5046 95.0067 21.2676 96.7054 16.4645C98.4079 11.7016 100.949 7.00768 105.703 5.43472C106.914 5.04274 108.001 4.83967 109.014 4.83967C110.806 4.80833 112.464 5.59169 113.393 6.97471C114.329 8.33415 114.582 9.93364 114.589 11.5241C114.537 16.1765 112.398 21.5523 110.771 24.3501C108.49 28.1758 106.037 31.8778 102.647 35.0187C102.309 35.3317 101.892 35.4839 101.479 35.4839C100.974 35.4839 100.473 35.2573 100.118 34.814Z" fill="#EE9AC1"/>
<path fill-rule="evenodd" clip-rule="evenodd" d="M83.3738 28.1005C82.3821 27.7182 81.8836 26.6085 82.2636 25.6105C83.4062 22.6023 84.8265 19.6662 85.4798 16.9552C85.8004 15.6304 86.0941 13.4673 86.0898 11.2987C86.0972 9.19273 85.7958 7.05088 85.1799 5.69482C84.4853 4.3192 83.9969 3.90846 82.8231 3.85469C82.3674 3.85469 81.7634 3.95922 80.9888 4.24719C77.4743 5.55127 76.3002 8.8477 76.2438 13.2019C76.2426 16.4383 77.0292 19.9482 77.887 22.4606C78.2266 23.4687 77.6969 24.5623 76.6935 24.9073C75.6948 25.2495 74.6026 24.713 74.2628 23.7079C73.2993 20.8623 72.418 17.0446 72.415 13.2019C72.3599 8.274 74.0461 2.7149 79.6602 0.634429C80.7528 0.22204 81.802 0.00097934 82.8231 0.00097934C85.6859 -0.0498038 87.789 1.9457 88.6733 4.11893C89.6397 6.30992 89.9128 8.85666 89.9203 11.2987C89.9159 13.8124 89.6039 16.1695 89.2017 17.8664C88.3902 21.1494 86.8866 24.1947 85.8449 26.9803C85.5539 27.7525 84.8235 28.2258 84.0503 28.2258C83.8247 28.2258 83.5963 28.1857 83.3738 28.1005Z" fill="#EE9AC1"/>
<path fill-rule="evenodd" clip-rule="evenodd" d="M5.5663 52.2942V52.2957C4.72544 51.6886 4.52096 50.5047 5.11402 49.6476C5.70291 48.7906 6.86212 48.5815 7.70283 49.1838C9.53011 50.4931 11.3586 51.0307 13.2564 51.0365C17.668 51.0838 22.6988 47.7653 26.5229 42.798C30.3542 37.8761 32.9083 31.445 32.8867 26.0624C32.8593 21.9241 31.5263 18.5496 28.2968 16.2448C26.3817 14.8843 24.0709 14.2878 21.6318 14.2878C19.3124 14.2819 16.9035 14.8355 14.7882 15.7518C13.8408 16.1581 12.7507 15.706 12.3536 14.7399C11.952 13.7694 12.3968 12.6547 13.3442 12.2498C15.8885 11.1569 18.7423 10.4869 21.6318 10.4839C24.6598 10.4839 27.7538 11.2407 30.4117 13.1168C34.7861 16.1906 36.6318 21.0724 36.6044 26.0624C36.5844 32.6232 33.696 39.6349 29.4298 45.1604C25.1565 50.6504 19.4389 54.795 13.2564 54.8388C13.2417 54.8388 13.229 54.8388 13.2159 54.8388C10.61 54.8388 7.9649 54.0262 5.5663 52.2942Z" fill="#EE9AC1"/>
<path fill-rule="evenodd" clip-rule="evenodd" d="M27.8515 31.8555C27.8515 33.8595 26.0705 35.4839 23.8721 35.4839C21.6745 35.4839 19.8939 33.8595 19.8939 31.8555C19.8939 29.8499 21.6745 28.2259 23.8721 28.2259C26.0705 28.2259 27.8515 29.8499 27.8515 31.8555Z" fill="#C26F98"/>
<path fill-rule="evenodd" clip-rule="evenodd" d="M15.9151 31.0478C15.9151 33.0518 14.1331 34.6775 11.9366 34.6775C9.7395 34.6775 7.95752 33.0518 7.95752 31.0478C7.95752 29.0438 9.7395 27.4194 11.9366 27.4194C14.1331 27.4194 15.9151 29.0438 15.9151 31.0478Z" fill="#C26F98"/>
<path fill-rule="evenodd" clip-rule="evenodd" d="M98.9079 57.3099C85.5972 57.0999 80.1981 74.9489 90.6181 82.1844C102.296 90.2927 112.979 76.9444 112.157 66.1594C111.666 59.7116 105.913 57.2708 99.2886 57.2581L98.9079 57.3099Z" fill="#F0A1C5"/>
<path fill-rule="evenodd" clip-rule="evenodd" d="M56.5779 87.754C51.2916 87.0303 47.9707 83.6107 46.1874 80.6181C44.3743 77.5996 43.8548 74.8925 43.815 74.7211C43.5515 73.3875 44.3889 72.0949 45.6868 71.8232C46.9777 71.5545 48.2371 72.4184 48.4976 73.7569C48.4976 73.7569 48.5094 73.8161 48.5627 74.0328C48.6172 74.2542 48.712 74.581 48.8467 74.9885C49.1207 75.797 49.5704 76.9021 50.2395 78.0113C51.6218 80.2469 53.6699 82.3653 57.2172 82.8718C57.7472 82.9453 58.2577 82.9788 58.7431 82.9788C64.0417 83.0444 67.1984 78.6783 67.8496 77.6208C67.9368 77.4819 67.9486 77.4588 67.9486 77.4619C68.5937 76.2749 70.0517 75.8583 71.1987 76.5249C72.3443 77.189 72.7541 78.6905 72.106 79.878C71.9654 80.076 67.8689 87.7922 58.7431 87.9033C58.7179 87.9033 58.6914 87.9033 58.6646 87.9033C57.9913 87.9033 57.2959 87.8544 56.5779 87.754Z" fill="#C06D93"/>
<path fill-rule="evenodd" clip-rule="evenodd" d="M60.1067 19.3549C57.1989 21.3224 54.2521 22.0257 52.9035 25.5098C51.6795 28.6687 50.8041 32.1924 53.4583 34.7542C59.7472 40.8227 66.9922 33.9926 67.6096 26.8645C67.9883 22.4897 64.6781 21.0015 61.2248 20.0413L60.1067 19.3549Z" fill="white"/>
<path fill-rule="evenodd" clip-rule="evenodd" d="M51.7769 37.2226C50.0149 35.5032 49.3097 33.2324 49.3377 31.1676C49.3451 28.9077 50.0192 26.8086 50.7215 24.9254C52.5928 20.1274 56.466 19.1866 59.0869 17.269C59.6979 16.8396 60.4812 16.8257 61.1097 17.2224L62.0785 17.8332C63.8187 18.3464 65.6311 19.0038 67.1843 20.25C68.8228 21.5335 70.0653 23.7319 70.0257 26.4149C70.0257 26.6987 70.0139 27.0024 69.9889 27.3188C69.3762 33.8027 64.8461 40.1523 58.5715 40.3226C58.5568 40.3226 58.5436 40.3226 58.5302 40.3226C56.2233 40.3226 53.844 39.2917 51.7769 37.2226ZM54.2534 26.3977C53.6028 28.1063 53.1288 29.808 53.1358 31.1676C53.1595 32.4375 53.4259 33.3316 54.3833 34.3098C55.9215 35.8213 57.2908 36.3096 58.5715 36.3236C61.9606 36.4941 65.8577 31.8267 66.2037 26.9746C66.2201 26.7792 66.2258 26.5916 66.2258 26.4149C66.1873 24.8696 65.7546 24.2011 64.8653 23.4216C63.9585 22.6716 62.4745 22.0793 60.8285 21.6187L60.3426 21.4034L60.1395 21.2765C57.1626 23.1272 55.1531 23.868 54.2534 26.3977Z" fill="#EE9AC1"/>
<path fill-rule="evenodd" clip-rule="evenodd" d="M80.6287 30.6452C74.6507 32.3248 68.5933 42.5204 75.4662 47.4442C78.3368 49.5036 82.8979 47.781 85.6157 46.1613C89.1784 44.036 89.2668 41.3551 89.0602 37.3957C88.7964 32.369 86.5284 30.6638 81.5952 30.8917L80.6287 30.6452Z" fill="white"/>
<path fill-rule="evenodd" clip-rule="evenodd" d="M74.5667 49.5018C71.9917 47.622 70.7909 44.7653 70.8229 42.0452C70.9645 36.1688 75.2314 30.6718 80.1353 29.1026C80.4425 29.0121 80.7816 29.009 81.0842 29.0933L81.7517 29.2684C81.9706 29.2592 82.1762 29.2576 82.3646 29.2576C84.6905 29.253 86.7846 29.7482 88.3448 31.2894C89.8844 32.8415 90.517 35.0685 90.6448 37.6991C90.6763 38.4048 90.707 39.1052 90.707 39.8045C90.8258 42.9026 89.8076 46.3284 86.3852 48.306C84.4211 49.497 81.6749 50.7804 78.7699 50.8065C77.365 50.8065 75.8673 50.4667 74.5667 49.5018ZM74.5609 42.0452C74.5958 43.6788 75.0924 45.0049 76.7158 46.2529C77.2314 46.6402 77.9006 46.8341 78.7697 46.8384C80.5396 46.8632 82.938 45.8644 84.508 44.876C86.7426 43.3487 86.8514 42.5189 86.9713 39.8045C86.9713 39.2316 86.9438 38.5909 86.9122 37.896C86.8022 35.7628 86.3284 34.7133 85.7811 34.1783C85.2438 33.633 84.2515 33.2257 82.3645 33.2227C82.1223 33.2227 81.8994 33.2288 81.6896 33.2409L81.1131 33.1887L80.6682 33.0707C77.7643 34.1432 74.4291 38.6491 74.5609 42.0452Z" fill="#EE9AC1"/>
<path fill-rule="evenodd" clip-rule="evenodd" d="M64.4562 27.8233C64.4562 29.8271 63.2103 31.4517 61.6704 31.4517C60.1317 31.4517 58.8859 29.8271 58.8859 27.8233C58.8859 25.82 60.1317 24.1936 61.6704 24.1936C63.2103 24.1936 64.4562 25.82 64.4562 27.8233Z" fill="#1B1918"/>
<path fill-rule="evenodd" clip-rule="evenodd" d="M85.9416 39.5168C85.9416 41.2978 84.5176 42.742 82.7586 42.742C80.9997 42.742 79.5756 41.2978 79.5756 39.5168C79.5756 37.7344 80.9997 36.2903 82.7586 36.2903C84.5176 36.2903 85.9416 37.7344 85.9416 39.5168Z" fill="#1B1918"/>
<path fill-rule="evenodd" clip-rule="evenodd" d="M98.8498 158.533L97.8801 135.238C97.8163 133.653 99.1471 132.319 100.853 132.26C102.564 132.201 104.004 133.432 104.068 135.013L105.038 158.311C105.101 159.893 103.772 161.226 102.065 161.287C102.025 161.289 101.984 161.29 101.947 161.29C100.288 161.29 98.9118 160.077 98.8498 158.533Z" fill="#F3C5DB"/>
<path fill-rule="evenodd" clip-rule="evenodd" d="M103.199 162.097C105.096 162.097 106.631 160.254 106.631 157.985C106.631 155.714 105.096 153.871 103.199 153.871L86.3388 151.613C83.92 151.613 81.9628 153.964 81.9628 156.858C81.9628 159.744 83.92 162.097 86.3388 162.097H103.199Z" fill="#1B1918"/>
</svg>
