<svg width="209" height="261" viewBox="0 0 209 261" fill="none" xmlns="http://www.w3.org/2000/svg">
<g filter="url(#filter0_d_4_2048)">
<path fill-rule="evenodd" clip-rule="evenodd" d="M121.995 233.396L120.567 203.634C120.527 202.795 121.167 202.083 122.001 202.042C122.834 202.001 123.54 202.647 123.58 203.486L125.009 233.25C125.049 234.087 124.406 234.799 123.575 234.84C123.551 234.843 123.526 234.843 123.503 234.843C122.7 234.843 122.033 234.209 121.995 233.396Z" fill="#F3C5DB"/>
<path fill-rule="evenodd" clip-rule="evenodd" d="M107.772 236.137C105.629 236.137 103.892 234.808 103.892 233.169C103.892 231.53 105.629 230.202 107.772 230.202L122.732 231.482C124.413 231.482 125.776 232.525 125.776 233.809C125.776 235.095 124.413 236.137 122.732 236.137H107.772Z" fill="#1B1918"/>
<path fill-rule="evenodd" clip-rule="evenodd" d="M66.8138 233.396L65.3867 203.632C65.346 202.795 65.9877 202.082 66.8194 202.042C67.6541 202.001 68.3604 202.648 68.401 203.486L69.8297 233.249C69.8686 234.088 69.2272 234.799 68.3939 234.84C68.3681 234.84 68.3449 234.841 68.3205 234.841C67.5216 234.841 66.852 234.209 66.8138 233.396Z" fill="#F3C5DB"/>
<path fill-rule="evenodd" clip-rule="evenodd" d="M52.5921 236.137C50.4492 236.137 48.7125 234.808 48.7125 233.169C48.7125 231.53 50.4492 230.202 52.5921 230.202L67.5513 231.482C69.2334 231.482 70.596 232.525 70.596 233.809C70.596 235.095 69.2334 236.137 67.5513 236.137H52.5921Z" fill="#1B1918"/>
<path fill-rule="evenodd" clip-rule="evenodd" d="M172.988 196.541C172.899 196.444 172.812 196.346 172.727 196.249C172.035 196.409 171.296 196.53 170.515 196.609C169.3 196.739 168.259 196.798 167.362 196.798C165.374 196.789 164.06 196.534 163.046 195.956C162.015 195.405 161.461 194.254 161.507 193.43C161.525 192.512 161.875 191.999 161.944 191.87C162.383 191.159 163.313 190.943 164.02 191.388C164.68 191.802 164.912 192.647 164.578 193.338C164.832 193.492 165.688 193.768 167.362 193.76C168.129 193.76 169.067 193.711 170.194 193.589C170.431 193.56 170.661 193.529 170.885 193.495C170.279 192.235 169.994 190.996 169.996 189.825C170.024 186.07 172.815 183.389 175.823 183.35C176.63 183.348 177.472 183.568 178.206 184.046C179.727 185.026 180.576 186.739 180.568 188.516C180.562 191.04 178.971 193.57 175.866 195.138C177.298 196.438 178.629 196.811 179.933 196.828C182.385 196.86 184.897 195.15 185.925 194.263C186.271 193.973 186.426 193.816 186.426 193.814V193.816C187.015 193.222 187.97 193.222 188.56 193.816C189.147 194.407 189.147 195.371 188.56 195.963C188.43 196.033 184.904 199.79 179.933 199.865C179.913 199.867 179.894 199.867 179.874 199.867C177.616 199.867 175.109 198.905 172.988 196.541ZM173.984 187.288C173.416 187.894 173.015 188.745 173.013 189.825C173.014 190.627 173.24 191.597 173.884 192.703C176.678 191.568 177.556 189.749 177.55 188.516C177.541 187.663 177.186 187.005 176.57 186.599C176.347 186.456 176.115 186.391 175.823 186.388C175.815 186.388 175.809 186.388 175.801 186.388C175.264 186.388 174.543 186.69 173.984 187.288Z" fill="#F3C5DB"/>
<path fill-rule="evenodd" clip-rule="evenodd" d="M31.615 160.899C30.9236 160.841 30.4068 160.231 30.463 159.535L31.0545 152.095L21.6063 149.027H21.6086C20.946 148.812 20.5821 148.099 20.7955 147.434C21.0107 146.766 21.7184 146.401 22.3811 146.616L32.7732 149.994C33.3289 150.173 33.6854 150.712 33.6407 151.299L32.9696 159.74C32.9166 160.4 32.3665 160.902 31.7177 160.902C31.6835 160.902 31.6493 160.901 31.615 160.899Z" fill="#F3C5DB"/>
<path fill-rule="evenodd" clip-rule="evenodd" d="M22.4959 155.029C22.2464 154.376 22.5708 153.644 23.2193 153.392L31.7002 150.107L48.6168 133.747C49.1179 133.261 49.9122 133.278 50.3924 133.782C50.8725 134.284 50.8577 135.086 50.3566 135.569L33.2592 152.109C33.1375 152.227 32.995 152.319 32.8374 152.38L24.1212 155.755C23.9739 155.812 23.8194 155.838 23.6707 155.838C23.1647 155.838 22.6885 155.53 22.4959 155.029Z" fill="#F3C5DB"/>
<path fill-rule="evenodd" clip-rule="evenodd" d="M164.403 213.307H31.9644C31.9644 213.307 27.9413 136.346 63.1456 114.068L130.874 112.381C130.874 112.381 164.403 121.832 164.403 211.958V213.307Z" fill="#F3AF89"/>
<path fill-rule="evenodd" clip-rule="evenodd" d="M31.9642 214.572C31.2969 214.572 30.7427 214.044 30.7084 213.374C30.7061 213.354 30.5673 210.668 30.5641 206.162C30.5673 196.303 31.2308 177.736 35.5132 159.276C39.806 140.833 47.6772 122.392 62.4751 112.996C62.6677 112.875 62.8867 112.808 63.1136 112.803L130.841 111.115L131.212 111.16C131.811 111.266 165.744 121.567 165.66 211.956C165.66 212.203 165.589 212.436 165.466 212.63C165.589 212.827 165.66 213.059 165.66 213.307C165.66 214.005 165.095 214.572 164.402 214.572H31.9642ZM163.147 212.04C163.145 212.013 163.144 211.985 163.144 211.956C163.083 127.71 133.918 114.892 130.814 113.696C130.767 113.678 130.727 113.664 130.693 113.652L63.5243 115.325C49.8466 124.124 42.1351 141.806 37.9623 159.85C33.7469 178.004 33.0796 196.42 33.0811 206.162C33.0804 208.843 33.1304 210.859 33.1693 212.04H163.147Z" fill="#F09362"/>
<path fill-rule="evenodd" clip-rule="evenodd" d="M137.767 55.0447C134.4 50.3731 130.69 46.6715 126.566 43.6847C127.4 42.531 128.186 41.3399 128.995 40.1713C131.152 37.0519 135.807 27.5995 129.26 26.5968C122.852 25.6158 119.353 33.0175 118.741 39.057C115.366 37.4474 111.747 36.1394 107.855 35.0376C106.856 34.7551 105.844 34.4843 104.834 34.2152C107.035 29.4619 107.492 22.2814 103.422 19.0959C97.8089 14.7015 93.0509 23.5668 92.6072 28.3114C92.5145 29.3151 92.5542 30.3572 92.7398 31.3712C76.0563 27.9637 58.3852 26.4617 41.8778 27.9127L37.7505 29.2688C30.912 31.211 24.4655 43.8244 27.6483 50.173C30.7662 56.3914 40.1965 63.0109 46.5914 65.2536C49.4788 66.2668 52.6208 67.622 55.7769 68.2318C49.983 79.6185 48.237 88.5089 51.0993 102.368C54.7683 120.135 70.9795 128.199 88.6123 131.166C116.265 135.82 138.986 120.382 145.104 92.5041C147.896 79.7825 145.491 65.7621 137.767 55.0447Z" fill="#F3C5DB"/>
<path fill-rule="evenodd" clip-rule="evenodd" d="M98.2151 133.249C95.0238 133.249 91.7461 132.975 88.4052 132.412C70.5999 129.443 53.7123 121.152 49.8678 102.624C48.9442 98.1615 48.485 94.1757 48.485 90.4372C48.4803 82.8801 50.376 76.3839 53.9204 69.1092C51.1682 68.3904 48.5504 67.2713 46.1778 66.4489C39.4599 64.0404 29.976 57.4775 26.5275 50.7452C25.8353 49.3712 25.5515 47.818 25.5515 46.2108C25.5616 42.5673 26.982 38.5681 29.1185 35.1789C31.273 31.8068 34.1329 29.0037 37.3584 28.0658L41.4859 26.7089L41.7681 26.6517C46.0624 26.2702 50.4361 26.0929 54.8465 26.0929C72.813 26.0929 91.4202 29.0735 108.194 33.8179C120.813 37.3744 130.807 43.2106 138.783 54.3C144.608 62.3869 147.481 72.2624 147.483 82.0922C147.481 85.6863 147.099 89.2789 146.33 92.7765C140.874 117.817 122.019 133.249 98.3024 133.249C98.2728 133.249 98.2432 133.249 98.2151 133.249ZM51.0013 90.4372C51.0013 93.9663 51.4306 97.7738 52.3302 102.11C55.8239 119.114 71.3585 126.952 88.8191 129.917C92.0298 130.457 95.1681 130.716 98.2151 130.716C120.855 130.681 138.546 116.303 143.875 92.2296C144.602 88.9147 144.968 85.5059 144.966 82.0922C144.968 72.7535 142.232 63.3946 136.748 55.788C129.096 45.1922 119.797 39.7469 107.513 36.2562C90.9409 31.565 72.5386 28.6246 54.8465 28.6246C50.5523 28.6246 46.3001 28.7964 42.1305 29.1605L38.0905 30.4861C35.7637 31.1232 33.154 33.4891 31.2394 36.5402C29.3063 39.5734 28.0552 43.2491 28.0662 46.2108C28.0662 47.519 28.3016 48.6749 28.7709 49.6018C31.5552 55.3054 40.9309 61.9805 47.004 64.0584C49.6426 64.9947 52.4082 66.1474 55.0897 66.7918C55.5097 65.9866 55.9494 65.1688 56.4062 64.3378L56.4078 64.3409C56.7423 63.729 57.5084 63.5067 58.1158 63.8451C58.7215 64.1841 58.9429 64.954 58.6053 65.5637C58.295 66.1303 57.994 66.6873 57.7026 67.2374C58.0986 67.2737 58.4899 67.2917 58.8797 67.2902C59.3419 67.2878 59.8018 67.2619 60.2602 67.2054C60.9485 67.1207 61.5751 67.6158 61.6593 68.3103C61.7442 69.0023 61.2539 69.6325 60.5649 69.7182C59.9997 69.788 59.4409 69.8216 58.8797 69.8216C58.0705 69.8185 57.266 69.7502 56.471 69.635C52.8386 76.9481 51.0051 83.1256 51.0013 90.4372Z" fill="#EE9AC1"/>
<path fill-rule="evenodd" clip-rule="evenodd" d="M25.3989 45.4057C25.3989 42.4903 26.2624 39.4242 28.226 36.7373C31.9638 31.5704 36.7482 27.8217 43.3723 27.321C43.6311 27.3005 43.8916 27.3635 44.1168 27.4992L45.8606 28.5578C47.7781 29.6581 49.2582 30.6366 50.3254 31.9486C51.4075 33.2671 51.9179 34.9245 51.9031 36.8668C51.9031 37.9136 51.7723 39.0601 51.5423 40.377C50.5771 45.7134 47.234 50.8849 43.2453 54.3024C40.609 56.5538 37.9361 57.6 35.4518 57.6C29.3836 57.5379 25.4091 51.6406 25.3989 45.4057ZM30.2527 38.2331C28.6251 40.4687 27.9158 42.9886 27.9143 45.4057C27.9119 48.0157 28.7561 50.4893 30.1234 52.2518C31.5022 54.0174 33.324 55.0645 35.4518 55.0683C37.2253 55.0659 39.3104 54.3362 41.6193 52.3704C45.1893 49.3404 48.2645 44.5166 49.0666 39.9328C49.2801 38.7086 49.3886 37.6979 49.3886 36.8668C49.3738 35.2971 49.0611 34.4198 48.3735 33.5456C47.6759 32.6707 46.4483 31.7956 44.5938 30.7434L45.2136 29.6416L44.5651 30.726L43.1712 29.8809C37.6431 30.4467 33.7206 33.5018 30.2527 38.2331Z" fill="#EE9AC1"/>
<path fill-rule="evenodd" clip-rule="evenodd" d="M112.952 79.4186C108.194 79.5912 105.349 81.236 103.19 85.4988C101.597 88.6433 100.279 93.0638 102.771 96.1234C108.485 103.135 123.642 97.7496 122.711 88.4636C122.14 82.7663 116.197 79.7741 111.226 79.4186H112.952Z" fill="#F0A1C5"/>
<path fill-rule="evenodd" clip-rule="evenodd" d="M74.9611 103.947C69.5585 103.136 66.315 100.185 64.5931 97.4912C62.851 94.7933 62.498 92.3709 62.4752 92.2381H62.4776C62.3567 91.4095 62.9258 90.638 63.7496 90.5157C64.5745 90.394 65.3399 90.9677 65.4607 91.7978C65.4646 91.7978 65.4693 91.8661 65.5168 92.0717C65.5604 92.2775 65.6384 92.5851 65.7608 92.9657C66.0056 93.7245 66.4281 94.7636 67.1194 95.8324C68.5272 97.9693 70.8937 100.234 75.4171 100.942C76.2207 101.067 76.9871 101.121 77.7182 101.121C84.2488 101.148 88.2648 96.581 89.1159 95.4847C89.2321 95.3333 89.2694 95.2792 89.2726 95.2792C89.7459 94.5894 90.6858 94.419 91.3695 94.8986C92.0547 95.3755 92.2239 96.322 91.7475 97.0118C91.6393 97.1445 86.8811 104.112 77.7182 104.16C76.835 104.16 75.9152 104.093 74.9611 103.947Z" fill="#E23D84"/>
<path fill-rule="evenodd" clip-rule="evenodd" d="M104.753 51.6115C100.802 52.0439 94.2255 56.9708 97.3786 61.7152C100.333 66.1592 106.558 62.5958 108.019 58.803C109.078 56.0525 108.682 53.2022 105.83 51.8291L104.753 51.6115Z" fill="white"/>
<path fill-rule="evenodd" clip-rule="evenodd" d="M96.3341 62.4207C95.6247 61.3652 95.2864 60.2171 95.2888 59.1137C95.3122 56.6292 96.8393 54.5849 98.6436 53.0892C100.479 51.5927 102.66 50.581 104.616 50.3534C104.949 50.3166 105.266 50.4146 105.513 50.6039C105.79 50.5309 106.094 50.5521 106.373 50.6871C108.705 51.7691 109.851 53.9634 109.812 56.1254C109.81 57.1769 109.584 58.2371 109.189 59.2621C107.936 62.3233 104.626 64.964 101.09 65.0425C101.064 65.0425 101.039 65.0425 101.013 65.0425C99.2838 65.0425 97.4847 64.1927 96.3341 62.4207ZM104.889 52.8694C103.616 52.9941 101.696 53.833 100.235 55.0487C98.7426 56.2666 97.7817 57.7993 97.8026 59.1137C97.8065 59.7164 97.968 60.3223 98.4216 61.0106C99.2057 62.1469 100.038 62.4859 101.09 62.511C103.225 62.5917 106.136 60.3575 106.846 58.3454C107.146 57.567 107.298 56.8043 107.295 56.1254C107.256 54.7222 106.786 53.7318 105.289 52.9706C105.209 52.933 105.136 52.8867 105.069 52.8365C105.011 52.8514 104.95 52.8632 104.889 52.8694Z" fill="#C3A4CC"/>
<path fill-rule="evenodd" clip-rule="evenodd" d="M77.1323 39.8804C72.2301 40.4688 71.478 48.661 74.5272 51.7143C78.4178 55.6098 84.5874 49.4606 84.7644 45.219C84.9437 40.8925 80.0149 40.4768 76.9157 40.0977L77.1323 39.8804Z" fill="white"/>
<path fill-rule="evenodd" clip-rule="evenodd" d="M73.6383 52.6105C72.102 51.0458 71.4658 48.7575 71.4548 46.4918C71.4572 44.7411 71.8501 42.9738 72.7317 41.4985C73.597 40.0316 75.0679 38.8429 76.9823 38.624C77.3626 38.5784 77.7236 38.7094 77.9854 38.9528C79.3497 39.1207 80.9779 39.3552 82.4636 39.9704C84.2886 40.6681 86.0688 42.368 86.0237 44.9914C86.0237 45.0753 86.0237 45.1671 86.0183 45.2723C85.91 47.37 84.7959 49.4691 83.255 51.1775C81.7023 52.8577 79.6723 54.1941 77.3854 54.2186C77.3721 54.2186 77.3596 54.2186 77.3472 54.2186C76.0455 54.2186 74.7007 53.6911 73.6383 52.6105ZM74.8823 42.8098C74.2976 43.7741 73.9656 45.1342 73.968 46.4918C73.9587 48.2614 74.5433 49.9739 75.4132 50.8167C76.0788 51.468 76.6853 51.676 77.3854 51.686C78.5858 51.7111 80.1758 50.8269 81.4035 49.4638C82.6452 48.1264 83.4763 46.3592 83.505 45.1696C83.5097 45.1131 83.5097 45.0541 83.5097 44.9914C83.4636 43.4972 82.8393 42.9377 81.4977 42.3099C80.1695 41.7441 78.2995 41.5345 76.7653 41.3532C76.6954 41.3454 76.6275 41.3312 76.5628 41.3117C75.8705 41.5721 75.3383 42.0744 74.8823 42.8098Z" fill="#C3A4CC"/>
<path fill-rule="evenodd" clip-rule="evenodd" d="M37.2117 41.7267C37.2117 43.2273 36.101 44.4428 34.7299 44.4428C33.3596 44.4428 32.2488 43.2273 32.2488 41.7267C32.2488 40.2272 33.3596 39.0114 34.7299 39.0114C36.101 39.0114 37.2117 40.2272 37.2117 41.7267Z" fill="#C26F98"/>
<path fill-rule="evenodd" clip-rule="evenodd" d="M45.8432 42.7046C45.8432 44.2043 44.7325 45.4207 43.3605 45.4207C41.991 45.4207 40.8802 44.2043 40.8802 42.7046C40.8802 41.2048 41.991 39.9885 43.3605 39.9885C44.7325 39.9885 45.8432 41.2048 45.8432 42.7046Z" fill="#C26F98"/>
<path fill-rule="evenodd" clip-rule="evenodd" d="M102.44 37.8165C101.905 37.3722 101.827 36.5734 102.269 36.0342C103.921 34.0495 105.255 30.2018 105.237 26.7278C105.237 23.9151 104.414 21.4607 102.65 20.0943C101.755 19.3998 101.017 19.1761 100.35 19.1723C98.9602 19.1338 97.3527 20.3838 96.0955 22.356C94.8404 24.2808 94.0017 26.7741 93.8582 28.4322C93.8286 28.7445 93.8116 29.0577 93.8138 29.3716C93.8099 31.4324 94.4438 33.5034 95.7439 34.8877C96.2163 35.3969 96.1898 36.2006 95.6831 36.6769C95.1756 37.1549 94.3797 37.1273 93.9059 36.6181C92.053 34.6161 91.2999 31.9251 91.2985 29.3716C91.2985 28.9739 91.3172 28.5774 91.3554 28.1938C91.5658 26.0011 92.5051 23.2914 93.9862 20.9764C95.4624 18.7085 97.5491 16.6791 100.35 16.6413C101.636 16.6373 102.963 17.1287 104.193 18.0954C106.812 20.1626 107.752 23.4703 107.752 26.7278C107.734 30.8148 106.34 35.0078 104.211 37.6436H104.213C103.964 37.9475 103.603 38.1052 103.239 38.1052C102.958 38.1052 102.676 38.0103 102.44 37.8165Z" fill="#EE9AC1"/>
<path fill-rule="evenodd" clip-rule="evenodd" d="M122.61 48.1349C122.132 47.6258 122.155 46.8246 122.662 46.3449C124.687 44.4294 126.24 41.9442 127.96 39.4479C129.207 37.6985 131.412 33.3276 131.362 30.6053C131.362 29.7702 131.181 29.1565 130.872 28.7516C130.563 28.349 130.086 28.0139 129.065 27.8469C128.737 27.7957 128.425 27.7722 128.125 27.7722C125.578 27.7682 123.589 29.4595 122.108 32.1181C120.65 34.7449 119.891 38.1993 119.897 40.9256C119.897 41.5807 119.941 42.1914 120.02 42.7352H120.023C120.124 43.4266 119.652 44.0708 118.965 44.1745C118.276 44.2773 117.637 43.8001 117.535 43.1094C117.432 42.4214 117.384 41.6899 117.383 40.9256C117.39 37.7534 118.205 33.997 119.907 30.89C121.585 27.8131 124.336 25.2429 128.125 25.2413C128.557 25.2413 129 25.2745 129.448 25.3444C130.925 25.5617 132.132 26.2192 132.877 27.2213C133.625 28.2188 133.879 29.4219 133.879 30.6053C133.828 34.4363 131.445 38.7801 130.027 40.8933C128.348 43.3136 126.722 45.9667 124.388 48.1877C124.144 48.4184 123.833 48.533 123.523 48.533C123.19 48.533 122.855 48.3988 122.61 48.1349Z" fill="#EE9AC1"/>
<path fill-rule="evenodd" clip-rule="evenodd" d="M75.0885 40.1511C75.0769 40.1235 73.3221 37.3486 72.8234 35.0352C72.7649 34.7629 72.9388 34.4944 73.2092 34.4357C73.4797 34.3768 73.747 34.5509 73.8062 34.8234C74.2265 36.8448 75.9303 39.6094 75.9383 39.6113H75.9414C76.0872 39.8488 76.0154 40.1614 75.7801 40.3104C75.6975 40.3622 75.6047 40.3874 75.515 40.3874C75.3466 40.3874 75.1828 40.3026 75.0885 40.1511Z" fill="#1B1918"/>
<path fill-rule="evenodd" clip-rule="evenodd" d="M79.2079 40.5779C79.2056 40.563 78.9514 39.0946 78.9491 37.5119C78.9676 36.2092 79.0698 34.8256 79.8751 33.9703C80.0716 33.7756 80.3895 33.7756 80.5859 33.9727C80.7809 34.1704 80.7809 34.4914 80.5844 34.6891C80.1688 35.0589 79.938 36.298 79.9568 37.5121C79.9553 38.988 80.1961 40.403 80.1986 40.4055C80.2467 40.6809 80.0605 40.9438 79.7876 40.9917C79.7588 40.9972 79.7299 40.9995 79.7019 40.9995C79.4619 40.9995 79.2492 40.8235 79.2079 40.5779Z" fill="#1B1918"/>
<path fill-rule="evenodd" clip-rule="evenodd" d="M83.015 42.2603C82.7445 42.1945 82.5801 41.9213 82.6449 41.6507C82.7032 41.6271 83.5755 37.1525 86.5344 36.3732C86.8033 36.3121 87.0731 36.4847 87.1338 36.7561C87.1939 37.0293 87.0225 37.3 86.752 37.3611C85.7847 37.5558 84.9481 38.6364 84.4112 39.7485C83.8701 40.8478 83.6224 41.8837 83.6224 41.8862C83.567 42.1191 83.3603 42.2746 83.1328 42.2746C83.0945 42.2746 83.0541 42.2699 83.015 42.2603Z" fill="#1B1918"/>
<path fill-rule="evenodd" clip-rule="evenodd" d="M80.3312 56.9652C78.9648 56.2362 78.8852 54.5644 78.8643 53.6166C78.8643 53.1441 78.9056 52.8169 78.908 52.802C78.9438 52.525 79.1939 52.3295 79.4699 52.3658C79.7443 52.4009 79.9383 52.6529 79.9057 52.9299C79.9057 52.9299 79.8689 53.2052 79.8689 53.6166C79.8488 54.493 80.095 55.7848 80.7709 56.0533C81.0219 56.1748 81.1264 56.4793 81.0031 56.732C80.9159 56.9101 80.7373 57.0154 80.5511 57.0154C80.477 57.0154 80.4021 56.999 80.3312 56.9652Z" fill="#1B1918"/>
<path fill-rule="evenodd" clip-rule="evenodd" d="M73.6922 56.6827C73.4951 56.4849 73.4951 56.1639 73.6922 55.9668C73.9253 55.7479 74.4335 54.8267 74.8045 54.0231C75.1889 53.2108 75.4881 52.485 75.4912 52.4819C75.5973 52.2246 75.8912 52.102 76.1477 52.2094C76.4018 52.3161 76.5258 52.612 76.4181 52.8703C76.3877 52.9064 75.2513 55.7864 74.4032 56.6827C74.3049 56.7814 74.1763 56.8301 74.0477 56.8301C73.9191 56.8301 73.7897 56.7814 73.6922 56.6827Z" fill="#1B1918"/>
<path fill-rule="evenodd" clip-rule="evenodd" d="M69.6903 52.8082C69.4431 52.678 69.3503 52.3711 69.4791 52.1239C69.8634 51.4568 70.7309 50.924 71.5635 50.3975C72.3896 49.8952 73.1457 49.5099 73.1535 49.5069C73.4022 49.3811 73.7016 49.4817 73.8294 49.7319C73.9549 49.9816 73.8543 50.2836 73.6065 50.4115C73.6041 50.4115 72.8706 50.7837 72.0849 51.264C71.3031 51.7167 70.4448 52.3845 70.3723 52.594C70.2819 52.7675 70.1058 52.8662 69.9241 52.8662C69.8455 52.8662 69.765 52.8475 69.6903 52.8082Z" fill="#1B1918"/>
<path fill-rule="evenodd" clip-rule="evenodd" d="M93.8883 64.52C93.6911 64.3222 93.6911 64.0019 93.8883 63.8041C94.7661 62.9292 97.0765 61.3118 97.0889 61.3H97.0912C97.3166 61.1401 97.6305 61.195 97.7888 61.4241C97.9494 61.6539 97.8933 61.9687 97.6648 62.1289C97.6641 62.1328 95.3264 63.7831 94.6008 64.5216C94.5018 64.6187 94.3732 64.6682 94.2453 64.6682C94.1157 64.6682 93.9873 64.6187 93.8883 64.52Z" fill="#1B1918"/>
<path fill-rule="evenodd" clip-rule="evenodd" d="M98.0026 66.5131C98.0806 65.1698 99.7112 63.4188 99.7199 63.3468C99.8975 63.1325 100.215 63.105 100.428 63.2838C100.642 63.4651 100.668 63.7823 100.491 63.9972C100.491 63.9995 100.104 64.4604 99.7214 65.0307C99.3307 65.5833 98.9807 66.3178 99.0081 66.5131C99.0081 66.7934 98.7827 67.021 98.5045 67.021C98.2262 67.021 98.0026 66.7934 98.0026 66.5131Z" fill="#1B1918"/>
<path fill-rule="evenodd" clip-rule="evenodd" d="M104.423 67.3324C103.615 66.456 102.731 63.5853 102.692 63.5414L102.694 63.5438C102.604 63.2786 102.744 62.9898 103.008 62.9011C103.272 62.8123 103.556 62.9536 103.645 63.219C103.645 63.2221 103.891 63.9504 104.212 64.7563C104.512 65.5511 104.962 66.4694 105.135 66.6169C105.332 66.8146 105.332 67.1372 105.135 67.3349C105.036 67.4331 104.907 67.4818 104.778 67.4818C104.649 67.4818 104.52 67.4321 104.423 67.3324Z" fill="#1B1918"/>
<path fill-rule="evenodd" clip-rule="evenodd" d="M108.427 54.3934C108.172 54.2813 108.053 53.9839 108.164 53.7265C108.166 53.7202 108.651 52.5799 109.293 51.3699C109.975 50.1535 110.636 48.8971 111.56 48.4733C111.82 48.3744 112.111 48.5047 112.209 48.7661C112.308 49.0256 112.18 49.3184 111.921 49.4181C111.654 49.455 110.758 50.6887 110.18 51.8477C109.563 53.0116 109.09 54.1227 109.088 54.1251L109.09 54.1267C109.007 54.3189 108.821 54.4335 108.626 54.4335C108.56 54.4335 108.492 54.421 108.427 54.3934Z" fill="#1B1918"/>
<path fill-rule="evenodd" clip-rule="evenodd" d="M104.198 51.1871C104.196 51.1681 103.838 49.7233 103.837 48.3039C103.848 47.4508 103.93 46.5744 104.517 45.959C104.713 45.7613 105.032 45.7628 105.229 45.9614C105.424 46.1616 105.421 46.4817 105.225 46.6779C104.995 46.8734 104.83 47.545 104.84 48.304C104.838 49.5573 105.174 50.9431 105.174 50.9479H105.177C105.241 51.2192 105.076 51.4933 104.807 51.5607C104.767 51.57 104.727 51.575 104.687 51.575C104.46 51.575 104.254 51.4208 104.198 51.1871Z" fill="#1B1918"/>
<path fill-rule="evenodd" clip-rule="evenodd" d="M100.769 52.6992C100.763 52.6489 98.4069 48.5997 98.3672 46.3638C98.3672 46.0845 98.5925 45.8585 98.8715 45.8585C99.1482 45.8585 99.3734 46.0845 99.3734 46.3638C99.361 47.1493 99.9192 48.6757 100.497 49.9228C101.07 51.1792 101.643 52.1985 101.645 52.2V52.2024C101.782 52.4449 101.696 52.7541 101.454 52.8913C101.375 52.9361 101.29 52.958 101.206 52.958C101.031 52.958 100.862 52.8647 100.769 52.6992Z" fill="#1B1918"/>
<path fill-rule="evenodd" clip-rule="evenodd" d="M106.568 57.5466C106.568 58.628 105.686 59.5062 104.598 59.5062C103.509 59.5062 102.625 58.628 102.625 57.5466C102.625 56.4638 103.509 55.5865 104.598 55.5865C105.686 55.5865 106.568 56.4638 106.568 57.5466Z" fill="#1B1918"/>
<path fill-rule="evenodd" clip-rule="evenodd" d="M81.8817 46.7107C81.8817 47.7922 80.9994 48.6703 79.9112 48.6703C78.8221 48.6703 77.9382 47.7922 77.9382 46.7107C77.9382 45.6278 78.8221 44.7504 79.9112 44.7504C80.9994 44.7504 81.8817 45.6278 81.8817 46.7107Z" fill="#1B1918"/>
<path fill-rule="evenodd" clip-rule="evenodd" d="M179.49 163.191L170.102 159.816C169.927 159.754 169.764 159.65 169.635 159.518L146.165 135.893C145.673 135.397 145.673 134.596 146.165 134.101C146.655 133.605 147.452 133.605 147.943 134.101L171.211 157.526L180.335 160.806L180.337 160.808C180.989 161.042 181.332 161.767 181.097 162.426C180.912 162.942 180.428 163.265 179.912 163.265C179.773 163.265 179.629 163.242 179.49 163.191Z" fill="#F3C5DB"/>
<path fill-rule="evenodd" clip-rule="evenodd" d="M171.999 168.421L169.315 158.97C169.138 158.345 169.459 157.689 170.058 157.449L180.115 153.397L180.118 153.399C180.761 153.139 181.492 153.454 181.751 154.104C182.007 154.752 181.694 155.489 181.05 155.748L172.044 159.374L174.416 167.728C174.606 168.4 174.22 169.099 173.553 169.292C173.438 169.326 173.322 169.341 173.208 169.341C172.66 169.341 172.156 168.978 171.999 168.421Z" fill="#F3C5DB"/>
</g>
<defs>
<filter id="filter0_d_4_2048" x="0.734436" y="0.641235" width="208.266" height="259.496" filterUnits="userSpaceOnUse" color-interpolation-filters="sRGB">
<feFlood flood-opacity="0" result="BackgroundImageFix"/>
<feColorMatrix in="SourceAlpha" type="matrix" values="0 0 0 0 0 0 0 0 0 0 0 0 0 0 0 0 0 0 127 0" result="hardAlpha"/>
<feOffset dy="4"/>
<feGaussianBlur stdDeviation="10"/>
<feComposite in2="hardAlpha" operator="out"/>
<feColorMatrix type="matrix" values="0 0 0 0 0 0 0 0 0 0 0 0 0 0 0 0 0 0 0.25 0"/>
<feBlend mode="normal" in2="BackgroundImageFix" result="effect1_dropShadow_4_2048"/>
<feBlend mode="normal" in="SourceGraphic" in2="effect1_dropShadow_4_2048" result="shape"/>
</filter>
</defs>
</svg>
