<svg width="169" height="221" viewBox="0 0 169 221" fill="none" xmlns="http://www.w3.org/2000/svg">
<path fill-rule="evenodd" clip-rule="evenodd" d="M101.995 217.396L100.567 187.634C100.527 186.795 101.167 186.083 102.001 186.042C102.834 186.001 103.54 186.647 103.58 187.486L105.009 217.25C105.049 218.087 104.406 218.799 103.575 218.84C103.551 218.843 103.526 218.843 103.503 218.843C102.7 218.843 102.033 218.209 101.995 217.396Z" fill="#F3C5DB"/>
<path fill-rule="evenodd" clip-rule="evenodd" d="M87.7717 220.137C85.6288 220.137 83.8921 218.808 83.8921 217.169C83.8921 215.53 85.6288 214.202 87.7717 214.202L102.732 215.482C104.413 215.482 105.776 216.525 105.776 217.809C105.776 219.095 104.413 220.137 102.732 220.137H87.7717Z" fill="#1B1918"/>
<path fill-rule="evenodd" clip-rule="evenodd" d="M46.8138 217.396L45.3867 187.632C45.346 186.795 45.9877 186.082 46.8194 186.042C47.6541 186.001 48.3604 186.648 48.401 187.486L49.8297 217.249C49.8686 218.088 49.2272 218.799 48.3939 218.84C48.3681 218.84 48.3449 218.841 48.3205 218.841C47.5216 218.841 46.852 218.209 46.8138 217.396Z" fill="#F3C5DB"/>
<path fill-rule="evenodd" clip-rule="evenodd" d="M32.5921 220.137C30.4492 220.137 28.7125 218.808 28.7125 217.169C28.7125 215.53 30.4492 214.202 32.5921 214.202L47.5513 215.482C49.2334 215.482 50.596 216.525 50.596 217.809C50.596 219.095 49.2334 220.137 47.5513 220.137H32.5921Z" fill="#1B1918"/>
<path fill-rule="evenodd" clip-rule="evenodd" d="M152.988 180.541C152.899 180.444 152.812 180.346 152.727 180.249C152.035 180.409 151.296 180.53 150.515 180.609C149.3 180.739 148.259 180.798 147.362 180.798C145.374 180.789 144.06 180.534 143.046 179.956C142.015 179.405 141.461 178.254 141.507 177.43C141.525 176.512 141.875 175.999 141.944 175.87C142.383 175.159 143.313 174.943 144.02 175.388C144.68 175.802 144.912 176.647 144.578 177.338C144.832 177.492 145.688 177.768 147.362 177.76C148.129 177.76 149.067 177.711 150.194 177.589C150.431 177.56 150.661 177.529 150.885 177.495C150.279 176.235 149.994 174.996 149.996 173.825C150.024 170.07 152.815 167.389 155.823 167.35C156.63 167.348 157.472 167.568 158.206 168.046C159.727 169.026 160.576 170.739 160.568 172.516C160.562 175.04 158.971 177.57 155.866 179.138C157.298 180.438 158.629 180.811 159.933 180.828C162.385 180.86 164.897 179.15 165.925 178.263C166.271 177.973 166.426 177.816 166.426 177.814V177.816C167.015 177.222 167.97 177.222 168.56 177.816C169.147 178.407 169.147 179.371 168.56 179.963C168.43 180.033 164.904 183.79 159.933 183.865C159.913 183.867 159.894 183.867 159.874 183.867C157.616 183.867 155.109 182.905 152.988 180.541ZM153.984 171.288C153.416 171.894 153.015 172.745 153.013 173.825C153.014 174.627 153.24 175.597 153.884 176.703C156.678 175.568 157.556 173.749 157.55 172.516C157.541 171.663 157.186 171.005 156.57 170.599C156.347 170.456 156.115 170.391 155.823 170.388C155.815 170.388 155.809 170.388 155.801 170.388C155.264 170.388 154.543 170.69 153.984 171.288Z" fill="#F3C5DB"/>
<path fill-rule="evenodd" clip-rule="evenodd" d="M11.615 144.899C10.9236 144.841 10.4068 144.231 10.463 143.535L11.0545 136.095L1.60625 133.027H1.60861C0.945959 132.812 0.582075 132.099 0.795501 131.434C1.01072 130.766 1.71844 130.401 2.38108 130.616L12.7732 133.994C13.3289 134.173 13.6854 134.712 13.6407 135.299L12.9696 143.74C12.9166 144.4 12.3665 144.902 11.7177 144.902C11.6835 144.902 11.6493 144.901 11.615 144.899Z" fill="#F3C5DB"/>
<path fill-rule="evenodd" clip-rule="evenodd" d="M2.49593 139.029C2.24641 138.376 2.57082 137.644 3.21928 137.392L11.7002 134.107L28.6168 117.747C29.1179 117.261 29.9122 117.278 30.3924 117.782C30.8725 118.284 30.8577 119.086 30.3566 119.569L13.2592 136.109C13.1375 136.227 12.995 136.319 12.8374 136.38L4.12124 139.755C3.97392 139.812 3.81942 139.838 3.67069 139.838C3.16472 139.838 2.68854 139.53 2.49593 139.029Z" fill="#F3C5DB"/>
<path fill-rule="evenodd" clip-rule="evenodd" d="M144.403 197.307H11.9644C11.9644 197.307 7.94132 120.346 43.1456 98.0685L110.874 96.3812C110.874 96.3812 144.403 105.832 144.403 195.958V197.307Z" fill="#F3AF89"/>
<path fill-rule="evenodd" clip-rule="evenodd" d="M11.9642 198.572C11.2969 198.572 10.7427 198.044 10.7084 197.374C10.7061 197.354 10.5673 194.668 10.5641 190.162C10.5673 180.303 11.2308 161.736 15.5132 143.276C19.806 124.833 27.6772 106.392 42.4751 96.9958C42.6677 96.8748 42.8867 96.808 43.1136 96.8027L110.841 95.1155L111.212 95.1601C111.811 95.2661 145.744 105.567 145.66 195.956C145.66 196.203 145.589 196.436 145.466 196.63C145.589 196.827 145.66 197.059 145.66 197.307C145.66 198.005 145.095 198.572 144.402 198.572H11.9642ZM143.147 196.04C143.145 196.013 143.144 195.985 143.144 195.956C143.083 111.71 113.918 98.8924 110.814 97.6957C110.767 97.6785 110.727 97.6636 110.693 97.6518L43.5243 99.3249C29.8466 108.124 22.1351 125.806 17.9623 143.85C13.7469 162.004 13.0796 180.42 13.0811 190.162C13.0804 192.843 13.1304 194.859 13.1693 196.04H143.147Z" fill="#F09362"/>
<path fill-rule="evenodd" clip-rule="evenodd" d="M117.767 39.0447C114.4 34.3731 110.69 30.6715 106.566 27.6847C107.4 26.531 108.186 25.3399 108.995 24.1713C111.152 21.0519 115.807 11.5995 109.26 10.5968C102.852 9.61575 99.3532 17.0175 98.7407 23.057C95.3662 21.4474 91.7469 20.1394 87.855 19.0376C86.8555 18.7551 85.8438 18.4843 84.8344 18.2152C87.035 13.4619 87.4917 6.28141 83.4221 3.09594C77.8089 -1.29852 73.0509 7.56676 72.6072 12.3114C72.5145 13.3151 72.5542 14.3572 72.7398 15.3712C56.0563 11.9637 38.3852 10.4617 21.8778 11.9127L17.7505 13.2688C10.912 15.211 4.46551 27.8244 7.64826 34.173C10.7662 40.3914 20.1965 47.0109 26.5914 49.2536C29.4788 50.2668 32.6208 51.622 35.7769 52.2318C29.983 63.6185 28.237 72.5089 31.0993 86.3678C34.7683 104.135 50.9795 112.199 68.6123 115.166C96.2649 119.82 118.986 104.382 125.104 76.5041C127.896 63.7825 125.491 49.7621 117.767 39.0447Z" fill="#F3C5DB"/>
<path fill-rule="evenodd" clip-rule="evenodd" d="M78.2151 117.249C75.0238 117.249 71.7461 116.975 68.4052 116.412C50.5999 113.443 33.7123 105.152 29.8678 86.6245C28.9442 82.1615 28.485 78.1757 28.485 74.4372C28.4803 66.8801 30.376 60.3839 33.9204 53.1092C31.1682 52.3904 28.5504 51.2713 26.1778 50.4489C19.4599 48.0404 9.97601 41.4775 6.52745 34.7452C5.83526 33.3712 5.55151 31.818 5.55151 30.2108C5.56165 26.5673 6.98198 22.5681 9.11849 19.1789C11.273 15.8068 14.1329 13.0037 17.3584 12.0658L21.4859 10.7089L21.7681 10.6517C26.0624 10.2702 30.4361 10.0929 34.8465 10.0929C52.813 10.0929 71.4202 13.0735 88.1943 17.8179C100.813 21.3744 110.807 27.2106 118.783 38.3C124.608 46.3869 127.481 56.2624 127.483 66.0922C127.481 69.6863 127.099 73.2789 126.33 76.7765C120.874 101.817 102.019 117.249 78.3024 117.249C78.2728 117.249 78.2432 117.249 78.2151 117.249ZM31.0013 74.4372C31.0013 77.9663 31.4306 81.7738 32.3302 86.1104C35.8239 103.114 51.3585 110.952 68.8191 113.917C72.0298 114.457 75.1681 114.716 78.2151 114.716C100.855 114.681 118.546 100.303 123.875 76.2296C124.602 72.9147 124.968 69.5059 124.966 66.0922C124.968 56.7535 122.232 47.3946 116.748 39.788C109.096 29.1922 99.7971 23.7469 87.5129 20.2562C70.9409 15.565 52.5386 12.6246 34.8465 12.6246C30.5523 12.6246 26.3001 12.7964 22.1305 13.1605L18.0905 14.4861C15.7637 15.1232 13.154 17.4891 11.2394 20.5402C9.30626 23.5734 8.05517 27.2491 8.06624 30.2108C8.06624 31.519 8.30156 32.6749 8.7709 33.6018C11.5552 39.3054 20.9309 45.9805 27.004 48.0584C29.6426 48.9947 32.4082 50.1474 35.0897 50.7918C35.5097 49.9866 35.9494 49.1688 36.4062 48.3378L36.4078 48.3409C36.7423 47.729 37.5084 47.5067 38.1158 47.8451C38.7215 48.1841 38.9429 48.954 38.6053 49.5637C38.295 50.1303 37.994 50.6873 37.7026 51.2374C38.0986 51.2737 38.4899 51.2917 38.8797 51.2902C39.3419 51.2878 39.8018 51.2619 40.2602 51.2054C40.9485 51.1207 41.5751 51.6158 41.6593 52.3103C41.7442 53.0023 41.2539 53.6325 40.5649 53.7182C39.9997 53.788 39.4409 53.8216 38.8797 53.8216C38.0705 53.8185 37.266 53.7502 36.471 53.635C32.8386 60.9481 31.0051 67.1256 31.0013 74.4372Z" fill="#EE9AC1"/>
<path fill-rule="evenodd" clip-rule="evenodd" d="M5.39886 29.4057C5.39886 26.4903 6.26238 23.4242 8.226 20.7373C11.9638 15.5704 16.7482 11.8217 23.3723 11.321C23.6311 11.3005 23.8916 11.3635 24.1168 11.4992L25.8606 12.5578C27.7781 13.6581 29.2582 14.6366 30.3254 15.9486C31.4075 17.2671 31.9179 18.9245 31.9031 20.8668C31.9031 21.9136 31.7723 23.0601 31.5423 24.377C30.5771 29.7134 27.234 34.8849 23.2453 38.3024C20.609 40.5538 17.9361 41.6 15.4518 41.6C9.38363 41.5379 5.40908 35.6406 5.39886 29.4057ZM10.2527 22.2331C8.62511 24.4687 7.91584 26.9886 7.91428 29.4057C7.91194 32.0157 8.75615 34.4893 10.1234 36.2518C11.5022 38.0174 13.324 39.0645 15.4518 39.0683C17.2253 39.0659 19.3104 38.3362 21.6193 36.3704C25.1893 33.3404 28.2645 28.5166 29.0666 23.9328C29.2801 22.7086 29.3886 21.6979 29.3886 20.8668C29.3738 19.2971 29.0611 18.4198 28.3735 17.5456C27.6759 16.6707 26.4483 15.7956 24.5938 14.7434L25.2136 13.6416L24.5651 14.726L23.1712 13.8809C17.6431 14.4467 13.7206 17.5018 10.2527 22.2331Z" fill="#EE9AC1"/>
<path fill-rule="evenodd" clip-rule="evenodd" d="M92.9516 63.4186C88.1944 63.5912 85.3491 65.236 83.1899 69.4988C81.5974 72.6433 80.2785 77.0638 82.7713 80.1234C88.4851 87.1353 103.642 81.7496 102.711 72.4636C102.14 66.7663 96.1966 63.7741 91.2257 63.4186H92.9516Z" fill="#F0A1C5"/>
<path fill-rule="evenodd" clip-rule="evenodd" d="M54.9611 87.9474C49.5585 87.1361 46.315 84.1853 44.5931 81.4912C42.851 78.7933 42.498 76.3709 42.4752 76.2381H42.4776C42.3567 75.4095 42.9258 74.638 43.7496 74.5157C44.5745 74.394 45.3399 74.9677 45.4607 75.7978C45.4646 75.7978 45.4693 75.8661 45.5168 76.0717C45.5604 76.2775 45.6384 76.5851 45.7608 76.9657C46.0056 77.7245 46.4281 78.7636 47.1194 79.8324C48.5272 81.9693 50.8937 84.234 55.4171 84.9425C56.2207 85.0666 56.9871 85.1207 57.7182 85.1207C64.2488 85.1483 68.2648 80.581 69.1159 79.4847C69.2321 79.3333 69.2694 79.2792 69.2726 79.2792C69.7459 78.5894 70.6858 78.419 71.3695 78.8986C72.0547 79.3755 72.2239 80.322 71.7475 81.0118C71.6393 81.1445 66.8811 88.1116 57.7182 88.1601C56.835 88.1601 55.9152 88.0927 54.9611 87.9474Z" fill="#E23D84"/>
<path fill-rule="evenodd" clip-rule="evenodd" d="M84.7526 35.6115C80.8021 36.0439 74.2255 40.9708 77.3786 45.7152C80.3328 50.1592 86.5578 46.5958 88.0186 42.803C89.0778 40.0525 88.6819 37.2022 85.8305 35.8291L84.7526 35.6115Z" fill="white"/>
<path fill-rule="evenodd" clip-rule="evenodd" d="M76.3341 46.4207C75.6247 45.3652 75.2864 44.2171 75.2888 43.1137C75.3122 40.6292 76.8393 38.5849 78.6436 37.0892C80.4793 35.5927 82.6605 34.581 84.6161 34.3534C84.9491 34.3166 85.2655 34.4146 85.5125 34.6039C85.7901 34.5309 86.0941 34.5521 86.3732 34.6871C88.7054 35.7691 89.8513 37.9634 89.8122 40.1254C89.8099 41.1769 89.584 42.2371 89.1886 43.2621C87.9361 46.3233 84.6263 48.964 81.0898 49.0425C81.064 49.0425 81.039 49.0425 81.0125 49.0425C79.2838 49.0425 77.4847 48.1927 76.3341 46.4207ZM84.889 36.8694C83.6161 36.9941 81.6961 37.833 80.2348 39.0487C78.7426 40.2666 77.7817 41.7993 77.8026 43.1137C77.8065 43.7164 77.968 44.3223 78.4216 45.0106C79.2057 46.1469 80.0383 46.4859 81.0898 46.511C83.2248 46.5917 86.1361 44.3575 86.8456 42.3454C87.1457 41.567 87.2977 40.8043 87.2953 40.1254C87.2564 38.7222 86.7864 37.7318 85.289 36.9706C85.2094 36.933 85.136 36.8867 85.0691 36.8365C85.0105 36.8514 84.9498 36.8632 84.889 36.8694Z" fill="#C3A4CC"/>
<path fill-rule="evenodd" clip-rule="evenodd" d="M57.1323 23.8804C52.2301 24.4688 51.478 32.661 54.5272 35.7143C58.4178 39.6098 64.5874 33.4606 64.7644 29.219C64.9437 24.8925 60.0149 24.4768 56.9157 24.0977L57.1323 23.8804Z" fill="white"/>
<path fill-rule="evenodd" clip-rule="evenodd" d="M53.6383 36.6105C52.102 35.0458 51.4658 32.7575 51.4548 30.4918C51.4572 28.7411 51.8501 26.9738 52.7317 25.4985C53.597 24.0316 55.0679 22.8429 56.9823 22.624C57.3626 22.5784 57.7236 22.7094 57.9854 22.9528C59.3497 23.1207 60.9779 23.3552 62.4636 23.9704C64.2886 24.6681 66.0688 26.368 66.0237 28.9914C66.0237 29.0753 66.0237 29.1671 66.0183 29.2723C65.91 31.37 64.7959 33.4691 63.255 35.1775C61.7023 36.8577 59.6723 38.1941 57.3854 38.2186C57.3721 38.2186 57.3596 38.2186 57.3472 38.2186C56.0455 38.2186 54.7007 37.6911 53.6383 36.6105ZM54.8823 26.8098C54.2976 27.7741 53.9656 29.1342 53.968 30.4918C53.9587 32.2614 54.5433 33.9739 55.4132 34.8167C56.0788 35.468 56.6853 35.676 57.3854 35.686C58.5858 35.7111 60.1758 34.8269 61.4035 33.4638C62.6452 32.1264 63.4763 30.3592 63.505 29.1696C63.5097 29.1131 63.5097 29.0541 63.5097 28.9914C63.4636 27.4972 62.8393 26.9377 61.4977 26.3099C60.1695 25.7441 58.2995 25.5345 56.7653 25.3532C56.6954 25.3454 56.6275 25.3312 56.5628 25.3117C55.8705 25.5721 55.3383 26.0744 54.8823 26.8098Z" fill="#C3A4CC"/>
<path fill-rule="evenodd" clip-rule="evenodd" d="M17.2117 25.7267C17.2117 27.2273 16.101 28.4428 14.7299 28.4428C13.3596 28.4428 12.2488 27.2273 12.2488 25.7267C12.2488 24.2272 13.3596 23.0114 14.7299 23.0114C16.101 23.0114 17.2117 24.2272 17.2117 25.7267Z" fill="#C26F98"/>
<path fill-rule="evenodd" clip-rule="evenodd" d="M25.8432 26.7046C25.8432 28.2043 24.7325 29.4207 23.3605 29.4207C21.991 29.4207 20.8802 28.2043 20.8802 26.7046C20.8802 25.2048 21.991 23.9885 23.3605 23.9885C24.7325 23.9885 25.8432 25.2048 25.8432 26.7046Z" fill="#C26F98"/>
<path fill-rule="evenodd" clip-rule="evenodd" d="M82.4405 21.8165C81.9051 21.3722 81.8271 20.5734 82.2691 20.0342C83.9207 18.0495 85.2553 14.2018 85.2365 10.7278C85.2365 7.91514 84.4141 5.46067 82.6501 4.09434C81.7547 3.39983 81.0171 3.1761 80.35 3.17233C78.9602 3.1338 77.3527 4.38376 76.0955 6.356C74.8404 8.28084 74.0017 10.7741 73.8582 12.4322C73.8286 12.7445 73.8116 13.0577 73.8138 13.3716C73.8099 15.4324 74.4438 17.5034 75.7439 18.8877C76.2163 19.3969 76.1898 20.2006 75.6831 20.6769C75.1756 21.1549 74.3797 21.1273 73.9059 20.6181C72.053 18.6161 71.2999 15.9251 71.2985 13.3716C71.2985 12.9739 71.3172 12.5774 71.3554 12.1938C71.5658 10.0011 72.5051 7.29142 73.9862 4.97639C75.4624 2.70846 77.5491 0.679084 80.35 0.641259C81.6359 0.637335 82.9635 1.12867 84.1929 2.0954C86.8119 4.1626 87.7519 7.47026 87.7519 10.7278C87.734 14.8148 86.3396 19.0078 84.2115 21.6436H84.213C83.9636 21.9475 83.6028 22.1052 83.2395 22.1052C82.9582 22.1052 82.676 22.0103 82.4405 21.8165Z" fill="#EE9AC1"/>
<path fill-rule="evenodd" clip-rule="evenodd" d="M102.61 32.1349C102.132 31.6258 102.155 30.8246 102.662 30.3449C104.687 28.4294 106.24 25.9442 107.96 23.4479C109.207 21.6985 111.412 17.3276 111.362 14.6053C111.362 13.7702 111.181 13.1565 110.872 12.7516C110.563 12.349 110.086 12.0139 109.065 11.8469C108.737 11.7957 108.425 11.7722 108.125 11.7722C105.578 11.7682 103.589 13.4595 102.108 16.1181C100.65 18.7449 99.8907 22.1993 99.8969 24.9256C99.8969 25.5807 99.9406 26.1914 100.02 26.7352H100.023C100.124 27.4266 99.6516 28.0708 98.9648 28.1745C98.2757 28.2773 97.6373 27.8001 97.5353 27.1094C97.4323 26.4214 97.3841 25.6899 97.3826 24.9256C97.3896 21.7534 98.2048 17.997 99.9073 14.89C101.585 11.8131 104.336 9.2429 108.125 9.24133C108.557 9.24133 109 9.27453 109.448 9.34437C110.925 9.56167 112.132 10.2192 112.877 11.2213C113.625 12.2188 113.879 13.4219 113.879 14.6053C113.828 18.4363 111.445 22.7801 110.027 24.8933C108.348 27.3136 106.722 29.9667 104.388 32.1877C104.144 32.4184 103.833 32.533 103.523 32.533C103.19 32.533 102.855 32.3988 102.61 32.1349Z" fill="#EE9AC1"/>
<path fill-rule="evenodd" clip-rule="evenodd" d="M55.0885 24.1511C55.0769 24.1235 53.3221 21.3486 52.8234 19.0352C52.7649 18.7629 52.9388 18.4944 53.2092 18.4357C53.4797 18.3768 53.747 18.5509 53.8062 18.8234C54.2265 20.8448 55.9303 23.6094 55.9383 23.6113H55.9414C56.0872 23.8488 56.0154 24.1614 55.7801 24.3104C55.6975 24.3622 55.6047 24.3874 55.515 24.3874C55.3466 24.3874 55.1828 24.3026 55.0885 24.1511Z" fill="#1B1918"/>
<path fill-rule="evenodd" clip-rule="evenodd" d="M59.2079 24.5779C59.2056 24.563 58.9514 23.0946 58.9491 21.5119C58.9676 20.2092 59.0698 18.8256 59.8751 17.9703C60.0716 17.7756 60.3895 17.7756 60.5859 17.9727C60.7809 18.1704 60.7809 18.4914 60.5844 18.6891C60.1688 19.0589 59.938 20.298 59.9568 21.5121C59.9553 22.988 60.1961 24.403 60.1986 24.4055C60.2467 24.6809 60.0605 24.9438 59.7876 24.9917C59.7588 24.9972 59.7299 24.9995 59.7019 24.9995C59.4619 24.9995 59.2492 24.8235 59.2079 24.5779Z" fill="#1B1918"/>
<path fill-rule="evenodd" clip-rule="evenodd" d="M63.015 26.2603C62.7445 26.1945 62.5801 25.9213 62.6449 25.6507C62.7032 25.6271 63.5755 21.1525 66.5344 20.3732C66.8033 20.3121 67.0731 20.4847 67.1338 20.7561C67.1939 21.0293 67.0225 21.3 66.752 21.3611C65.7847 21.5558 64.9481 22.6364 64.4112 23.7485C63.8701 24.8478 63.6224 25.8837 63.6224 25.8862C63.567 26.1191 63.3603 26.2746 63.1328 26.2746C63.0945 26.2746 63.0541 26.2699 63.015 26.2603Z" fill="#1B1918"/>
<path fill-rule="evenodd" clip-rule="evenodd" d="M60.3312 40.9652C58.9648 40.2362 58.8852 38.5644 58.8643 37.6166C58.8643 37.1441 58.9056 36.8169 58.908 36.802C58.9438 36.525 59.1939 36.3295 59.4699 36.3658C59.7443 36.4009 59.9383 36.6529 59.9057 36.9299C59.9057 36.9299 59.8689 37.2052 59.8689 37.6166C59.8488 38.493 60.095 39.7848 60.7709 40.0533C61.0219 40.1748 61.1264 40.4793 61.0031 40.732C60.9159 40.9101 60.7373 41.0154 60.5511 41.0154C60.477 41.0154 60.4021 40.999 60.3312 40.9652Z" fill="#1B1918"/>
<path fill-rule="evenodd" clip-rule="evenodd" d="M53.6922 40.6827C53.4951 40.4849 53.4951 40.1639 53.6922 39.9668C53.9253 39.7479 54.4335 38.8267 54.8045 38.0231C55.1889 37.2108 55.4881 36.485 55.4912 36.4819C55.5973 36.2246 55.8912 36.102 56.1477 36.2094C56.4018 36.3161 56.5258 36.612 56.4181 36.8703C56.3877 36.9064 55.2513 39.7864 54.4032 40.6827C54.3049 40.7814 54.1763 40.8301 54.0477 40.8301C53.9191 40.8301 53.7897 40.7814 53.6922 40.6827Z" fill="#1B1918"/>
<path fill-rule="evenodd" clip-rule="evenodd" d="M49.6903 36.8082C49.4431 36.678 49.3503 36.3711 49.4791 36.1239C49.8634 35.4568 50.7309 34.924 51.5635 34.3975C52.3896 33.8952 53.1457 33.5099 53.1535 33.5069C53.4022 33.3811 53.7016 33.4817 53.8294 33.7319C53.9549 33.9816 53.8543 34.2836 53.6065 34.4115C53.6041 34.4115 52.8706 34.7837 52.0849 35.264C51.3031 35.7167 50.4448 36.3845 50.3723 36.594C50.2819 36.7675 50.1058 36.8662 49.9241 36.8662C49.8455 36.8662 49.765 36.8475 49.6903 36.8082Z" fill="#1B1918"/>
<path fill-rule="evenodd" clip-rule="evenodd" d="M73.8883 48.52C73.6911 48.3222 73.6911 48.0019 73.8883 47.8041C74.7661 46.9292 77.0765 45.3118 77.0889 45.3H77.0912C77.3166 45.1401 77.6305 45.195 77.7888 45.4241C77.9494 45.6539 77.8933 45.9687 77.6648 46.1289C77.6641 46.1328 75.3264 47.7831 74.6008 48.5216C74.5018 48.6187 74.3732 48.6682 74.2453 48.6682C74.1157 48.6682 73.9873 48.6187 73.8883 48.52Z" fill="#1B1918"/>
<path fill-rule="evenodd" clip-rule="evenodd" d="M78.0026 50.5131C78.0806 49.1698 79.7112 47.4188 79.7199 47.3468C79.8975 47.1325 80.2147 47.105 80.4283 47.2838C80.6419 47.4651 80.6684 47.7823 80.4908 47.9972C80.4908 47.9995 80.1041 48.4604 79.7214 49.0307C79.3307 49.5833 78.9807 50.3178 79.0081 50.5131C79.0081 50.7934 78.7827 51.021 78.5045 51.021C78.2262 51.021 78.0026 50.7934 78.0026 50.5131Z" fill="#1B1918"/>
<path fill-rule="evenodd" clip-rule="evenodd" d="M84.4229 51.3324C83.6147 50.456 82.7306 47.5853 82.6918 47.5414L82.6941 47.5438C82.6035 47.2786 82.7438 46.9898 83.0081 46.9011C83.2716 46.8123 83.556 46.9536 83.6451 47.219C83.6451 47.2221 83.8912 47.9504 84.2116 48.7563C84.5117 49.5511 84.9616 50.4694 85.1355 50.6169C85.3319 50.8146 85.3319 51.1372 85.1355 51.3349C85.0355 51.4331 84.907 51.4818 84.7784 51.4818C84.6489 51.4818 84.5204 51.4321 84.4229 51.3324Z" fill="#1B1918"/>
<path fill-rule="evenodd" clip-rule="evenodd" d="M88.4271 38.3934C88.1715 38.2813 88.053 37.9839 88.1638 37.7265C88.1661 37.7202 88.651 36.5799 89.2933 35.3699C89.9754 34.1535 90.6363 32.8971 91.5601 32.4733C91.8196 32.3744 92.1112 32.5047 92.2093 32.7661C92.3083 33.0256 92.1797 33.3184 91.921 33.4181C91.6542 33.455 90.758 34.6887 90.1802 35.8477C89.5628 37.0116 89.0899 38.1227 89.0876 38.1251L89.0899 38.1267C89.0066 38.3189 88.821 38.4335 88.6261 38.4335C88.5598 38.4335 88.4919 38.421 88.4271 38.3934Z" fill="#1B1918"/>
<path fill-rule="evenodd" clip-rule="evenodd" d="M84.1975 35.1871C84.196 35.1681 83.8381 33.7233 83.8365 32.3039C83.8482 31.4508 83.9302 30.5744 84.517 29.959C84.7135 29.7613 85.0324 29.7628 85.2288 29.9614C85.4237 30.1616 85.4213 30.4817 85.2249 30.6779C84.9951 30.8734 84.8298 31.545 84.84 32.304C84.8376 33.5573 85.1736 34.9431 85.1743 34.9479H85.1767C85.2412 35.2192 85.0761 35.4933 84.8069 35.5607C84.7666 35.57 84.7267 35.575 84.687 35.575C84.4603 35.575 84.2544 35.4208 84.1975 35.1871Z" fill="#1B1918"/>
<path fill-rule="evenodd" clip-rule="evenodd" d="M80.7688 36.6992C80.7633 36.6489 78.4069 32.5997 78.3672 30.3638C78.3672 30.0845 78.5925 29.8585 78.8715 29.8585C79.1482 29.8585 79.3734 30.0845 79.3734 30.3638C79.361 31.1493 79.9192 32.6757 80.4968 33.9228C81.0697 35.1792 81.6427 36.1985 81.6449 36.2V36.2024C81.7821 36.4449 81.6963 36.7541 81.454 36.8913C81.3753 36.9361 81.2902 36.958 81.206 36.958C81.0306 36.958 80.8616 36.8647 80.7688 36.6992Z" fill="#1B1918"/>
<path fill-rule="evenodd" clip-rule="evenodd" d="M86.5683 41.5466C86.5683 42.628 85.6857 43.5062 84.5977 43.5062C83.5086 43.5062 82.6254 42.628 82.6254 41.5466C82.6254 40.4638 83.5086 39.5865 84.5977 39.5865C85.6857 39.5865 86.5683 40.4638 86.5683 41.5466Z" fill="#1B1918"/>
<path fill-rule="evenodd" clip-rule="evenodd" d="M61.8817 30.7107C61.8817 31.7922 60.9994 32.6703 59.9112 32.6703C58.8221 32.6703 57.9382 31.7922 57.9382 30.7107C57.9382 29.6278 58.8221 28.7504 59.9112 28.7504C60.9994 28.7504 61.8817 29.6278 61.8817 30.7107Z" fill="#1B1918"/>
<path fill-rule="evenodd" clip-rule="evenodd" d="M159.49 147.191L150.102 143.816C149.927 143.754 149.764 143.65 149.635 143.518L126.165 119.893C125.673 119.397 125.673 118.596 126.165 118.101C126.655 117.605 127.452 117.605 127.943 118.101L151.211 141.526L160.335 144.806L160.337 144.808C160.989 145.042 161.332 145.767 161.097 146.426C160.912 146.942 160.428 147.265 159.912 147.265C159.773 147.265 159.629 147.242 159.49 147.191Z" fill="#F3C5DB"/>
<path fill-rule="evenodd" clip-rule="evenodd" d="M151.999 152.421L149.315 142.97C149.138 142.345 149.459 141.689 150.058 141.449L160.115 137.397L160.118 137.399C160.761 137.139 161.492 137.454 161.751 138.104C162.007 138.752 161.694 139.489 161.05 139.748L152.044 143.374L154.416 151.728C154.606 152.4 154.22 153.099 153.553 153.292C153.438 153.326 153.322 153.341 153.208 153.341C152.66 153.341 152.156 152.978 151.999 152.421Z" fill="#F3C5DB"/>
</svg>
