<svg width="179" height="228" viewBox="0 0 179 228" fill="none" xmlns="http://www.w3.org/2000/svg">
<g filter="url(#filter0_d_4_2099)">
<path fill-rule="evenodd" clip-rule="evenodd" d="M138.207 91.4642C138.207 91.4642 173.687 131.45 155.271 173.53C155.271 173.53 142.805 204.568 91.2406 204.568C39.6761 204.568 23.2431 156.221 23.2431 134.137C23.2431 134.137 23.342 109.328 40.8584 95.6186L138.207 91.4642Z" fill="#77C7C1"/>
<path fill-rule="evenodd" clip-rule="evenodd" d="M35.1429 7.89601L39.959 8.49271C39.959 8.49271 68.9802 10.9043 95.1484 18.8675C94.9517 11.6845 94.7219 -1.29334 102.856 3.12091C110.222 7.11787 105.633 17.4069 103.353 21.5962C107.364 23.0567 111.215 24.6668 114.782 26.4387C114.94 19.5631 116.103 5.89862 124.672 10.283C132.288 14.1795 126.036 25.8134 122.725 31.0053C125.41 32.8141 127.79 34.7562 129.772 36.8446C129.772 36.8446 173.97 87.5793 109.656 109.664C109.656 109.664 61.4916 123.99 37.6931 91.7578C37.6931 91.7578 22.1147 68.8321 36.4747 43.9298C31.5934 41.3491 25.8758 37.1027 21.8269 30.2786C21.8269 30.2786 16.161 10.8809 35.1429 7.89601Z" fill="#F3C5DB"/>
<path fill-rule="evenodd" clip-rule="evenodd" d="M168.183 183.71C171.879 183.642 174.556 180.631 174.658 180.58C175.114 180.1 175.114 179.32 174.659 178.842C174.203 178.36 173.464 178.36 173.007 178.839C173.006 178.837 172.886 178.969 172.623 179.201C172.362 179.433 171.977 179.747 171.513 180.058C170.586 180.684 169.348 181.26 168.183 181.25C166.934 181.219 165.646 180.738 164.27 178.474C165.231 178.064 166.046 177.508 166.707 176.848C168.164 175.396 168.851 173.502 168.851 171.729C168.85 170.276 168.393 168.862 167.433 167.846C166.804 167.168 165.947 166.813 165.118 166.82C162.518 166.896 160.365 169.621 160.349 173.355C160.348 174.412 160.523 175.554 160.91 176.755C160.675 176.773 160.432 176.783 160.18 176.787C157.853 176.794 156.593 176.426 156.07 176.11C155.561 175.765 155.683 175.731 155.646 175.623C155.641 175.531 155.695 175.376 155.712 175.349C156.038 174.776 155.867 174.031 155.327 173.675C154.78 173.317 154.06 173.493 153.718 174.069C153.665 174.173 153.323 174.719 153.311 175.623C153.273 176.491 153.815 177.654 154.94 178.262C156.051 178.9 157.642 179.24 160.18 179.248C160.79 179.248 161.371 179.206 161.92 179.125C161.985 179.246 162.051 179.369 162.12 179.49C163.756 182.463 166.025 183.711 168.103 183.711C168.13 183.711 168.157 183.711 168.183 183.71ZM165.118 169.278C165.373 169.287 165.555 169.351 165.78 169.581C166.218 170.039 166.517 170.816 166.515 171.729C166.476 173.375 165.619 175.339 163.221 176.262C162.837 175.179 162.684 174.204 162.684 173.355C162.684 171.984 163.085 170.933 163.6 170.246C164.109 169.561 164.713 169.278 165.101 169.278C165.107 169.278 165.112 169.278 165.118 169.278Z" fill="#F3C5DB"/>
<path fill-rule="evenodd" clip-rule="evenodd" d="M156.331 174.045C160.201 165.204 161.74 156.434 161.74 148.115C161.697 116.045 139.119 90.7278 139.06 90.6237C138.621 90.1274 137.882 90.1027 137.411 90.5659C136.94 91.0296 136.914 91.8073 137.355 92.3029C137.355 92.3048 137.683 92.6731 138.283 93.4095C138.883 94.1447 139.744 95.2373 140.78 96.6458C142.85 99.4643 145.614 103.553 148.379 108.61C153.909 118.727 159.41 132.702 159.405 148.115C159.405 156.118 157.932 164.511 154.196 173.051C154.195 173.051 154.162 173.136 154.067 173.345C153.971 173.554 153.822 173.867 153.61 174.272C153.19 175.081 152.526 176.253 151.567 177.665C149.651 180.488 146.561 184.276 141.881 188.075C132.518 195.664 116.804 203.331 91.2413 203.338C65.816 203.319 49.2353 191.487 38.8408 176.896C28.4591 162.315 24.4 144.879 24.4115 134.142C24.4157 134.138 24.4157 132.673 24.693 130.189C24.9681 127.704 25.5188 124.241 26.6025 120.366C28.7727 112.606 33.0737 103.241 41.5549 96.6066C42.0731 96.2005 42.1797 95.4298 41.7961 94.8841C41.4114 94.341 40.6797 94.2266 40.1629 94.6319C22.1087 108.842 22.1044 134.011 22.0772 134.137C22.0875 145.477 26.2449 163.257 36.971 178.37C47.6834 193.475 65.1007 205.816 91.2413 205.798C91.2793 205.798 91.3088 205.798 91.3468 205.798C143.311 205.795 156.296 174.279 156.331 174.045Z" fill="#009035"/>
<path fill-rule="evenodd" clip-rule="evenodd" d="M85.2165 114.066C99.1598 114.063 109.909 110.865 110.019 110.833C137.359 101.52 145.798 86.5537 145.749 72.4457C145.69 53.1654 130.679 36.1184 130.597 35.9736C119.422 24.2683 96.8738 17.2575 77.0246 12.9581C57.1857 8.68888 40.0808 7.26885 40.0953 7.27082L35.2798 6.67419L34.9704 6.67927C28.7962 7.63741 24.9065 10.3661 22.6796 13.7175C20.447 17.063 19.8698 20.8871 19.8684 24.0168C19.8714 27.7582 20.6924 30.5669 20.7111 30.6393L20.8379 30.9298C24.7479 37.485 30.0857 41.7278 34.8372 44.4247C30.681 52.0829 29.2207 59.5753 29.2238 66.2463C29.2381 81.4476 36.6809 92.3645 36.7725 92.513C49.705 110.009 69.5489 114.067 85.2068 114.067C85.2092 114.067 85.2134 114.066 85.2165 114.066ZM39.8679 9.7174C39.8793 9.72058 44.105 10.07 50.8196 10.9519C57.5367 11.8349 66.716 13.2499 76.5584 15.3674C96.2321 19.5721 118.589 26.7385 128.912 37.6756C128.912 37.6788 129.799 38.6921 131.165 40.5442C132.528 42.3973 134.353 45.0632 136.172 48.2969C139.821 54.7626 143.423 63.4926 143.415 72.4457C143.365 85.4057 136.128 99.2044 109.339 108.48C109.337 108.48 108.706 108.669 107.511 108.962C106.315 109.254 104.573 109.645 102.404 110.037C98.0663 110.822 92.018 111.606 85.2165 111.606C69.8849 111.605 50.8794 107.627 38.6429 91.0422C38.6429 91.0403 38.547 90.9019 38.3576 90.5943C38.1671 90.2887 37.8927 89.8294 37.5609 89.229C36.898 88.0296 36.0078 86.2703 35.1164 84.0595C33.3359 79.6357 31.5579 73.4146 31.5597 66.2462C31.5621 59.9151 32.9312 52.8484 36.9252 45.5345C41.9788 48.0446 45.9288 48.778 45.9867 48.7981C46.6213 48.9183 47.2293 48.4723 47.3426 47.8053C47.4553 47.135 47.0338 46.4964 46.3987 46.377C46.3969 46.377 46.1871 46.3375 45.7576 46.2334C45.3281 46.1286 44.6965 45.9633 43.9108 45.7182C42.436 45.2601 40.4155 44.5269 38.1507 43.4182C38.3172 43.1475 38.4874 42.8763 38.6611 42.6051C39.0218 42.0421 38.8805 41.2773 38.3461 40.8985C37.8112 40.5193 37.0863 40.6661 36.7255 41.2303C36.4941 41.5918 36.269 41.9532 36.05 42.3146C31.5633 39.7874 26.541 35.8306 22.9077 29.7759C22.8469 29.5414 22.7147 29.0186 22.5796 28.255C22.3921 27.1896 22.2039 25.6952 22.2039 24.0167C22.2027 21.1965 22.7376 17.8954 24.5875 15.1342C26.4257 12.4029 29.5512 10.063 35.1646 9.13608L39.8679 9.7174Z" fill="#EE9AC1"/>
<path fill-rule="evenodd" clip-rule="evenodd" d="M40.0025 25.3884C40.7665 23.0779 41.1327 20.7557 41.1327 18.5581C41.1394 13.2163 38.9421 8.42286 34.7365 6.84719C33.8661 6.52756 32.9651 6.37445 32.0639 6.37445C26.8824 6.42979 21.924 11.1591 19.6654 17.9164C18.8999 20.2272 18.5344 22.5511 18.5344 24.7468C18.5284 30.0887 20.7267 34.8802 24.9306 36.4578C25.8016 36.7773 26.7027 36.9291 27.6032 36.9291C32.7871 36.8733 37.7431 32.1446 40.0025 25.3884ZM32.0639 8.83507C32.7148 8.83507 33.3493 8.94364 33.9675 9.16988C36.8739 10.2081 38.7937 13.8395 38.798 18.5581C38.798 20.4667 38.479 22.5226 37.7973 24.5798C35.8076 30.6529 31.3149 34.5258 27.6032 34.4698C26.9511 34.4698 26.3155 34.3619 25.7003 34.1357C22.7944 33.0969 20.8758 29.4641 20.8692 24.7468C20.8692 22.8389 21.1882 20.7844 21.8691 18.7272C23.8469 12.6946 28.2866 8.83379 31.9826 8.83455C32.0098 8.83455 32.0374 8.83456 32.0639 8.83507Z" fill="#EE9AC1"/>
<path fill-rule="evenodd" clip-rule="evenodd" d="M121.906 34.3217C121.928 34.2913 123.783 31.8116 125.652 28.3833C127.515 24.9425 129.44 20.6001 129.461 16.5639C129.507 13.6318 128.243 10.6934 125.182 9.17635C123.92 8.53073 122.734 8.20298 121.617 8.20298C119.455 8.18639 117.754 9.49783 116.683 11.2227C115.581 12.9565 114.921 15.1446 114.472 17.4253C113.582 21.9793 113.592 26.9577 113.589 29.0861C113.589 29.7647 114.111 30.3149 114.756 30.3149C115.402 30.3149 115.925 29.7647 115.925 29.0861C115.925 27.5079 115.925 24.3969 116.278 21.1508C116.619 17.9094 117.364 14.5321 118.619 12.5955C119.477 11.2944 120.349 10.6788 121.617 10.6618C122.293 10.6618 123.133 10.8631 124.163 11.3891C126.403 12.5802 127.079 14.229 127.125 16.5639C127.179 21.3688 123.2 28.229 121.175 31.2151C120.505 32.2215 120.072 32.7996 120.072 32.8008H120.07C119.673 33.3352 119.761 34.109 120.266 34.5276C120.481 34.7055 120.735 34.7907 120.988 34.7907C121.333 34.7907 121.676 34.6305 121.906 34.3217Z" fill="#EE9AC1"/>
<path fill-rule="evenodd" clip-rule="evenodd" d="M103.253 24.1103C103.28 24.0098 107.986 16.9869 108.039 10.2868C108.08 7.12919 106.801 3.83515 103.391 2.02682C102.141 1.34969 100.994 0.997085 99.9107 0.995814C98.5488 0.980503 97.3432 1.61838 96.529 2.58096C95.702 3.54087 95.1802 4.76711 94.8063 6.12086C94.07 8.82875 93.924 12.1298 93.9192 15.1446C93.9192 17.7645 94.0416 20.1712 94.0397 21.6248C94.0397 22.3027 94.5627 22.8529 95.2074 22.8529C95.8521 22.8529 96.3739 22.3027 96.3739 21.6248C96.3739 20.0512 96.2544 17.694 96.2544 15.1446C96.2021 10.7842 96.7479 5.82874 98.2527 4.24036C98.7346 3.70605 99.178 3.46921 99.9107 3.45568C100.495 3.45186 101.297 3.6565 102.323 4.21317C104.906 5.65536 105.662 7.69526 105.703 10.2868C105.73 14.3898 103.26 19.4184 102.005 21.5886C101.59 22.3155 101.328 22.7177 101.328 22.7177V22.7196C100.964 23.2787 101.099 24.0449 101.63 24.4287C101.831 24.5747 102.061 24.644 102.288 24.644C102.66 24.644 103.027 24.4571 103.253 24.1103Z" fill="#EE9AC1"/>
<path fill-rule="evenodd" clip-rule="evenodd" d="M65.8559 81.3104C67.24 79.3847 67.6948 77.5366 67.7208 77.4439V77.4458C67.8842 76.7877 67.5103 76.1154 66.8855 75.9452C66.263 75.7718 65.6242 76.1656 65.4614 76.8231C65.4596 76.8231 65.4488 76.8822 65.3975 77.0423C65.3481 77.1999 65.2666 77.4369 65.1501 77.7229C64.9186 78.2965 64.5434 79.0666 63.9969 79.8219C62.8831 81.3339 61.2207 82.7552 58.3757 82.7693C55.9168 82.7788 53.1381 81.447 51.0308 79.3144C48.9131 77.1834 47.5025 74.3168 47.5078 71.4046C47.5078 70.5583 47.6249 69.7018 47.8752 68.841C48.0639 68.1917 47.7189 67.5035 47.1026 67.3035C46.4861 67.1034 45.8335 67.4681 45.6435 68.118C45.3221 69.2139 45.1738 70.3193 45.1738 71.4046C45.1804 75.16 46.9379 78.5926 49.4162 81.0919C51.9023 83.5862 55.1417 85.2178 58.3757 85.2279C58.3878 85.2279 58.4 85.2279 58.4119 85.2279C62.064 85.2279 64.497 83.2247 65.8559 81.3104Z" fill="#C06D93"/>
<path fill-rule="evenodd" clip-rule="evenodd" d="M147.571 59.09C147.812 58.4609 147.524 57.7438 146.925 57.4902L99.8945 37.4946C99.2956 37.2405 98.6158 37.5448 98.3739 38.175C98.1327 38.8046 98.4216 39.5201 99.0198 39.7747L146.051 59.7704C146.194 59.8314 146.342 59.86 146.488 59.86C146.95 59.86 147.387 59.5695 147.571 59.09Z" fill="#1B1918"/>
<path fill-rule="evenodd" clip-rule="evenodd" d="M84.702 31.8522C84.9005 31.2055 84.5652 30.5111 83.9511 30.302C83.9379 30.297 73.4554 26.7157 69.8444 25.2511C69.2424 25.0079 68.5664 25.323 68.3359 25.9584C68.1037 26.5917 68.4042 27.302 69.0054 27.5466C72.7599 29.0644 83.2178 32.6362 83.2304 32.6414V32.6433C83.3493 32.6833 83.4705 32.7024 83.5893 32.7024C84.0826 32.7024 84.5416 32.372 84.702 31.8522Z" fill="#1B1918"/>
<path fill-rule="evenodd" clip-rule="evenodd" d="M89.8245 46.4304C95.8944 46.4183 100.898 41.527 100.908 35.3529C100.898 29.1763 95.8944 24.2849 89.8245 24.2734C86.7864 24.2696 84.1538 25.5148 82.3226 27.5383C80.4868 29.5594 79.445 32.3364 79.4462 35.3529C79.445 38.3675 80.4868 41.144 82.3226 43.1662C84.1503 45.1872 86.7761 46.4304 89.8064 46.4304C89.8124 46.4304 89.819 46.4304 89.8245 46.4304ZM98.5736 35.3529C98.5638 40.0549 94.708 43.966 89.8245 43.971C84.9873 43.9426 81.8203 40.1954 81.7822 35.3529C81.8203 30.5079 84.9873 26.7607 89.8245 26.7341C94.708 26.7391 98.5638 30.6502 98.5736 35.3529Z" fill="#1B1918"/>
<path fill-rule="evenodd" clip-rule="evenodd" d="M86.7051 32.3655C85.2751 34.1643 84.4686 37.3535 86.2799 38.9508C88.0911 40.5486 92.2256 40.3331 93.6551 38.5346C95.0845 36.736 94.7756 32.4462 92.965 30.8491C91.1538 29.2519 88.1345 30.567 86.7051 32.3655Z" fill="white"/>
<path fill-rule="evenodd" clip-rule="evenodd" d="M94.5501 39.323C95.415 38.2093 95.7117 36.7614 95.7231 35.3039C95.7009 33.3248 95.164 31.2335 93.7154 29.9061C92.9089 29.1908 91.9156 28.8948 90.9765 28.8998C88.9367 28.9317 87.0302 30.0783 85.8106 31.5765L86.7045 32.3655L87.6013 33.1547C88.339 32.1883 89.8764 31.3287 90.9765 31.3591C91.4891 31.3636 91.8782 31.4978 92.2159 31.7919C92.857 32.3046 93.4095 33.8466 93.3872 35.3039C93.3981 36.3675 93.1061 37.3364 92.76 37.7449C92.3855 38.2824 91.0574 38.8211 89.71 38.7957C88.596 38.8077 87.517 38.4602 87.0314 38.0085C86.5996 37.6191 86.4138 37.1191 86.403 36.3872C86.3884 35.3528 86.9198 33.9921 87.6013 33.1547L86.7045 32.3655L85.8106 31.5765C84.8053 32.8606 84.0826 34.5905 84.0682 36.3872C84.0573 37.6242 84.4777 38.9704 85.532 39.8942C86.6869 40.8891 88.2076 41.2449 89.71 41.2563C91.5145 41.2322 93.3649 40.7486 94.5501 39.323Z" fill="#EE9AC1"/>
<path fill-rule="evenodd" clip-rule="evenodd" d="M59.2437 19.7539C57.8138 21.5524 57.0073 25.3396 58.8185 26.9374C60.6291 28.5347 64.2625 27.7213 65.6925 25.9228C67.1219 24.1242 67.3142 19.8346 65.5037 18.2373C63.6925 16.6401 60.6732 17.9551 59.2437 19.7539Z" fill="white"/>
<path fill-rule="evenodd" clip-rule="evenodd" d="M66.5874 26.7112C67.559 25.457 67.9668 23.7316 67.9818 22.0003C67.9668 20.288 67.5651 18.4882 66.2539 17.2945C65.4475 16.579 64.454 16.2837 63.5156 16.2887C61.4758 16.3186 59.5694 17.4672 58.3486 18.9627L59.2441 19.7539L60.1387 20.5428C60.8781 19.5759 62.4161 18.7163 63.5156 18.748C64.0271 18.7519 64.4161 18.886 64.7557 19.1801C65.2551 19.581 65.6609 20.7214 65.6466 22.0003C65.6609 23.2666 65.2574 24.5874 64.7973 25.1331C64.2407 25.8835 62.7027 26.5868 61.3908 26.5619C60.6097 26.5632 59.9566 26.3434 59.5694 25.9959C59.1816 25.6585 58.9445 25.041 58.9414 24.1561C58.9239 22.9069 59.4994 21.3205 60.1387 20.5428L59.2441 19.7539L58.3486 18.9627C57.3033 20.3078 56.6236 22.2284 56.6062 24.1561C56.6049 25.4756 56.9729 26.9024 58.0692 27.8796C59.0289 28.7196 60.2291 29.0182 61.3908 29.0213C63.3577 28.9965 65.3498 28.2169 66.5874 26.7112Z" fill="#EE9AC1"/>
<path fill-rule="evenodd" clip-rule="evenodd" d="M69.6296 30.7824C71.3588 28.4972 72.2955 25.5257 72.2986 22.5335C72.2889 16.3581 67.2847 11.4661 61.2148 11.4558C58.179 11.4514 55.5434 12.6959 53.7123 14.7194C51.8775 16.7405 50.836 19.5187 50.8377 22.5335C50.8866 28.6923 55.9741 34.5798 62.1959 34.6459C62.2021 34.6459 62.2086 34.6459 62.2153 34.6459C65.3257 34.6459 67.9119 33.0595 69.6296 30.7824ZM69.9627 22.5335C69.9669 24.98 69.1731 27.4501 67.8064 29.2462C66.4283 31.0442 64.555 32.1789 62.1959 32.1853C59.833 32.1904 57.5682 31.001 55.8877 29.1623C54.208 27.3275 53.1664 24.874 53.1731 22.5335C53.2111 17.6903 56.3776 13.9431 61.2148 13.9146C66.0978 13.9197 69.9553 17.8312 69.9627 22.5335Z" fill="#1B1918"/>
<path fill-rule="evenodd" clip-rule="evenodd" d="M89.9245 66.9274C87.0199 71.172 86.4216 77.653 89.7496 80.1802C93.0772 82.7069 99.0718 82.6358 101.976 78.3925C104.881 74.1479 104.537 66.3467 101.209 63.8194C97.8811 61.2927 92.8287 62.6841 89.9245 66.9274Z" fill="#F0A1C5"/>
<path fill-rule="evenodd" clip-rule="evenodd" d="M30.8144 21.7233C30.8144 22.9971 31.7251 24.0293 32.8475 24.0293C33.9704 24.0293 34.8806 22.9971 34.8806 21.7233C34.8806 20.4493 33.9704 19.417 32.8475 19.417C31.7251 19.417 30.8144 20.4493 30.8144 21.7233Z" fill="#C26F98"/>
<path fill-rule="evenodd" clip-rule="evenodd" d="M24.4028 20.2405C24.4028 21.5142 25.313 22.5468 26.4355 22.5468C27.5586 22.5468 28.4693 21.5142 28.4693 20.2405C28.4693 18.9672 27.5586 17.9349 26.4355 17.9349C25.313 17.9349 24.4028 18.9672 24.4028 20.2405Z" fill="#C26F98"/>
<path fill-rule="evenodd" clip-rule="evenodd" d="M89.286 35.3966C89.286 36.3059 89.95 37.0441 90.7689 37.0441C91.588 37.0441 92.2515 36.3059 92.2515 35.3966C92.2515 34.487 91.588 33.7486 90.7689 33.7486C89.95 33.7486 89.286 34.487 89.286 35.3966Z" fill="#1B1918"/>
<path fill-rule="evenodd" clip-rule="evenodd" d="M62.1236 23.2798C62.1236 24.189 62.7883 24.9271 63.6068 24.9271C64.4259 24.9271 65.0892 24.189 65.0892 23.2798C65.0892 22.37 64.4259 21.6318 63.6068 21.6318C62.7883 21.6318 62.1236 22.37 62.1236 23.2798Z" fill="#1B1918"/>
<path fill-rule="evenodd" clip-rule="evenodd" d="M73.9578 69.9922C74.9783 68.9064 75.0247 67.4165 75.0663 65.8067C75.0645 63.5321 74.6615 60.9921 74.4522 59.7741C74.3551 59.2164 73.8498 58.8479 73.3203 58.9502C72.7925 59.0512 72.4427 59.5855 72.5379 60.1413C72.7412 61.3002 73.123 63.7805 73.1199 65.8067C73.1628 67.2355 72.819 68.4229 72.6489 68.4762C72.2514 68.8567 72.2232 69.5049 72.5837 69.9229C72.7762 70.1458 73.0392 70.2589 73.3039 70.2589C73.5374 70.2589 73.7713 70.1707 73.9578 69.9922Z" fill="#AA642B"/>
<path fill-rule="evenodd" clip-rule="evenodd" d="M63.2515 63.8003C63.7871 63.7443 64.1785 63.243 64.1243 62.6814C64.0591 61.9952 63.9523 61.3543 63.9559 60.8529C63.9559 60.4153 64.0253 60.1262 64.1562 59.9254C64.4553 59.4559 64.3378 58.818 63.8919 58.5029C63.4462 58.1859 62.8409 58.3116 62.541 58.7811C62.1098 59.4571 62.0096 60.2037 62.0096 60.8529C62.0126 61.6141 62.1381 62.3104 62.1875 62.8809C62.2389 63.4107 62.6621 63.8053 63.1551 63.8053C63.1875 63.8053 63.2195 63.8035 63.2515 63.8003Z" fill="#AA642B"/>
<path fill-rule="evenodd" clip-rule="evenodd" d="M54.4993 63.0638C54.7992 62.7144 54.8276 62.2055 54.5972 61.8262C54.6315 61.4755 55.0283 60.3891 55.5675 59.4907C56.1175 58.4864 56.9235 57.515 57.1483 57.4074C57.6092 57.1166 57.7593 56.487 57.4819 56.0015C57.2058 55.5161 56.6074 55.3598 56.1466 55.6508C55.2998 56.2233 54.5935 57.2594 53.8999 58.4336C53.2443 59.63 52.6869 60.7741 52.6508 61.9031C52.6526 62.2595 52.7227 62.7449 53.1242 63.1394C53.3101 63.3154 53.5435 63.4024 53.7751 63.4024C54.0417 63.4024 54.307 63.288 54.4993 63.0638Z" fill="#AA642B"/>
<path fill-rule="evenodd" clip-rule="evenodd" d="M42.8691 58.8916C43 58.0346 43.2847 57.6578 43.7684 57.2943C44.2558 56.9424 45.012 56.6997 45.8854 56.518C47.6158 56.1007 49.816 56.0924 51.272 54.3587H51.2702C51.614 53.9227 51.5549 53.2772 51.1405 52.9163C50.7267 52.5562 50.1132 52.6164 49.7713 53.053C49.3576 53.6306 48.2779 53.99 46.9052 54.236C45.5519 54.5098 43.994 54.6852 42.681 55.5956C41.8034 56.1985 41.1103 57.2436 40.942 58.6038C40.8674 59.1642 41.2377 59.682 41.7703 59.7632C41.8154 59.7697 41.86 59.7728 41.9046 59.7728C42.383 59.7728 42.8003 59.4038 42.8691 58.8916Z" fill="#AA642B"/>
<path fill-rule="evenodd" clip-rule="evenodd" d="M29.7105 76.6675C31.1997 75.2412 34.6447 74.2323 36.2178 71.8003L36.2154 71.8028C36.506 71.3251 36.3729 70.6909 35.9198 70.3873C35.4669 70.0817 34.8649 70.2221 34.5767 70.7012C33.795 72.161 30.4844 73.3676 28.4464 75.1109C28.038 75.4787 27.9905 76.1243 28.3391 76.5551C28.5319 76.7919 28.8058 76.9133 29.0797 76.9133C29.304 76.9133 29.5278 76.8326 29.7105 76.6675Z" fill="#AA642B"/>
<path fill-rule="evenodd" clip-rule="evenodd" d="M33.6411 90.0736C35.0476 88.3326 37.7069 86.799 39.2552 84.5474H39.2534C39.564 84.085 39.4602 83.4471 39.0219 83.1199C38.5833 82.7926 37.9766 82.9026 37.6666 83.3639C36.5593 85.0697 33.9446 86.6345 32.175 88.7272C31.8216 89.1535 31.865 89.8021 32.2696 90.1739C32.4536 90.3428 32.681 90.4255 32.9072 90.4255C33.1785 90.4255 33.4488 90.3066 33.6411 90.0736Z" fill="#AA642B"/>
<path fill-rule="evenodd" clip-rule="evenodd" d="M40.4041 98.6726C40.8998 98.2609 42.2165 97.1598 43.5507 95.942C44.895 94.7062 46.2219 93.4336 46.8883 92.3929C47.0718 92.0747 47.2624 91.7952 47.2846 91.2438C47.2846 91.1764 47.2798 91.1256 47.2739 91.0836C47.205 90.5232 46.7158 90.1268 46.1833 90.1992C45.7189 90.264 45.3739 90.6636 45.339 91.1364C45.3245 91.1668 45.2997 91.2106 45.266 91.2634C45.1623 91.4305 44.9735 91.6775 44.7335 91.954C44.2508 92.5112 43.5591 93.1999 42.8299 93.8816C41.3691 95.2488 39.7521 96.602 39.1955 97.069C38.775 97.4204 38.705 98.0633 39.0374 98.5079C39.2292 98.7628 39.5133 98.8955 39.7997 98.8955C40.0115 98.8955 40.2249 98.8226 40.4041 98.6726Z" fill="#AA642B"/>
<path fill-rule="evenodd" clip-rule="evenodd" d="M51.8372 107.235C52.6205 104.425 53.7713 101.27 54.5241 98.341C54.6627 97.7946 54.3564 97.2317 53.8384 97.0831C53.3196 96.9356 52.7852 97.2583 52.6447 97.806C51.9331 100.589 50.7895 103.735 49.9704 106.657C49.8191 107.199 50.114 107.769 50.6297 107.929C50.7213 107.957 50.8131 107.971 50.9047 107.971C51.3245 107.971 51.7124 107.681 51.8372 107.235Z" fill="#AA642B"/>
<path fill-rule="evenodd" clip-rule="evenodd" d="M64.3866 106.115C64.9036 105.955 65.1985 105.386 65.0482 104.843C65.0007 104.677 64.9735 104.46 64.9735 104.204C64.9547 102.924 65.7394 100.823 66.3355 99.5163L66.3342 99.5176C66.5635 99.0056 66.3548 98.3956 65.8687 98.1536C65.382 97.9134 64.8029 98.1338 64.575 98.6459C63.9544 100.065 63.0467 102.224 63.0279 104.204C63.0279 104.615 63.0708 105.021 63.1811 105.419C63.3047 105.866 63.6926 106.157 64.113 106.157C64.2035 106.157 64.2957 106.143 64.3866 106.115Z" fill="#AA642B"/>
<path fill-rule="evenodd" clip-rule="evenodd" d="M173.163 139.555C173.547 139.012 173.441 138.241 172.923 137.835L144.548 115.558C144.03 115.154 143.299 115.264 142.915 115.81C142.528 116.354 142.636 117.126 143.152 117.53L171.529 139.807C171.738 139.971 171.983 140.051 172.226 140.051C172.582 140.051 172.934 139.879 173.163 139.555Z" fill="#F3C5DB"/>
<path fill-rule="evenodd" clip-rule="evenodd" d="M166.432 141.1L166.555 134.379L173.638 132.101L173.637 132.103C174.254 131.904 174.602 131.216 174.415 130.568C174.227 129.917 173.573 129.551 172.957 129.749L165.062 132.288C164.579 132.441 164.245 132.908 164.234 133.441L164.098 141.055C164.087 141.734 164.6 142.295 165.245 142.307C165.253 142.307 165.26 142.307 165.268 142.307C165.902 142.307 166.421 141.771 166.432 141.1Z" fill="#F3C5DB"/>
<path fill-rule="evenodd" clip-rule="evenodd" d="M132.401 217.877C133.045 217.841 133.54 217.262 133.505 216.583L132.166 190.077C132.132 189.399 131.583 188.88 130.939 188.916C130.295 188.952 129.8 189.531 129.835 190.209L131.174 216.715C131.207 217.371 131.723 217.879 132.339 217.879C132.359 217.879 132.381 217.878 132.401 217.877Z" fill="#F3C5DB"/>
<path fill-rule="evenodd" clip-rule="evenodd" d="M117.592 219.157C115.583 219.157 113.954 217.973 113.954 216.513C113.954 215.053 115.583 213.87 117.592 213.87L131.616 215.01C133.192 215.01 134.47 215.938 134.47 217.084C134.47 218.228 133.192 219.157 131.616 219.157H117.592Z" fill="#1B1918"/>
<path fill-rule="evenodd" clip-rule="evenodd" d="M57.2967 217.877C57.9402 217.841 58.4348 217.262 58.4005 216.583L57.0614 190.077C57.0278 189.399 56.4778 188.88 55.834 188.916C55.19 188.952 54.6959 189.531 54.7317 190.209L56.0688 216.715C56.102 217.371 56.6176 217.879 57.2334 217.879C57.2545 217.879 57.275 217.878 57.2967 217.877Z" fill="#F3C5DB"/>
<path fill-rule="evenodd" clip-rule="evenodd" d="M42.4873 219.157C40.4778 219.157 38.8498 217.973 38.8498 216.513C38.8498 215.053 40.4778 213.87 42.4873 213.87L56.5114 215.01C58.0881 215.01 59.3656 215.938 59.3656 217.084C59.3656 218.228 58.0881 219.157 56.5114 219.157H42.4873Z" fill="#1B1918"/>
<path fill-rule="evenodd" clip-rule="evenodd" d="M8.48606 136.67L27.3274 119.293C27.8124 118.845 27.8613 118.069 27.4373 117.559C27.0114 117.047 26.2737 116.995 25.7896 117.443L6.94874 134.818C6.46201 135.266 6.41375 136.043 6.83896 136.553C7.06996 136.831 7.39258 136.973 7.71707 136.973C7.99029 136.973 8.26417 136.873 8.48606 136.67Z" fill="#F3C5DB"/>
<path fill-rule="evenodd" clip-rule="evenodd" d="M16.0942 139.216C16.6983 138.974 17.0006 138.263 16.7702 137.628C16.7702 137.624 16.2968 136.316 15.8246 134.748C15.3486 133.208 14.8938 131.315 14.9114 130.609C14.9114 130.502 14.9229 130.439 14.9229 130.439C15.0694 129.82 14.7413 129.185 14.1677 128.978C14.1568 128.975 12.7907 128.483 11.1472 127.987C9.48012 127.494 7.63266 126.983 6.29858 126.968C6.03682 126.969 5.77506 126.983 5.46921 127.074C4.851 127.264 4.49521 127.946 4.67561 128.599C4.85763 129.25 5.50479 129.623 6.12366 129.435C6.12728 129.438 6.13821 129.435 6.17307 129.43C6.19906 129.427 6.23941 129.425 6.29858 129.427C7.04587 129.41 8.94448 129.872 10.5042 130.351C11.3173 130.597 12.0632 130.842 12.596 131.023C12.6936 132.348 13.1562 133.99 13.6001 135.494C14.0954 137.133 14.5839 138.489 14.5881 138.502V138.503C14.7654 138.994 15.2099 139.296 15.6804 139.296C15.8179 139.296 15.9584 139.27 16.0942 139.216Z" fill="#F3C5DB"/>
</g>
<defs>
<filter id="filter0_d_4_2099" x="0.628693" y="0.995544" width="178.371" height="226.161" filterUnits="userSpaceOnUse" color-interpolation-filters="sRGB">
<feFlood flood-opacity="0" result="BackgroundImageFix"/>
<feColorMatrix in="SourceAlpha" type="matrix" values="0 0 0 0 0 0 0 0 0 0 0 0 0 0 0 0 0 0 127 0" result="hardAlpha"/>
<feOffset dy="4"/>
<feGaussianBlur stdDeviation="2"/>
<feComposite in2="hardAlpha" operator="out"/>
<feColorMatrix type="matrix" values="0 0 0 0 0 0 0 0 0 0 0 0 0 0 0 0 0 0 0.25 0"/>
<feBlend mode="normal" in2="BackgroundImageFix" result="effect1_dropShadow_4_2099"/>
<feBlend mode="normal" in="SourceGraphic" in2="effect1_dropShadow_4_2099" result="shape"/>
</filter>
</defs>
</svg>
