<svg width="171" height="220" viewBox="0 0 171 220" fill="none" xmlns="http://www.w3.org/2000/svg">
<path fill-rule="evenodd" clip-rule="evenodd" d="M134.207 91.4642C134.207 91.4642 169.687 131.45 151.271 173.53C151.271 173.53 138.805 204.568 87.2406 204.568C35.6761 204.568 19.243 156.221 19.243 134.137C19.243 134.137 19.342 109.328 36.8584 95.6186L134.207 91.4642Z" fill="#77C7C1"/>
<path fill-rule="evenodd" clip-rule="evenodd" d="M31.1429 7.89601L35.959 8.49271C35.959 8.49271 64.9801 10.9043 91.1484 18.8675C90.9516 11.6845 90.7218 -1.29334 98.8565 3.12091C106.222 7.11787 101.633 17.4069 99.3528 21.5962C103.364 23.0567 107.215 24.6668 110.782 26.4387C110.94 19.5631 112.103 5.89862 120.672 10.283C128.288 14.1795 122.036 25.8134 118.725 31.0053C121.41 32.8141 123.79 34.7562 125.772 36.8446C125.772 36.8446 169.97 87.5793 105.656 109.664C105.656 109.664 57.4916 123.99 33.693 91.7578C33.693 91.7578 18.1146 68.8321 32.4747 43.9298C27.5934 41.3491 21.8757 37.1027 17.8269 30.2786C17.8269 30.2786 12.161 10.8809 31.1429 7.89601Z" fill="#F3C5DB"/>
<path fill-rule="evenodd" clip-rule="evenodd" d="M164.183 183.71C167.879 183.642 170.556 180.631 170.658 180.58C171.114 180.1 171.114 179.32 170.659 178.842C170.203 178.36 169.464 178.36 169.007 178.839C169.006 178.837 168.886 178.969 168.623 179.201C168.362 179.433 167.977 179.747 167.513 180.058C166.586 180.684 165.348 181.26 164.183 181.25C162.934 181.219 161.646 180.738 160.27 178.474C161.231 178.064 162.046 177.508 162.707 176.848C164.164 175.396 164.851 173.502 164.851 171.729C164.85 170.276 164.393 168.862 163.433 167.846C162.804 167.168 161.947 166.813 161.118 166.82C158.518 166.896 156.365 169.621 156.349 173.355C156.348 174.412 156.523 175.554 156.91 176.755C156.675 176.773 156.432 176.783 156.18 176.787C153.853 176.794 152.593 176.426 152.07 176.11C151.561 175.765 151.683 175.731 151.646 175.623C151.641 175.531 151.695 175.376 151.712 175.349C152.038 174.776 151.867 174.031 151.327 173.675C150.78 173.317 150.06 173.493 149.718 174.069C149.665 174.173 149.323 174.719 149.311 175.623C149.273 176.491 149.815 177.654 150.94 178.262C152.051 178.9 153.642 179.24 156.18 179.248C156.79 179.248 157.371 179.206 157.92 179.125C157.985 179.246 158.051 179.369 158.12 179.49C159.756 182.463 162.025 183.711 164.103 183.711C164.13 183.711 164.157 183.711 164.183 183.71ZM161.118 169.278C161.373 169.287 161.555 169.351 161.78 169.581C162.218 170.039 162.517 170.816 162.515 171.729C162.476 173.375 161.619 175.339 159.221 176.262C158.837 175.179 158.684 174.204 158.684 173.355C158.684 171.984 159.085 170.933 159.6 170.246C160.109 169.561 160.713 169.278 161.101 169.278C161.107 169.278 161.112 169.278 161.118 169.278Z" fill="#F3C5DB"/>
<path fill-rule="evenodd" clip-rule="evenodd" d="M152.331 174.045C156.201 165.204 157.74 156.434 157.74 148.115C157.697 116.045 135.119 90.7278 135.06 90.6237C134.621 90.1274 133.882 90.1027 133.411 90.5659C132.94 91.0296 132.914 91.8073 133.355 92.3029C133.355 92.3048 133.683 92.6731 134.283 93.4095C134.883 94.1447 135.744 95.2373 136.78 96.6458C138.85 99.4643 141.614 103.553 144.379 108.61C149.909 118.727 155.41 132.702 155.405 148.115C155.405 156.118 153.932 164.511 150.196 173.051C150.195 173.051 150.162 173.136 150.067 173.345C149.971 173.554 149.822 173.867 149.61 174.272C149.19 175.081 148.526 176.253 147.567 177.665C145.651 180.488 142.561 184.276 137.881 188.075C128.518 195.664 112.804 203.331 87.2413 203.338C61.816 203.319 45.2353 191.487 34.8408 176.896C24.4591 162.315 20.4 144.879 20.4115 134.142C20.4157 134.138 20.4157 132.673 20.693 130.189C20.9681 127.704 21.5188 124.241 22.6025 120.366C24.7727 112.606 29.0737 103.241 37.5549 96.6066C38.0731 96.2005 38.1797 95.4298 37.7961 94.8841C37.4115 94.341 36.6797 94.2266 36.1628 94.6319C18.1087 108.842 18.1044 134.011 18.0772 134.137C18.0874 145.477 22.2449 163.257 32.971 178.37C43.6834 193.475 61.1007 205.816 87.2413 205.798C87.2793 205.798 87.3088 205.798 87.3468 205.798C139.311 205.795 152.296 174.279 152.331 174.045Z" fill="#009035"/>
<path fill-rule="evenodd" clip-rule="evenodd" d="M81.2165 114.066C95.1598 114.063 105.909 110.865 106.019 110.833C133.359 101.52 141.798 86.5537 141.749 72.4457C141.69 53.1654 126.679 36.1184 126.597 35.9736C115.422 24.2683 92.8738 17.2575 73.0246 12.9581C53.1857 8.68888 36.0808 7.26885 36.0952 7.27082L31.2798 6.67419L30.9703 6.67927C24.7962 7.63741 20.9065 10.3661 18.6796 13.7175C16.447 17.063 15.8698 20.8871 15.8684 24.0168C15.8714 27.7582 16.6923 30.5669 16.7111 30.6393L16.8378 30.9298C20.7478 37.485 26.0856 41.7278 30.8371 44.4247C26.6809 52.0829 25.2207 59.5753 25.2238 66.2463C25.2381 81.4476 32.6809 92.3645 32.7725 92.513C45.705 110.009 65.5489 114.067 81.2068 114.067C81.2092 114.067 81.2134 114.066 81.2165 114.066ZM35.8679 9.7174C35.8793 9.72058 40.1049 10.07 46.8195 10.9519C53.5367 11.8349 62.716 13.2499 72.5584 15.3674C92.2321 19.5721 114.589 26.7385 124.912 37.6756C124.912 37.6788 125.799 38.6921 127.165 40.5442C128.528 42.3973 130.353 45.0632 132.172 48.2969C135.821 54.7626 139.423 63.4926 139.415 72.4457C139.365 85.4057 132.128 99.2044 105.339 108.48C105.337 108.48 104.706 108.669 103.511 108.962C102.315 109.254 100.573 109.645 98.4041 110.037C94.0663 110.822 88.0179 111.606 81.2165 111.606C65.8848 111.605 46.8794 107.627 34.6429 91.0422C34.6429 91.0403 34.547 90.9019 34.3575 90.5943C34.1671 90.2887 33.8927 89.8294 33.5608 89.229C32.898 88.0296 32.0078 86.2703 31.1163 84.0595C29.3359 79.6357 27.5578 73.4146 27.5597 66.2462C27.5621 59.9151 28.9312 52.8484 32.9252 45.5345C37.9788 48.0446 41.9288 48.778 41.9867 48.7981C42.6213 48.9183 43.2292 48.4723 43.3426 47.8053C43.4552 47.135 43.0338 46.4964 42.3987 46.377C42.3969 46.377 42.187 46.3375 41.7575 46.2334C41.328 46.1286 40.6965 45.9633 39.9107 45.7182C38.436 45.2601 36.4155 44.5269 34.1507 43.4182C34.3172 43.1475 34.4873 42.8763 34.661 42.6051C35.0218 42.0421 34.8805 41.2773 34.3461 40.8985C33.8112 40.5193 33.0863 40.6661 32.7255 41.2303C32.494 41.5918 32.269 41.9532 32.05 42.3146C27.5633 39.7874 22.541 35.8306 18.9077 29.7759C18.8469 29.5414 18.7147 29.0186 18.5796 28.255C18.3921 27.1896 18.2039 25.6952 18.2039 24.0167C18.2027 21.1965 18.7376 17.8954 20.5875 15.1342C22.4257 12.4029 25.5511 10.063 31.1645 9.13608L35.8679 9.7174Z" fill="#EE9AC1"/>
<path fill-rule="evenodd" clip-rule="evenodd" d="M36.0025 25.3884C36.7665 23.0779 37.1327 20.7557 37.1327 18.5581C37.1394 13.2163 34.9421 8.42286 30.7365 6.84719C29.8661 6.52756 28.9651 6.37445 28.0639 6.37445C22.8824 6.42979 17.924 11.1591 15.6654 17.9164C14.8999 20.2271 14.5344 22.5511 14.5344 24.7468C14.5284 30.0887 16.7267 34.8802 20.9306 36.4578C21.8016 36.7773 22.7027 36.9291 23.6032 36.9291C28.7871 36.8733 33.7431 32.1446 36.0025 25.3884ZM28.0639 8.83507C28.7148 8.83507 29.3493 8.94364 29.9675 9.16988C32.8739 10.2081 34.7937 13.8395 34.798 18.5581C34.798 20.4667 34.479 22.5226 33.7973 24.5798C31.8076 30.6529 27.3149 34.5258 23.6032 34.4698C22.9511 34.4698 22.3155 34.3619 21.7003 34.1357C18.7944 33.0969 16.8758 29.4641 16.8692 24.7468C16.8692 22.8389 17.1882 20.7844 17.8691 18.7272C19.8469 12.6946 24.2866 8.83379 27.9826 8.83455C28.0098 8.83455 28.0374 8.83456 28.0639 8.83507Z" fill="#EE9AC1"/>
<path fill-rule="evenodd" clip-rule="evenodd" d="M117.906 34.3217C117.928 34.2913 119.783 31.8116 121.652 28.3833C123.515 24.9425 125.44 20.6001 125.461 16.5639C125.507 13.6318 124.243 10.6934 121.182 9.17635C119.92 8.53073 118.734 8.20298 117.617 8.20298C115.455 8.18639 113.754 9.49783 112.683 11.2227C111.581 12.9565 110.921 15.1446 110.472 17.4253C109.582 21.9793 109.592 26.9577 109.589 29.0861C109.589 29.7647 110.111 30.3148 110.756 30.3148C111.402 30.3148 111.925 29.7647 111.925 29.0861C111.925 27.5079 111.925 24.3969 112.278 21.1508C112.619 17.9094 113.364 14.5321 114.619 12.5956C115.477 11.2944 116.349 10.6788 117.617 10.6618C118.293 10.6618 119.133 10.8631 120.163 11.3891C122.403 12.5802 123.079 14.229 123.125 16.5639C123.179 21.3688 119.2 28.229 117.175 31.2151C116.505 32.2215 116.072 32.7996 116.072 32.8008H116.07C115.673 33.3352 115.761 34.109 116.266 34.5276C116.481 34.7055 116.735 34.7907 116.988 34.7907C117.333 34.7907 117.676 34.6306 117.906 34.3217Z" fill="#EE9AC1"/>
<path fill-rule="evenodd" clip-rule="evenodd" d="M99.2534 24.1103C99.2805 24.0098 103.986 16.9869 104.039 10.2868C104.08 7.12919 102.801 3.83515 99.3915 2.02682C98.1412 1.34969 96.994 0.997085 95.9107 0.995814C94.5489 0.980503 93.3432 1.61838 92.529 2.58096C91.7021 3.54087 91.1803 4.76711 90.8063 6.12086C90.07 8.82875 89.924 12.1298 89.9192 15.1446C89.9192 17.7645 90.0416 20.1712 90.0398 21.6248C90.0398 22.3027 90.5627 22.8529 91.2074 22.8529C91.8522 22.8529 92.3739 22.3027 92.3739 21.6248C92.3739 20.0512 92.2545 17.694 92.2545 15.1446C92.2021 10.7842 92.7479 5.82874 94.2527 4.24036C94.7347 3.70605 95.178 3.46921 95.9107 3.45568C96.4946 3.45186 97.2968 3.6565 98.3233 4.21317C100.906 5.65536 101.662 7.69526 101.703 10.2868C101.73 14.3898 99.26 19.4184 98.0048 21.5886C97.5899 22.3155 97.3281 22.7177 97.3281 22.7177V22.7196C96.9637 23.2787 97.099 24.0449 97.6297 24.4287C97.8311 24.5747 98.0615 24.644 98.2882 24.644C98.6604 24.644 99.0271 24.4571 99.2534 24.1103Z" fill="#EE9AC1"/>
<path fill-rule="evenodd" clip-rule="evenodd" d="M61.8559 81.3104C63.24 79.3847 63.6948 77.5366 63.7208 77.4439V77.4458C63.8842 76.7877 63.5103 76.1154 62.8855 75.9452C62.263 75.7718 61.6242 76.1656 61.4614 76.8231C61.4596 76.8231 61.4488 76.8822 61.3975 77.0423C61.3481 77.1999 61.2666 77.4369 61.1501 77.7229C60.9186 78.2965 60.5434 79.0666 59.9969 79.8219C58.8831 81.3339 57.2207 82.7552 54.3757 82.7693C51.9168 82.7788 49.1381 81.447 47.0308 79.3144C44.9131 77.1834 43.5025 74.3168 43.5078 71.4046C43.5078 70.5583 43.6249 69.7018 43.8752 68.841C44.0639 68.1917 43.7189 67.5035 43.1026 67.3035C42.4861 67.1034 41.8335 67.4681 41.6435 68.118C41.3221 69.2139 41.1738 70.3193 41.1738 71.4046C41.1804 75.16 42.9379 78.5926 45.4162 81.0919C47.9023 83.5862 51.1417 85.2178 54.3757 85.2279C54.3878 85.2279 54.4 85.2279 54.4119 85.2279C58.064 85.2279 60.497 83.2247 61.8559 81.3104Z" fill="#C06D93"/>
<path fill-rule="evenodd" clip-rule="evenodd" d="M143.571 59.09C143.812 58.4609 143.524 57.7438 142.925 57.4902L95.8945 37.4946C95.2956 37.2405 94.6158 37.5448 94.3739 38.175C94.1326 38.8046 94.4216 39.5201 95.0198 39.7747L142.051 59.7704C142.194 59.8314 142.342 59.86 142.488 59.86C142.95 59.86 143.387 59.5695 143.571 59.09Z" fill="#1B1918"/>
<path fill-rule="evenodd" clip-rule="evenodd" d="M80.702 31.8522C80.9005 31.2055 80.5652 30.5111 79.9511 30.302C79.9379 30.297 69.4554 26.7157 65.8444 25.2511C65.2424 25.0079 64.5664 25.323 64.3359 25.9584C64.1037 26.5917 64.4042 27.302 65.0054 27.5466C68.7599 29.0644 79.2178 32.6362 79.2304 32.6414V32.6433C79.3493 32.6833 79.4705 32.7024 79.5893 32.7024C80.0826 32.7024 80.5416 32.372 80.702 31.8522Z" fill="#1B1918"/>
<path fill-rule="evenodd" clip-rule="evenodd" d="M85.8245 46.4304C91.8943 46.4183 96.8981 41.527 96.9076 35.3529C96.8981 29.1763 91.8943 24.2849 85.8245 24.2734C82.7864 24.2696 80.1538 25.5148 78.3226 27.5383C76.4867 29.5594 75.445 32.3364 75.4462 35.3529C75.445 38.3675 76.4867 41.144 78.3226 43.1662C80.1502 45.1872 82.7761 46.4304 85.8063 46.4304C85.8124 46.4304 85.819 46.4304 85.8245 46.4304ZM94.5736 35.3529C94.5638 40.0549 90.708 43.966 85.8245 43.971C80.9873 43.9426 77.8203 40.1954 77.7821 35.3529C77.8203 30.5079 80.9873 26.7607 85.8245 26.7341C90.708 26.7391 94.5638 30.6502 94.5736 35.3529Z" fill="#1B1918"/>
<path fill-rule="evenodd" clip-rule="evenodd" d="M82.7051 32.3655C81.2751 34.1643 80.4687 37.3535 82.2799 38.9508C84.0911 40.5486 88.2256 40.3331 89.6551 38.5346C91.0845 36.736 90.7756 32.4462 88.965 30.8491C87.1538 29.2519 84.1345 30.567 82.7051 32.3655Z" fill="white"/>
<path fill-rule="evenodd" clip-rule="evenodd" d="M90.5501 39.323C91.4151 38.2093 91.7117 36.7614 91.7231 35.3039C91.7009 33.3248 91.164 31.2335 89.7154 29.9061C88.909 29.1908 87.9157 28.8948 86.9765 28.8998C84.9367 28.9317 83.0303 30.0783 81.8106 31.5765L82.7046 32.3655L83.6013 33.1547C84.339 32.1883 85.8764 31.3287 86.9765 31.3591C87.4891 31.3636 87.8782 31.4978 88.2159 31.7919C88.857 32.3046 89.4096 33.8466 89.3872 35.3039C89.3981 36.3675 89.1061 37.3364 88.7601 37.7449C88.3855 38.2824 87.0574 38.8211 85.71 38.7957C84.596 38.8077 83.517 38.4602 83.0315 38.0085C82.5996 37.6191 82.4138 37.1191 82.403 36.3872C82.3885 35.3528 82.9198 33.9921 83.6013 33.1547L82.7046 32.3655L81.8106 31.5765C80.8053 32.8606 80.0826 34.5905 80.0683 36.3872C80.0573 37.6242 80.4777 38.9704 81.5321 39.8942C82.687 40.8891 84.2076 41.2449 85.71 41.2563C87.5146 41.2322 89.3649 40.7486 90.5501 39.323Z" fill="#EE9AC1"/>
<path fill-rule="evenodd" clip-rule="evenodd" d="M55.2437 19.7539C53.8137 21.5524 53.0073 25.3396 54.8185 26.9374C56.6291 28.5347 60.2625 27.7213 61.6924 25.9228C63.1219 24.1242 63.3142 19.8346 61.5037 18.2373C59.6924 16.6401 56.6731 17.9551 55.2437 19.7539Z" fill="white"/>
<path fill-rule="evenodd" clip-rule="evenodd" d="M62.5874 26.7112C63.559 25.457 63.9668 23.7316 63.9818 22.0003C63.9668 20.288 63.5652 18.4882 62.2539 17.2945C61.4476 16.579 60.4541 16.2837 59.5157 16.2887C57.4758 16.3186 55.5694 17.4672 54.3486 18.9627L55.2442 19.7539L56.1387 20.5428C56.8781 19.5759 58.4161 18.7163 59.5157 18.748C60.0272 18.7519 60.4161 18.886 60.7557 19.1801C61.2551 19.581 61.6609 20.7214 61.6466 22.0003C61.6609 23.2666 61.2574 24.5874 60.7974 25.1331C60.2407 25.8835 58.7027 26.5868 57.3909 26.5619C56.6097 26.5632 55.9566 26.3434 55.5694 25.9959C55.1816 25.6585 54.9445 25.041 54.9414 24.1561C54.924 22.9069 55.4994 21.3205 56.1387 20.5428L55.2442 19.7539L54.3486 18.9627C53.3033 20.3078 52.6236 22.2284 52.6062 24.1561C52.605 25.4756 52.9729 26.9024 54.0693 27.8796C55.0289 28.7196 56.2292 29.0182 57.3909 29.0213C59.3577 28.9965 61.3498 28.2169 62.5874 26.7112Z" fill="#EE9AC1"/>
<path fill-rule="evenodd" clip-rule="evenodd" d="M65.6296 30.7824C67.3588 28.4972 68.2955 25.5257 68.2986 22.5335C68.2889 16.3581 63.2847 11.4661 57.2148 11.4558C54.179 11.4514 51.5434 12.6959 49.7123 14.7194C47.8775 16.7405 46.836 19.5187 46.8377 22.5335C46.8866 28.6923 51.9741 34.5798 58.1959 34.6459C58.2021 34.6459 58.2086 34.6459 58.2153 34.6459C61.3257 34.6459 63.9119 33.0595 65.6296 30.7824ZM65.9627 22.5335C65.9669 24.98 65.1731 27.4501 63.8064 29.2462C62.4283 31.0442 60.555 32.1789 58.1959 32.1853C55.833 32.1904 53.5682 31.001 51.8877 29.1623C50.208 27.3275 49.1664 24.874 49.1731 22.5335C49.2111 17.6903 52.3776 13.9431 57.2148 13.9146C62.0978 13.9197 65.9553 17.8312 65.9627 22.5335Z" fill="#1B1918"/>
<path fill-rule="evenodd" clip-rule="evenodd" d="M85.9245 66.9274C83.0199 71.172 82.4216 77.653 85.7496 80.1802C89.0772 82.7069 95.0718 82.6358 97.9758 78.3925C100.881 74.1479 100.537 66.3467 97.2087 63.8194C93.8811 61.2927 88.8287 62.6841 85.9245 66.9274Z" fill="#F0A1C5"/>
<path fill-rule="evenodd" clip-rule="evenodd" d="M26.8143 21.7233C26.8143 22.9971 27.7251 24.0293 28.8474 24.0293C29.9704 24.0293 30.8806 22.9971 30.8806 21.7233C30.8806 20.4493 29.9704 19.417 28.8474 19.417C27.7251 19.417 26.8143 20.4493 26.8143 21.7233Z" fill="#C26F98"/>
<path fill-rule="evenodd" clip-rule="evenodd" d="M20.4028 20.2405C20.4028 21.5142 21.313 22.5468 22.4355 22.5468C23.5586 22.5468 24.4693 21.5142 24.4693 20.2405C24.4693 18.9672 23.5586 17.9349 22.4355 17.9349C21.313 17.9349 20.4028 18.9672 20.4028 20.2405Z" fill="#C26F98"/>
<path fill-rule="evenodd" clip-rule="evenodd" d="M85.286 35.3966C85.286 36.3059 85.95 37.0441 86.7689 37.0441C87.588 37.0441 88.2515 36.3059 88.2515 35.3966C88.2515 34.487 87.588 33.7486 86.7689 33.7486C85.95 33.7486 85.286 34.487 85.286 35.3966Z" fill="#1B1918"/>
<path fill-rule="evenodd" clip-rule="evenodd" d="M58.1236 23.2798C58.1236 24.189 58.7883 24.9271 59.6068 24.9271C60.4259 24.9271 61.0892 24.189 61.0892 23.2798C61.0892 22.37 60.4259 21.6318 59.6068 21.6318C58.7883 21.6318 58.1236 22.37 58.1236 23.2798Z" fill="#1B1918"/>
<path fill-rule="evenodd" clip-rule="evenodd" d="M69.9578 69.9922C70.9783 68.9064 71.0247 67.4165 71.0663 65.8067C71.0645 63.5321 70.6615 60.9921 70.4522 59.7741C70.3551 59.2164 69.8498 58.8479 69.3203 58.9502C68.7925 59.0512 68.4427 59.5855 68.5379 60.1413C68.7412 61.3002 69.123 63.7805 69.1199 65.8067C69.1628 67.2355 68.819 68.4229 68.6489 68.4762C68.2514 68.8567 68.2232 69.5049 68.5837 69.9229C68.7762 70.1458 69.0392 70.2589 69.3039 70.2589C69.5374 70.2589 69.7713 70.1707 69.9578 69.9922Z" fill="#AA642B"/>
<path fill-rule="evenodd" clip-rule="evenodd" d="M59.2515 63.8003C59.7871 63.7443 60.1785 63.243 60.1243 62.6814C60.0591 61.9952 59.9523 61.3543 59.9559 60.8529C59.9559 60.4153 60.0253 60.1262 60.1562 59.9254C60.4553 59.4559 60.3378 58.818 59.8919 58.5029C59.4462 58.1859 58.8409 58.3116 58.541 58.7811C58.1098 59.4571 58.0096 60.2037 58.0096 60.8529C58.0126 61.6141 58.1381 62.3104 58.1875 62.8809C58.2389 63.4107 58.6621 63.8053 59.1551 63.8053C59.1875 63.8053 59.2195 63.8035 59.2515 63.8003Z" fill="#AA642B"/>
<path fill-rule="evenodd" clip-rule="evenodd" d="M50.4993 63.0638C50.7992 62.7144 50.8276 62.2055 50.5972 61.8262C50.6315 61.4755 51.0283 60.3891 51.5676 59.4907C52.1176 58.4864 52.9235 57.515 53.1483 57.4074C53.6092 57.1166 53.7594 56.487 53.4819 56.0015C53.2058 55.5161 52.6074 55.3598 52.1466 55.6508C51.2998 56.2233 50.5936 57.2594 49.8999 58.4336C49.2443 59.63 48.6869 60.7741 48.6508 61.9031C48.6527 62.2595 48.7227 62.7449 49.1243 63.1394C49.3101 63.3154 49.5435 63.4024 49.7752 63.4024C50.0417 63.4024 50.307 63.288 50.4993 63.0638Z" fill="#AA642B"/>
<path fill-rule="evenodd" clip-rule="evenodd" d="M38.8691 58.8916C39.0001 58.0346 39.2847 57.6578 39.7684 57.2943C40.2559 56.9424 41.012 56.6997 41.8855 56.518C43.6159 56.1007 45.816 56.0924 47.272 54.3587H47.2702C47.614 53.9227 47.5549 53.2772 47.1405 52.9163C46.7267 52.5562 46.1133 52.6164 45.7713 53.053C45.3576 53.6306 44.2779 53.99 42.9052 54.236C41.5519 54.5098 39.994 54.6852 38.681 55.5956C37.8034 56.1985 37.1103 57.2436 36.942 58.6038C36.8674 59.1642 37.2377 59.682 37.7703 59.7632C37.8154 59.7697 37.86 59.7728 37.9046 59.7728C38.383 59.7728 38.8004 59.4038 38.8691 58.8916Z" fill="#AA642B"/>
<path fill-rule="evenodd" clip-rule="evenodd" d="M25.7105 76.6675C27.1997 75.2412 30.6447 74.2323 32.2178 71.8003L32.2153 71.8028C32.506 71.3251 32.3728 70.6909 31.9198 70.3873C31.4669 70.0817 30.8649 70.2221 30.5766 70.7012C29.795 72.161 26.4844 73.3676 24.4464 75.1109C24.038 75.4787 23.9904 76.1243 24.3391 76.5551C24.5319 76.7919 24.8058 76.9133 25.0797 76.9133C25.304 76.9133 25.5278 76.8326 25.7105 76.6675Z" fill="#AA642B"/>
<path fill-rule="evenodd" clip-rule="evenodd" d="M29.6411 90.0736C31.0476 88.3326 33.7069 86.799 35.2552 84.5474H35.2534C35.564 84.085 35.4602 83.4471 35.0219 83.1199C34.5833 82.7926 33.9766 82.9026 33.6666 83.3639C32.5593 85.0697 29.9446 86.6345 28.175 88.7272C27.8216 89.1535 27.865 89.8021 28.2696 90.1739C28.4536 90.3428 28.681 90.4255 28.9072 90.4255C29.1785 90.4255 29.4488 90.3066 29.6411 90.0736Z" fill="#AA642B"/>
<path fill-rule="evenodd" clip-rule="evenodd" d="M36.4041 98.6726C36.8999 98.2609 38.2165 97.1598 39.5507 95.942C40.8951 94.7062 42.2219 93.4336 42.8883 92.3929C43.0718 92.0747 43.2625 91.7952 43.2847 91.2438C43.2847 91.1764 43.2798 91.1256 43.2739 91.0836C43.205 90.5232 42.7159 90.1268 42.1833 90.1992C41.7189 90.264 41.3739 90.6636 41.3391 91.1364C41.3245 91.1668 41.2998 91.2106 41.266 91.2634C41.1623 91.4305 40.9735 91.6775 40.7335 91.954C40.2508 92.5112 39.5591 93.1999 38.83 93.8816C37.3692 95.2488 35.7522 96.602 35.1955 97.069C34.7751 97.4204 34.705 98.0633 35.0374 98.5079C35.2292 98.7628 35.5133 98.8955 35.7997 98.8955C36.0116 98.8955 36.2249 98.8226 36.4041 98.6726Z" fill="#AA642B"/>
<path fill-rule="evenodd" clip-rule="evenodd" d="M47.8372 107.235C48.6205 104.425 49.7713 101.27 50.5241 98.341C50.6627 97.7946 50.3564 97.2317 49.8384 97.0831C49.3196 96.9356 48.7852 97.2583 48.6447 97.806C47.9331 100.589 46.7895 103.735 45.9704 106.657C45.8191 107.199 46.114 107.769 46.6297 107.929C46.7213 107.957 46.8131 107.971 46.9047 107.971C47.3245 107.971 47.7124 107.681 47.8372 107.235Z" fill="#AA642B"/>
<path fill-rule="evenodd" clip-rule="evenodd" d="M60.3866 106.115C60.9036 105.955 61.1985 105.386 61.0483 104.843C61.0007 104.677 60.9735 104.46 60.9735 104.204C60.9547 102.924 61.7395 100.823 62.3355 99.5163L62.3343 99.5176C62.5635 99.0056 62.3548 98.3956 61.8687 98.1536C61.382 97.9134 60.8029 98.1338 60.575 98.6459C59.9544 100.065 59.0468 102.224 59.0279 104.204C59.0279 104.615 59.0708 105.021 59.1811 105.419C59.3047 105.866 59.6927 106.157 60.113 106.157C60.2035 106.157 60.2957 106.143 60.3866 106.115Z" fill="#AA642B"/>
<path fill-rule="evenodd" clip-rule="evenodd" d="M169.163 139.555C169.547 139.012 169.441 138.241 168.923 137.835L140.548 115.558C140.03 115.154 139.299 115.264 138.915 115.81C138.528 116.354 138.636 117.126 139.152 117.53L167.529 139.807C167.738 139.971 167.983 140.051 168.226 140.051C168.582 140.051 168.934 139.879 169.163 139.555Z" fill="#F3C5DB"/>
<path fill-rule="evenodd" clip-rule="evenodd" d="M162.432 141.1L162.555 134.379L169.638 132.101L169.637 132.103C170.254 131.904 170.602 131.216 170.415 130.568C170.227 129.917 169.573 129.551 168.957 129.749L161.062 132.288C160.579 132.441 160.245 132.908 160.234 133.441L160.098 141.055C160.087 141.734 160.6 142.295 161.245 142.307C161.253 142.307 161.26 142.307 161.268 142.307C161.902 142.307 162.421 141.771 162.432 141.1Z" fill="#F3C5DB"/>
<path fill-rule="evenodd" clip-rule="evenodd" d="M128.401 217.877C129.045 217.841 129.54 217.262 129.505 216.583L128.166 190.077C128.132 189.399 127.583 188.88 126.939 188.916C126.295 188.952 125.8 189.531 125.835 190.209L127.174 216.715C127.207 217.371 127.723 217.879 128.339 217.879C128.359 217.879 128.381 217.878 128.401 217.877Z" fill="#F3C5DB"/>
<path fill-rule="evenodd" clip-rule="evenodd" d="M113.592 219.157C111.583 219.157 109.954 217.973 109.954 216.513C109.954 215.053 111.583 213.87 113.592 213.87L127.616 215.01C129.192 215.01 130.47 215.938 130.47 217.084C130.47 218.228 129.192 219.157 127.616 219.157H113.592Z" fill="#1B1918"/>
<path fill-rule="evenodd" clip-rule="evenodd" d="M53.2967 217.877C53.9402 217.841 54.4349 217.262 54.4005 216.583L53.0614 190.077C53.0278 189.399 52.4778 188.88 51.8341 188.916C51.19 188.952 50.6959 189.531 50.7317 190.209L52.0688 216.715C52.102 217.371 52.6177 217.879 53.2335 217.879C53.2545 217.879 53.275 217.878 53.2967 217.877Z" fill="#F3C5DB"/>
<path fill-rule="evenodd" clip-rule="evenodd" d="M38.4873 219.157C36.4778 219.157 34.8498 217.973 34.8498 216.513C34.8498 215.053 36.4778 213.87 38.4873 213.87L52.5114 215.01C54.0881 215.01 55.3656 215.938 55.3656 217.084C55.3656 218.228 54.0881 219.157 52.5114 219.157H38.4873Z" fill="#1B1918"/>
<path fill-rule="evenodd" clip-rule="evenodd" d="M4.48605 136.67L23.3274 119.293C23.8124 118.845 23.8613 118.069 23.4373 117.559C23.0114 117.047 22.2737 116.995 21.7895 117.443L2.94872 134.818C2.46199 135.266 2.41374 136.043 2.83895 136.553C3.06995 136.831 3.39257 136.973 3.71705 136.973C3.99027 136.973 4.26415 136.873 4.48605 136.67Z" fill="#F3C5DB"/>
<path fill-rule="evenodd" clip-rule="evenodd" d="M12.0942 139.216C12.6983 138.974 13.0006 138.263 12.7702 137.628C12.7702 137.624 12.2968 136.316 11.8246 134.748C11.3486 133.208 10.8938 131.315 10.9114 130.609C10.9114 130.502 10.9229 130.439 10.9229 130.439C11.0694 129.82 10.7413 129.185 10.1677 128.978C10.1568 128.975 8.79075 128.483 7.14721 127.987C5.48014 127.494 3.63267 126.983 2.29859 126.968C2.03683 126.969 1.77508 126.983 1.46923 127.074C0.851013 127.264 0.495226 127.946 0.675624 128.599C0.85765 129.25 1.5048 129.623 2.12368 129.435C2.1273 129.438 2.13822 129.435 2.17308 129.43C2.19908 129.427 2.23943 129.425 2.29859 129.427C3.04588 129.41 4.94449 129.872 6.5042 130.351C7.31735 130.597 8.06325 130.842 8.596 131.023C8.69365 132.348 9.15625 133.99 9.6001 135.494C10.0954 137.133 10.5839 138.489 10.5881 138.502V138.503C10.7654 138.994 11.2099 139.296 11.6804 139.296C11.8179 139.296 11.9584 139.27 12.0942 139.216Z" fill="#F3C5DB"/>
</svg>
