<svg width="174" height="245" viewBox="0 0 174 245" fill="none" xmlns="http://www.w3.org/2000/svg">
<path d="M150.591 186.287C149.609 184.558 149.061 182.714 149.061 180.977C149.061 180.48 149.106 179.994 149.188 179.522C149.558 177.507 150.718 175.763 152.542 174.494C156.036 172.06 159.158 173.456 160.91 175.575C162.186 177.112 162.977 179.27 162.977 181.457C162.977 183.318 162.408 185.197 161.078 186.746C161.078 186.746 160.932 186.895 160.856 186.975C163.05 187.135 165.474 186.324 166.609 183.48C167.046 182.392 167.866 181.698 168.867 181.571C169.837 181.453 170.832 181.903 171.402 182.719C171.977 183.543 172.041 184.626 171.58 185.684C170.185 188.883 167.646 191.181 164.438 192.156C161.153 193.153 157.586 192.594 154.607 190.636C152.174 191.274 149.639 191.246 147.319 190.662C147.068 188.982 146.81 187.302 146.539 185.619C147.825 186.092 149.215 186.321 150.591 186.287ZM154.592 183.051C154.904 183.624 155.384 184.153 155.898 184.663C156.957 183.988 157.63 183.225 157.759 182.36C157.769 182.295 157.776 182.227 157.776 182.148C157.776 181.538 157.482 180.555 156.966 179.833C156.673 179.425 156.362 179.179 156.095 179.145C155.59 179.077 155.01 179.428 154.622 180.038C154.333 180.492 154.187 181.007 154.187 181.533C154.187 182.044 154.323 182.563 154.592 183.051Z" fill="#F4BFD9"/>
<path d="M32.7308 148.592L27.1274 150.995L26.5878 151.251C26.5878 151.251 26.3994 151.341 26.2717 151.399C26.2532 151.408 26.2364 151.417 26.2195 151.425C26.2195 151.425 15.3641 156.665 15.3507 156.676C15.3036 156.694 15.2633 156.697 15.2162 156.718C15.1893 156.764 15.1624 156.813 15.1305 156.859L14.7051 157.643L13.7989 160.552C13.5064 161.627 13.2072 162.742 12.7617 163.804C12.2926 164.918 11.2637 165.384 10.1407 164.99C9.19416 164.66 8.3267 163.719 8.3267 162.526C8.3267 162.341 8.34349 162.155 8.38888 161.965C8.57717 161.104 8.84113 160.19 9.18073 159.167L5.34255 162.489L4.33049 163.391C3.08809 164.493 1.68096 164.108 0.905932 163.278C0.146035 162.466 -0.18853 161.023 0.875662 159.763C2.91494 157.34 5.46532 155.503 8.3267 153.614C7.78704 153.436 7.25069 153.28 6.72616 153.162L4.24645 152.84L1.99197 152.566C0.65711 152.318 0.0737019 150.984 0.0955573 149.854C0.120775 148.53 0.889103 147.536 2.01214 147.374C5.16773 146.913 9.61448 148.588 12.6221 150.453C12.8945 150.62 13.15 150.789 13.3853 150.954C16.8301 149.031 20.4312 147.263 24.0743 145.709C24.0777 145.709 24.0828 145.709 24.0878 145.707C24.0912 145.704 24.0962 145.7 24.1046 145.697C29.6828 143.32 34.9012 141.65 39.6506 140.712C38.6788 142.705 37.7794 144.741 36.9388 146.813C35.5317 147.432 34.1212 148.019 32.7308 148.592Z" fill="#F4BFD9"/>
<path d="M59.5373 235.505C61.1663 236.419 60.5796 238.86 59.3792 239.816C59.0749 240.059 58.7319 240.214 58.3722 240.21C53.4228 240.207 48.502 239.498 43.3693 238.899C41.6057 238.695 39.4521 238.5 37.3389 238.096C34.8322 237.617 32.3861 236.84 30.7184 235.374C28.7968 233.692 29.2961 230.411 31.6312 229.442C35.419 227.881 41.0072 229.827 44.7949 230.875C47.9018 231.739 50.9414 232.671 53.9574 233.633C55.6857 234.185 57.4089 234.747 59.1253 235.32C59.2767 235.371 59.4146 235.433 59.5373 235.505Z" fill="#231F20"/>
<path d="M61.8237 218.291C61.817 218.322 61.8187 218.35 61.8153 218.382C61.1462 224.118 60.3342 229.855 59.5508 235.406L59.5373 235.504C59.4146 235.432 59.2767 235.371 59.1254 235.32C57.4089 234.747 55.6857 234.184 53.9575 233.632C54.5257 229.813 54.9645 225.868 55.3831 222.029C55.3831 222.029 55.8034 218.285 55.8908 217.514C55.8959 217.482 55.8942 217.456 55.8975 217.428C56.0875 215.798 56.2892 214.146 56.5095 212.481C58.4865 212.49 60.4603 212.499 62.4357 212.499C62.2609 214.341 62.0557 216.264 61.8237 218.291Z" fill="#F4BFD9"/>
<path d="M122.162 233.868C124.327 234.202 124.275 237.665 122.856 238.573C122.774 238.63 122.688 238.675 122.597 238.709C117.942 240.466 113.083 241.555 108.063 242.815C105.333 243.5 101.693 244.573 98.4602 244.56C97.2312 244.559 96.0578 244.406 95.0205 244.005C92.6668 243.107 92.0666 239.842 93.9479 238.104C96.9992 235.283 102.888 235.123 106.79 234.764C109.993 234.469 113.157 234.261 116.304 234.096C118.11 234.001 119.914 233.917 121.713 233.843C121.874 233.836 122.02 233.847 122.162 233.868Z" fill="#231F20"/>
<path d="M118.7 216.858C118.71 216.891 118.722 216.921 118.727 216.958C119.959 222.553 121.059 228.203 122.121 233.671L122.162 233.868C122.02 233.847 121.874 233.836 121.713 233.843C119.914 233.917 118.11 234.002 116.304 234.096C115.593 230.3 114.722 226.431 113.87 222.673C113.87 222.673 113.036 218.988 112.873 218.245C112.868 218.219 112.858 218.196 112.853 218.168C112.424 216.225 112.004 214.237 111.614 212.225C113.609 212.172 115.607 212.123 117.602 212.068C117.967 213.599 118.332 215.188 118.7 216.858Z" fill="#F4BFD9"/>
<path d="M146.836 208.848C106.946 209.664 66.8103 211.542 26.9362 209.193C30.1991 184.482 33.5004 158.012 45.3396 136.034C47.0287 132.904 49.0147 130.015 51.2243 127.334C53.4374 129.184 55.7885 130.857 58.2513 132.336C61.2435 134.131 64.3858 135.654 67.5893 136.9C68.2094 137.143 68.8312 137.371 69.4565 137.594C74.1569 139.256 79.0809 140.412 84.0783 140.998C90.7822 141.789 97.6101 141.555 104.192 140.162C109.17 139.099 114.003 137.375 118.534 134.922C120.873 133.655 123.02 132.203 125.023 130.621C126.235 132.365 127.4 134.157 128.471 136.034C140.614 157.392 143.648 184.5 146.836 208.848Z" fill="#F1635D"/>
<path d="M52.5621 128.891C50.4354 131.471 48.5239 134.252 46.8982 137.265C35.5031 158.418 32.3256 183.895 29.1852 207.679C67.5633 209.94 106.194 208.133 144.587 207.347C141.519 183.912 138.599 157.822 126.911 137.265C125.88 135.458 124.759 133.733 123.592 132.055C124.803 131.1 125.968 130.105 127.05 129.04C127.103 128.991 127.153 128.935 127.207 128.882C127.314 129.035 127.434 129.172 127.545 129.325C128.471 130.64 129.345 131.998 130.161 133.392C131.534 135.739 132.775 138.152 133.94 140.608C133.858 140.592 133.774 140.573 133.693 140.559C132.514 140.344 131.564 141.192 131.27 142.1C130.968 143.043 131.338 143.96 132.21 144.433C133.627 145.199 135.087 145.894 136.563 146.553C141.522 158.885 144.4 172.255 146.539 185.619C146.809 187.301 147.068 188.982 147.319 190.662C148.198 196.605 148.97 202.52 149.745 208.317C150.049 210.611 147.817 211.996 146.271 211.523C145.999 211.666 145.681 211.755 145.303 211.745C136.072 211.616 126.839 211.822 117.602 212.068C115.607 212.123 113.609 212.172 111.614 212.225C102.276 212.474 92.9392 212.696 83.5985 212.578C76.5425 212.49 69.49 212.509 62.4357 212.499C60.4603 212.499 58.4866 212.49 56.5095 212.481C46.8124 212.429 37.1137 212.244 27.4199 211.551C25.88 211.924 23.7717 210.553 24.0693 208.317C26.7374 188.312 29.17 166.017 36.9388 146.813C37.7794 144.741 38.6788 142.705 39.6506 140.712C40.8711 138.202 42.1959 135.753 43.6535 133.392C45.3196 130.684 47.1604 128.138 49.1324 125.729C50.0638 126.676 51.0272 127.586 52.0292 128.453C52.204 128.601 52.3856 128.741 52.5621 128.891Z" fill="#EE3424"/>
<path d="M18.8458 46.7766C13.4929 41.0603 15.4632 32.1397 19.6124 26.2846C25.3486 18.1848 33.1779 16.2443 42.3102 17.0563C42.4228 17.2216 42.559 17.3744 42.7439 17.508C49.9175 22.7532 44.3309 36.8523 40.592 42.5211C35.6426 50.0268 26.0564 54.4897 18.8458 46.7766ZM25.9791 27.7189C21.0667 27.0914 21.0112 36.8189 26.5675 35.3037C30.1602 34.3246 29.5684 28.1759 25.9791 27.7189ZM36.3856 30.526C31.4732 29.8968 31.4177 39.626 36.974 38.1108C40.5617 37.1317 39.9733 30.9813 36.3856 30.526Z" fill="#F4BFD9"/>
<path d="M109.023 107.223C104.25 105.463 101.182 100.996 99.5549 96.1591C96.539 87.1628 98.916 77.8105 106.799 72.6422C112.745 68.7462 121.816 67.1091 127.951 71.4952C130.918 73.6135 132.633 76.9119 133.367 80.5903C134.634 86.9804 132.932 94.5374 129.639 99.0904C125.074 105.401 116.591 110.007 109.023 107.223Z" fill="#F5A2C6"/>
<path d="M123.608 128.335C120.718 131.301 116.755 133.23 112.865 135.219C109.602 136.887 104.217 138.754 100.678 139.624C94.4153 141.167 89.2102 140.486 82.7729 139.751C78.2993 139.247 75.2512 137.615 71.0482 136.13C70.4178 135.905 66.0932 134.656 65.4694 134.41C62.7039 133.325 61.6739 132.812 58.9957 131.24C56.8741 129.992 55.2019 127.573 53.2635 126.021C51.0444 124.236 48.9832 122.049 47.1776 119.86C45.367 117.672 44.3904 116.705 43.1682 114.112C42.7361 113.189 41.952 110.205 41.6091 109.229C40.3684 105.736 39.3741 101.025 39.2799 97.5746C39.1723 93.5845 40.7232 90.0521 41.7992 86.2132L46.7172 73.464C38.9451 69.3174 28.1652 60.8136 21.8003 54.4364C29.912 55.8426 38.8939 51.1137 43.2566 42.6325C46.6139 36.1042 48.8724 22.9557 44.0911 16.1356C55.155 17.3924 72.736 20.4488 83.6217 24.0065L78.1752 22.383C81.0467 23.3199 92.5125 26.9057 92.5125 26.9057C102.872 31.9124 110.04 36.3927 117.31 41.868C119.728 43.8947 127.495 51.2841 127.495 51.2841C127.495 51.2841 133.064 61.2231 135.802 68.0712C138.093 74.8034 139.701 82.7624 139.415 89.9024C139.264 93.664 138.615 101.454 137.833 105.067C136.91 109.352 134.368 112.866 132.514 116.694C130.464 120.925 126.857 125.003 123.608 128.335ZM78.2354 29.0691C76.7896 27.4502 75.0194 26.3058 73.1078 25.7293C70.8954 25.0613 68.4963 25.1597 66.2217 26.1652C62.3987 27.8544 59.6701 31.7443 59.6315 36.1335C59.5777 42.8358 65.8569 48.4818 72.2689 47.9298C80.9069 47.1898 83.7481 35.2529 78.2354 29.0691ZM104.203 45.8504C103.605 44.1999 102.745 42.5986 101.671 41.2416C100.718 40.0375 99.6134 38.9249 98.3912 38.0636C96.051 36.42 93.2989 35.6941 90.4342 36.9931C87.1357 38.4872 84.9703 42.0168 84.0624 45.5341C82.5998 51.1624 84.4037 57.3041 89.6877 59.8704C95.1751 62.5387 101.522 60.5014 104 54.6041C105.173 51.818 105.234 48.6927 104.203 45.8504ZM126.918 96.9645C129.552 93.3224 130.914 87.2774 129.9 82.1658C129.313 79.2233 127.941 76.585 125.568 74.8905C120.66 71.382 113.404 72.6915 108.648 75.808C102.342 79.9422 100.441 87.4233 102.853 94.6196C104.154 98.4885 106.609 102.062 110.427 103.47C116.481 105.697 123.266 102.013 126.918 96.9645Z" fill="#F4BFD9"/>
<path d="M36.9741 38.111C31.4178 39.6262 31.4732 29.8969 36.3857 30.5262C39.9733 30.9815 40.5618 37.1319 36.9741 38.111Z" fill="#C0739C"/>
<path d="M26.5676 35.3039C21.0112 36.819 21.0667 27.0916 25.9792 27.7191C29.5685 28.1761 30.1603 34.3248 26.5676 35.3039Z" fill="#C0739C"/>
<path d="M127.207 128.882C127.153 128.935 127.103 128.991 127.05 129.04C125.968 130.105 124.803 131.1 123.592 132.055C121.664 133.577 119.598 134.974 117.347 136.194C112.986 138.555 108.334 140.214 103.542 141.237C97.2077 142.578 90.6359 142.803 84.1835 142.042C79.3736 141.478 74.6344 140.365 70.1103 138.766C69.5085 138.551 68.91 138.332 68.3132 138.098C65.2299 136.899 62.2054 135.433 59.3255 133.705C56.955 132.282 54.6921 130.671 52.5621 128.891C52.3855 128.741 52.204 128.601 52.0292 128.453C51.0272 127.586 50.0638 126.676 49.1324 125.729C47.9253 124.505 46.7771 123.218 45.7163 121.861C44.3024 120.051 43.0264 118.123 41.9135 116.075C41.547 115.396 41.1956 114.707 40.8627 114.001C40.3281 112.865 39.8624 111.721 39.4656 110.568C38.2047 106.938 37.5877 103.227 37.5138 99.522C37.4314 95.2471 38.0669 90.974 39.2571 86.8204C40.4441 82.6668 42.1858 78.6327 44.3175 74.8324C32.5021 70.1902 21.7694 59.1989 14.6126 49.438C14.3403 49.0636 14.2394 48.6769 14.2579 48.3025C9.81115 42.1609 10.872 33.0767 14.3672 26.3058C19.5805 16.2004 32.0936 9.22035 42.986 12.713C43.2164 12.7869 43.4131 12.9011 43.5862 13.033C56.18 14.5024 68.9755 16.7892 81.2414 20.6528C81.2498 20.6563 81.2583 20.6598 81.265 20.6616C81.8534 20.8479 82.4401 21.0413 83.0252 21.2312C84.0255 21.5616 85.0275 21.9009 86.0211 22.2524C86.5507 22.4387 87.0802 22.6356 87.6081 22.8307C88.6152 23.2033 89.6205 23.5812 90.6175 23.9767C90.5351 22.9168 90.4947 21.8639 90.4829 20.8444C90.451 18.2201 90.794 15.543 91.5118 13.0259C92.6937 8.88985 95.0776 5.22666 98.4753 2.75875C104.074 -1.30344 112.278 0.0254081 114.24 7.50646C115.201 11.1749 114.398 15.1914 113.204 18.6894C111.619 23.3457 109.166 27.6312 106.316 31.5774C107.125 32.0502 107.93 32.5353 108.727 33.0328C108.826 33.0943 108.924 33.1593 109.023 33.219C110.339 34.0434 111.644 34.9013 112.925 35.7925C112.964 35.8206 113.006 35.8487 113.043 35.8768C113.376 36.1071 113.705 36.3462 114.035 36.5817C114.875 34.3318 115.961 32.1433 117.032 30.1817C118.535 27.4325 120.445 24.8416 122.742 22.7709C126.141 19.7019 130.631 17.7455 135.139 18.8617C138.903 19.7915 141.673 23.2333 142.223 27.1777C143.012 32.857 140.276 38.1092 136.966 42.3894C134.601 45.4497 131.687 48.0845 128.587 50.3872C133.165 56.2898 136.764 63.0097 139.051 70.2728C141.06 76.6412 142.047 83.3488 141.963 90.0564C141.909 94.2927 141.492 98.4674 140.695 102.501C140.481 103.593 140.229 104.672 139.954 105.746C139.01 109.457 137.734 113.029 136.095 116.381C133.827 121.023 130.875 125.247 127.207 128.882ZM42.7439 17.5082C42.559 17.3746 42.4228 17.2217 42.3102 17.0565C33.178 16.2444 25.3487 18.185 19.6125 26.2848C15.4633 32.1399 13.493 41.0605 18.8459 46.7767C26.0565 54.4898 35.6426 50.0269 40.592 42.5212C44.331 36.8524 49.9176 22.7533 42.7439 17.5082ZM107.554 5.32867C107.557 5.32867 107.56 5.32867 107.564 5.32867C108.024 5.51851 107.251 5.15993 107.554 5.32867ZM108.443 5.86649C108.446 5.87001 108.45 5.87349 108.453 5.87701C108.707 6.05454 108.072 5.53428 108.443 5.86649ZM110.128 14.1842C110.481 12.3913 110.508 10.3558 110.173 8.88454C109.852 7.47306 109.517 6.83156 108.45 5.87357C108.431 5.85951 108.42 5.8524 108.393 5.8313C108.27 5.74342 108.137 5.65903 108.008 5.57993C107.877 5.49732 107.742 5.42702 107.608 5.35496C107.577 5.33914 107.567 5.33561 107.549 5.32331C107.271 5.20905 106.974 5.12643 106.683 5.04909C106.53 5.01217 106.379 4.98237 106.229 4.95424C106.227 4.95424 106.224 4.95424 106.224 4.95424C106.326 4.95776 106.185 4.93491 106.136 4.93139C106.108 4.92612 106.111 4.93491 106.224 4.95424C106.185 4.95424 106.13 4.9507 106.019 4.94191C105.698 4.91554 105.377 4.92259 105.052 4.93665C104.805 4.9472 104.728 4.94542 104.702 4.94191C104.702 4.94718 104.664 4.96305 104.47 4.99469C104.133 5.05797 103.798 5.1458 103.468 5.24424C103.297 5.29345 102.593 5.56764 102.562 5.56588C102.593 5.55358 102.614 5.5396 102.641 5.52554C102.576 5.55718 102.559 5.56588 102.562 5.56588C99.5445 6.95276 97.4431 9.5806 96.2343 12.7165C95.3483 15.0016 94.9549 17.4044 94.8793 19.8477C94.8137 21.9764 95.1567 23.9944 95.4862 26.0281C98.0937 27.1935 100.659 28.4573 103.176 29.8178C106.19 24.9751 109.01 19.8354 110.128 14.1842ZM137.412 33.4863C138.093 31.5299 138.36 29.3731 138.02 27.6821C137.714 26.1863 136.882 24.8697 136.092 24.2509C134.73 23.191 133.76 23.0047 132.107 23.0628C130.527 23.1225 128.644 23.9521 127.035 25.056C122.291 28.3167 119.761 34.0135 117.883 39.4995C120.917 41.9411 123.747 44.6551 126.311 47.617C130.937 43.8044 135.408 39.2395 137.412 33.4863ZM136.472 101.202C137.254 97.5902 137.708 93.8673 137.859 90.1057C138.145 82.9656 137.121 75.8203 134.829 69.088C133.632 65.5813 132.032 62.2732 130.13 59.1637C130.129 59.1619 130.127 59.1602 130.122 59.1567C129.587 58.2796 129.024 57.4183 128.443 56.5746C128.404 56.5201 128.365 56.4691 128.33 56.4163C127.799 55.6587 127.254 54.9134 126.691 54.1822C126.607 54.075 126.528 53.9677 126.445 53.8623C126.109 53.4334 125.758 53.0186 125.41 52.5967C125.176 52.7479 124.944 52.9078 124.709 53.0572C122.905 54.205 121.454 51.4049 123.088 50.1604C123.13 50.127 123.172 50.0954 123.216 50.0637C121.064 47.7136 118.755 45.5217 116.338 43.495C115.213 44.873 112.427 43.9906 112.656 41.985C112.702 41.5702 112.776 41.1501 112.853 40.7283C111.772 39.9215 110.679 39.1305 109.564 38.3711C109.243 38.1549 108.917 37.9545 108.594 37.7418C107.668 37.1283 106.748 36.5184 105.802 35.9366C105.486 35.7432 105.163 35.5639 104.844 35.3741C104.517 35.1772 104.185 34.9892 103.852 34.7958C103.791 34.8732 103.731 34.954 103.669 35.0313C102.54 36.4182 100.355 34.7326 101.053 33.2068C99.3008 32.2541 97.5103 31.3594 95.698 30.5016C94.9465 31.8059 92.6836 32.1364 92.0111 30.528C91.7489 29.8934 91.5387 29.2289 91.3538 28.5487C90.7419 28.2885 90.1333 28.0144 89.5129 27.763C89.4742 27.7507 89.4373 27.7349 89.4003 27.7191C86.6078 26.5888 83.77 25.557 80.8985 24.6201V24.6166C70.0128 21.0589 58.6564 18.8159 47.5925 17.5591C52.3738 24.3792 48.5592 36.3075 45.2018 42.8358C40.8392 51.317 33.4133 56.2493 25.3016 54.8431C31.6666 61.2203 38.5561 66.8768 46.3282 71.0233C46.4913 70.7966 46.6645 70.5857 46.8612 70.4099C48.4886 68.9509 50.5278 70.7421 49.7124 72.7002C50.4639 73.05 51.2205 73.3858 51.9888 73.704C53.8145 74.4563 53.1135 77.056 51.1869 76.7484C50.0353 76.5621 48.8904 76.302 47.7522 75.9838C45.8407 79.5943 44.2486 83.3594 43.1609 87.23C42.0849 91.069 41.5066 95.0081 41.6142 98.9983C41.7083 102.449 42.3135 105.94 43.5543 109.432C43.8972 110.408 44.2923 111.359 44.7244 112.282C45.9466 114.874 47.5067 117.265 49.3174 119.453C51.123 121.642 53.1841 123.626 55.4033 125.41C57.3417 126.962 59.4028 128.365 61.5245 129.613C64.2026 131.185 66.9833 132.512 69.7488 133.596C70.3726 133.842 71.0014 134.074 71.6318 134.299C75.8348 135.785 80.2445 136.806 84.7182 137.31C91.1554 138.045 97.7222 137.709 103.985 136.166C107.523 135.296 110.963 134.039 114.226 132.371C118.117 130.383 121.496 127.843 124.386 124.878C127.636 121.545 130.27 117.671 132.319 113.44C134.174 109.612 135.549 105.488 136.472 101.202Z" fill="#EB99C2"/>
<path d="M72.7228 43.6022C68.6964 44.2034 63.4931 40.7212 63.8731 36.1335C64.2059 32.0976 67.3666 30.1342 70.9425 29.8512C72.928 29.693 74.4175 30.1184 75.7658 31.8006C76.9325 33.2613 77.447 35.1966 77.3461 37.0809C77.1898 39.9742 75.7523 43.1487 72.7228 43.6022ZM75.6548 35.7749C75.174 33.0205 71.3594 32.4474 69.7303 34.4407C67.9617 36.6133 68.7485 39.6894 71.5695 40.1991C73.7534 40.5911 76.0448 37.9967 75.6548 35.7749Z" fill="white"/>
<path d="M91.9035 56.5551C87.6938 54.7832 85.9824 50.0057 88.0015 45.6904C88.9497 43.6531 90.5047 41.5614 92.7273 41.0358C94.6136 40.5858 97.4582 41.6 98.7561 43.1064C99.4823 43.9519 100.109 44.8976 100.573 45.9294C101.51 48.0124 101.703 50.3784 100.903 52.5457C99.4638 56.4409 95.6122 58.1107 91.9035 56.5551ZM99.2049 48.2409C98.7258 45.49 94.9095 44.9117 93.2821 46.905C91.5135 49.0776 92.2986 52.1536 95.1247 52.6634C97.3035 53.0571 99.595 50.4627 99.2049 48.2409Z" fill="white"/>
<path d="M95.1248 52.6635C92.2987 52.1538 91.5136 49.0777 93.2822 46.9051C94.9096 44.9118 98.7259 45.4901 99.205 48.241C99.5951 50.4628 97.3036 53.0573 95.1248 52.6635Z" fill="#231F20"/>
<path d="M71.5695 40.1991C68.7485 39.6894 67.9617 36.6133 69.7303 34.4407C71.3594 32.4474 75.174 33.0205 75.6548 35.7749C76.0448 37.9967 73.7534 40.5911 71.5695 40.1991Z" fill="#231F20"/>
<path d="M89.6877 59.8705C84.4038 57.3042 82.5998 51.1625 84.0625 45.5342C84.9703 42.0169 87.1357 38.4873 90.4342 36.9932C93.2989 35.6942 96.051 36.4201 98.3913 38.0636C99.6135 38.925 100.718 40.0376 101.671 41.2417C102.746 42.5987 103.605 44.2 104.203 45.8505C105.234 48.6928 105.173 51.8181 104 54.6042C101.522 60.5015 95.1751 62.5388 89.6877 59.8705ZM100.573 45.9296C100.109 44.8978 99.4824 43.9521 98.7561 43.1066C97.4582 41.6002 94.6136 40.586 92.7273 41.036C90.5048 41.5616 88.9497 43.6533 88.0015 45.6906C85.9824 50.0059 87.6938 54.7834 91.9035 56.5553C95.6122 58.1109 99.4638 56.4411 100.903 52.5459C101.703 50.3786 101.51 48.0126 100.573 45.9296Z" fill="#EB99C2"/>
<path d="M72.2689 47.9297C65.8569 48.4816 59.5777 42.8357 59.6315 36.1333C59.6701 31.7442 62.3987 27.8542 66.2217 26.165C68.4963 25.1595 70.8954 25.0611 73.1078 25.7291C75.0194 26.3056 76.7896 27.45 78.2354 29.0689C83.7481 35.2527 80.9069 47.1897 72.2689 47.9297ZM75.7658 31.8005C74.4175 30.1183 72.928 29.6929 70.9425 29.8511C67.3666 30.1341 64.2059 32.0975 63.8731 36.1333C63.4931 40.7211 68.6964 44.2033 72.7228 43.6021C75.7523 43.1486 77.1898 39.974 77.3461 37.0808C77.447 35.1964 76.9325 33.2612 75.7658 31.8005Z" fill="#EB99C2"/>
<path d="M69.7792 107.856C78.3297 109.923 85.5118 107.421 90.9891 100.355C92.4433 98.4779 95.377 100.621 94.3044 102.726C84.3753 122.215 50.0168 111.909 52.7488 89.5449C52.9656 87.7836 55.7615 87.9753 55.7362 89.7541C55.6219 98.7978 61.3632 105.825 69.7792 107.856Z" fill="#EF5091"/>
<path d="M95.4862 26.028C95.1567 23.9942 94.8137 21.9762 94.8793 19.8476C94.955 17.4043 95.3484 15.0014 96.2343 12.7163C97.4431 9.58047 99.5446 6.95262 102.562 5.56574C102.593 5.5675 103.297 5.29332 103.468 5.2441C103.798 5.14566 104.133 5.05783 104.47 4.99455C104.664 4.96291 104.702 4.94704 104.702 4.94177C104.728 4.94528 104.805 4.94706 105.052 4.93651C105.377 4.92245 105.698 4.9154 106.019 4.94177C106.13 4.95056 106.185 4.95411 106.224 4.95411C106.224 4.95411 106.227 4.95411 106.229 4.95411C106.379 4.98223 106.53 5.01203 106.683 5.04895C106.974 5.12629 107.271 5.20891 107.549 5.32317C107.567 5.33547 107.577 5.339 107.608 5.35482C107.742 5.42689 107.877 5.49718 108.008 5.5798C108.137 5.65889 108.27 5.74328 108.393 5.83117C108.42 5.85226 108.431 5.85937 108.45 5.87344C109.517 6.83142 109.852 7.47292 110.173 8.8844C110.508 10.3557 110.481 12.3912 110.128 14.1841C109.01 19.8353 106.19 24.975 103.176 29.8176C100.659 28.4571 98.0937 27.1934 95.4862 26.028Z" fill="#F4BFD9"/>
<path d="M117.883 39.4994C119.761 34.0135 122.291 28.3166 127.035 25.0559C128.644 23.9521 130.527 23.1224 132.107 23.0627C133.76 23.0047 134.73 23.1909 136.092 24.2509C136.882 24.8696 137.714 26.1862 138.02 27.6821C138.36 29.373 138.092 31.5298 137.412 33.4862C135.408 39.2394 130.937 43.8043 126.311 47.6169C123.747 44.655 120.917 41.941 117.883 39.4994Z" fill="#F4BFD9"/>
<path d="M131.27 142.101C131.564 141.192 132.513 140.345 133.691 140.559C133.772 140.573 133.858 140.592 133.94 140.608C138.814 141.528 144.199 143.231 149.965 145.688C149.97 145.692 149.982 145.692 149.989 145.697C153.686 147.272 157.31 149.054 160.706 150.956C160.943 150.789 161.195 150.622 161.471 150.453C164.479 148.588 168.929 146.913 172.084 147.374C173.204 147.536 173.972 148.53 173.999 149.854C174.023 150.984 173.436 152.318 172.103 152.566L169.845 152.84L167.369 153.162C166.844 153.28 166.303 153.436 165.763 153.614C168.633 155.503 171.177 157.339 173.219 159.763C174.282 161.023 173.949 162.466 173.186 163.278C172.409 164.108 171.005 164.493 169.763 163.391L168.747 162.489C168.747 162.489 166.463 160.51 164.914 159.167C165.21 160.046 165.493 160.996 165.708 161.965C165.75 162.155 165.768 162.341 165.768 162.526C165.768 163.719 164.902 164.66 163.953 164.99C162.831 165.384 161.802 164.918 161.335 163.804C160.889 162.747 160.583 161.631 160.298 160.552L159.385 157.643L158.964 156.859C158.934 156.811 158.904 156.764 158.877 156.715C158.827 156.695 158.783 156.69 158.729 156.665C158.729 156.665 147.897 151.434 147.894 151.434C147.889 151.431 147.882 151.427 147.877 151.425H147.875L146.969 150.995L141.366 148.595C139.777 147.938 138.161 147.265 136.563 146.553C135.087 145.894 133.627 145.199 132.21 144.433C131.337 143.96 130.968 143.043 131.27 142.101Z" fill="#F4BFD9"/>
</svg>
