<svg width="1438" height="496" viewBox="0 0 1438 496" fill="none" xmlns="http://www.w3.org/2000/svg">
<path d="M 1440 508 H 0 V 60.2 C 8 33.5 66.4 -15 236.5 4.5 C 449 29 314.8 45.6 523.4 100.3 C 732 155.1 846.2 44.6 895.4 60.2 C 944.5 75.9 1025.5 164.9 1146.4 143.3 C 1267.3 121.8 1218.2 80.8 1297.9 45.6 C 1361.6 17.4 1419.2 43.6 1440 60.2 V 508 Z" fill="#7dbd5c"/>
<path d="M 109.9 164.2 L 138.8 187" stroke="#feea00" stroke-width="2.9999" stroke-linecap="round" stroke-linejoin="round"/>
<path d="M 840.5 396.9 L 869.5 419.7" stroke="#feea00" stroke-width="2.9999" stroke-linecap="round" stroke-linejoin="round"/>
<path d="M 1265.6 244.4 L 1294.6 267.2" stroke="#feea00" stroke-width="2.9999" stroke-linecap="round" stroke-linejoin="round"/>
<path d="M 137.1 165.7 L 108.9 186.5" stroke="#feea00" stroke-width="2.9999" stroke-linecap="round" stroke-linejoin="round"/>
<path d="M 867.8 398.4 L 839.6 419.2" stroke="#feea00" stroke-width="2.9999" stroke-linecap="round" stroke-linejoin="round"/>
<path d="M 1292.9 245.9 L 1264.7 266.7" stroke="#feea00" stroke-width="2.9999" stroke-linecap="round" stroke-linejoin="round"/>
<path d="M 325.3 213.7 C 325.3 213.7 330.8 189.9 322.5 183.8" stroke="#59a943" stroke-width="2.9999" stroke-linecap="round" stroke-linejoin="round"/>
<path d="M 694.6 385.8 C 694.6 385.8 700.1 362 691.8 355.9" stroke="#59a943" stroke-width="2.9999" stroke-linecap="round" stroke-linejoin="round"/>
<path d="M 994.8 278.2 C 994.8 278.2 1000.4 254.4 992 248.3" stroke="#59a943" stroke-width="2.9999" stroke-linecap="round" stroke-linejoin="round"/>
<path d="M 1305.7 501.1 C 1305.7 501.1 1311.2 477.3 1302.9 471.2" stroke="#59a943" stroke-width="2.9999" stroke-linecap="round" stroke-linejoin="round"/>
<path d="M 304 211.7 C 304 205.3 305.3 199.9 297.6 196" stroke="#59a943" stroke-width="2.9999" stroke-linecap="round" stroke-linejoin="round"/>
<path d="M 673.3 383.7 C 673.3 377.3 674.6 371.9 666.9 368.1" stroke="#59a943" stroke-width="2.9999" stroke-linecap="round" stroke-linejoin="round"/>
<path d="M 973.6 276.2 C 973.6 269.8 974.8 264.4 967.1 260.6" stroke="#59a943" stroke-width="2.9999" stroke-linecap="round" stroke-linejoin="round"/>
<path d="M 1284.4 499.1 C 1284.4 492.7 1285.7 487.3 1277.9 483.5" stroke="#59a943" stroke-width="2.9999" stroke-linecap="round" stroke-linejoin="round"/>
<path d="M 341 212.4 C 343.6 206.4 352.4 199 360.4 198.1" stroke="#59a943" stroke-width="2.9999" stroke-linecap="round" stroke-linejoin="round"/>
<path d="M 710.3 384.4 C 712.9 378.4 721.7 371.1 729.7 370.1" stroke="#59a943" stroke-width="2.9999" stroke-linecap="round" stroke-linejoin="round"/>
<path d="M 1010.5 276.9 C 1013.1 270.9 1021.9 263.6 1029.9 262.6" stroke="#59a943" stroke-width="2.9999" stroke-linecap="round" stroke-linejoin="round"/>
<path d="M 1321.4 499.8 C 1324 493.8 1332.7 486.5 1340.8 485.5" stroke="#59a943" stroke-width="2.9999" stroke-linecap="round" stroke-linejoin="round"/>
<path d="M 119.6 214.3 L 125 176.3" stroke="#59a943" stroke-width="2.9999" stroke-linecap="round" stroke-linejoin="round"/>
<path d="M 850.2 447 L 855.7 409" stroke="#59a943" stroke-width="2.9999" stroke-linecap="round" stroke-linejoin="round"/>
<path d="M 1275.3 294.5 L 1280.8 256.4" stroke="#59a943" stroke-width="2.9999" stroke-linecap="round" stroke-linejoin="round"/>
<path fill-rule="evenodd" clip-rule="evenodd" d="M 133.5 175.6 C 133.5 179.4 129.3 182.5 124.1 182.5 C 119 182.5 114.8 179.4 114.8 175.6 C 114.8 171.8 119 168.7 124.1 168.7 C 129.3 168.7 133.5 171.8 133.5 175.6 Z" fill="#feea00"/>
<path fill-rule="evenodd" clip-rule="evenodd" d="M 864.1 408.3 C 864.1 412.1 859.9 415.2 854.7 415.2 C 849.6 415.2 845.4 412.1 845.4 408.3 C 845.4 404.5 849.6 401.4 854.7 401.4 C 859.9 401.4 864.1 404.5 864.1 408.3 Z" fill="#feea00"/>
<path fill-rule="evenodd" clip-rule="evenodd" d="M 1289.2 255.8 C 1289.2 259.6 1285 262.7 1279.8 262.7 C 1274.7 262.7 1270.5 259.6 1270.5 255.8 C 1270.5 252 1274.7 248.9 1279.8 248.9 C 1285 248.9 1289.2 252 1289.2 255.8 Z" fill="#feea00"/>
<path d="M 1183.3 154.5 L 1212.2 177.2" stroke="white" stroke-width="2.9999" stroke-linecap="round" stroke-linejoin="round"/>
<path d="M 303.8 400.8 L 332.8 423.6" stroke="white" stroke-width="2.9999" stroke-linecap="round" stroke-linejoin="round"/>
<path d="M 721 172.1 L 749.9 194.8" stroke="white" stroke-width="2.9999" stroke-linecap="round" stroke-linejoin="round"/>
<path d="M 1085 406.7 L 1113.9 429.5" stroke="white" stroke-width="2.9999" stroke-linecap="round" stroke-linejoin="round"/>
<path d="M 1210.5 156 L 1182.3 176.7" stroke="white" stroke-width="2.9999" stroke-linecap="round" stroke-linejoin="round"/>
<path d="M 331.1 402.3 L 302.9 423.1" stroke="white" stroke-width="2.9999" stroke-linecap="round" stroke-linejoin="round"/>
<path d="M 748.2 173.6 L 720 194.3" stroke="white" stroke-width="2.9999" stroke-linecap="round" stroke-linejoin="round"/>
<path d="M 1112.2 408.2 L 1084 429" stroke="white" stroke-width="2.9999" stroke-linecap="round" stroke-linejoin="round"/>
<path d="M 1192.9 204.6 L 1198.4 166.5" stroke="#59a943" stroke-width="2.9999" stroke-linecap="round" stroke-linejoin="round"/>
<path d="M 313.5 450.9 L 319 412.9" stroke="#59a943" stroke-width="2.9999" stroke-linecap="round" stroke-linejoin="round"/>
<path d="M 730.7 222.2 L 736.1 184.1" stroke="#59a943" stroke-width="2.9999" stroke-linecap="round" stroke-linejoin="round"/>
<path d="M 1094.6 456.8 L 1100.1 418.7" stroke="#59a943" stroke-width="2.9999" stroke-linecap="round" stroke-linejoin="round"/>
<path fill-rule="evenodd" clip-rule="evenodd" d="M 1206.8 165.8 C 1206.8 169.6 1202.6 172.7 1197.5 172.7 C 1192.3 172.7 1188.1 169.6 1188.1 165.8 C 1188.1 162 1192.3 159 1197.5 159 C 1202.6 159 1206.8 162 1206.8 165.8 Z" fill="#feea00"/>
<path fill-rule="evenodd" clip-rule="evenodd" d="M 327.4 412.2 C 327.4 416 323.2 419.1 318.1 419.1 C 312.9 419.1 308.7 416 308.7 412.2 C 308.7 408.4 312.9 405.3 318.1 405.3 C 323.2 405.3 327.4 408.4 327.4 412.2 Z" fill="#feea00"/>
<path fill-rule="evenodd" clip-rule="evenodd" d="M 744.5 183.4 C 744.5 187.2 740.3 190.3 735.2 190.3 C 730 190.3 725.9 187.2 725.9 183.4 C 725.9 179.6 730 176.6 735.2 176.6 C 740.3 176.6 744.5 179.6 744.5 183.4 Z" fill="#feea00"/>
<path fill-rule="evenodd" clip-rule="evenodd" d="M 1108.5 418.1 C 1108.5 421.9 1104.3 424.9 1099.2 424.9 C 1094 424.9 1089.8 421.9 1089.8 418.1 C 1089.8 414.3 1094 411.2 1099.2 411.2 C 1104.3 411.2 1108.5 414.3 1108.5 418.1 Z" fill="#feea00"/>
</svg>
