<svg width="1438" height="496" viewBox="0 0 1438 496" fill="none" xmlns="http://www.w3.org/2000/svg">
<path d="M1440 508H0V60.2476C7.97048 33.5259 66.4207 -15.0295 236.458 4.52297C449.004 28.9636 314.834 45.5832 523.395 100.33C731.956 155.077 846.199 44.6056 895.351 60.2476C944.502 75.8896 1025.54 164.854 1146.42 143.346C1267.31 121.838 1218.15 80.7778 1297.86 45.5832C1361.62 17.4276 1419.19 43.628 1440 60.2476V508Z" fill="#7DBD5C"/>
<path d="M109.891 164.241L138.84 187.013" stroke="#FEEA00" stroke-width="2.9999" stroke-linecap="round" stroke-linejoin="round"/>
<path d="M840.518 396.916L869.468 419.688" stroke="#FEEA00" stroke-width="2.9999" stroke-linecap="round" stroke-linejoin="round"/>
<path d="M1265.61 244.406L1294.56 267.179" stroke="#FEEA00" stroke-width="2.9999" stroke-linecap="round" stroke-linejoin="round"/>
<path d="M137.148 165.745L108.93 186.511" stroke="#FEEA00" stroke-width="2.9999" stroke-linecap="round" stroke-linejoin="round"/>
<path d="M867.775 398.42L839.557 419.186" stroke="#FEEA00" stroke-width="2.9999" stroke-linecap="round" stroke-linejoin="round"/>
<path d="M1292.87 245.91L1264.65 266.676" stroke="#FEEA00" stroke-width="2.9999" stroke-linecap="round" stroke-linejoin="round"/>
<path d="M325.294 213.724C325.294 213.724 330.839 189.914 322.52 183.794" stroke="#59A943" stroke-width="2.9999" stroke-linecap="round" stroke-linejoin="round"/>
<path d="M694.593 385.787C694.593 385.787 700.137 361.976 691.819 355.856" stroke="#59A943" stroke-width="2.9999" stroke-linecap="round" stroke-linejoin="round"/>
<path d="M994.814 278.248C994.814 278.248 1000.36 254.437 992.041 248.317" stroke="#59A943" stroke-width="2.9999" stroke-linecap="round" stroke-linejoin="round"/>
<path d="M1305.66 501.146C1305.66 501.146 1311.21 477.336 1302.89 471.216" stroke="#59A943" stroke-width="2.9999" stroke-linecap="round" stroke-linejoin="round"/>
<path d="M304.034 211.683C304.034 205.286 305.309 199.854 297.565 196.035" stroke="#59A943" stroke-width="2.9999" stroke-linecap="round" stroke-linejoin="round"/>
<path d="M673.333 383.746C673.333 377.348 674.608 371.916 666.863 368.097" stroke="#59A943" stroke-width="2.9999" stroke-linecap="round" stroke-linejoin="round"/>
<path d="M973.554 276.207C973.554 269.809 974.829 264.377 967.085 260.559" stroke="#59A943" stroke-width="2.9999" stroke-linecap="round" stroke-linejoin="round"/>
<path d="M1284.4 499.105C1284.4 492.708 1285.68 487.276 1277.93 483.457" stroke="#59A943" stroke-width="2.9999" stroke-linecap="round" stroke-linejoin="round"/>
<path d="M341.009 212.364C343.583 206.361 352.359 199.041 360.42 198.077" stroke="#59A943" stroke-width="2.9999" stroke-linecap="round" stroke-linejoin="round"/>
<path d="M710.308 384.426C712.882 378.423 721.657 371.103 729.719 370.139" stroke="#59A943" stroke-width="2.9999" stroke-linecap="round" stroke-linejoin="round"/>
<path d="M1010.53 276.887C1013.1 270.884 1021.88 263.564 1029.94 262.6" stroke="#59A943" stroke-width="2.9999" stroke-linecap="round" stroke-linejoin="round"/>
<path d="M1321.38 499.786C1323.95 493.783 1332.73 486.462 1340.79 485.499" stroke="#59A943" stroke-width="2.9999" stroke-linecap="round" stroke-linejoin="round"/>
<path d="M119.586 214.343L125.028 176.281" stroke="#59A943" stroke-width="2.9999" stroke-linecap="round" stroke-linejoin="round"/>
<path d="M850.214 447.018L855.655 408.956" stroke="#59A943" stroke-width="2.9999" stroke-linecap="round" stroke-linejoin="round"/>
<path d="M1275.31 294.508L1280.75 256.446" stroke="#59A943" stroke-width="2.9999" stroke-linecap="round" stroke-linejoin="round"/>
<path fill-rule="evenodd" clip-rule="evenodd" d="M133.46 175.612C133.46 179.41 129.278 182.486 124.122 182.486C118.962 182.486 114.78 179.41 114.78 175.612C114.78 171.817 118.962 168.74 124.122 168.74C129.278 168.74 133.46 171.817 133.46 175.612Z" fill="#FEEA00"/>
<path fill-rule="evenodd" clip-rule="evenodd" d="M864.088 408.287C864.088 412.085 859.906 415.161 854.749 415.161C849.589 415.161 845.407 412.085 845.407 408.287C845.407 404.491 849.589 401.415 854.749 401.415C859.906 401.415 864.088 404.491 864.088 408.287Z" fill="#FEEA00"/>
<path fill-rule="evenodd" clip-rule="evenodd" d="M1289.18 255.778C1289.18 259.575 1285 262.651 1279.84 262.651C1274.68 262.651 1270.5 259.575 1270.5 255.778C1270.5 251.982 1274.68 248.905 1279.84 248.905C1285 248.905 1289.18 251.982 1289.18 255.778Z" fill="#FEEA00"/>
<path d="M1183.25 154.465L1212.2 177.237" stroke="white" stroke-width="2.9999" stroke-linecap="round" stroke-linejoin="round"/>
<path d="M303.841 400.827L332.789 423.598" stroke="white" stroke-width="2.9999" stroke-linecap="round" stroke-linejoin="round"/>
<path d="M720.963 172.062L749.911 194.834" stroke="white" stroke-width="2.9999" stroke-linecap="round" stroke-linejoin="round"/>
<path d="M1084.95 406.692L1113.9 429.464" stroke="white" stroke-width="2.9999" stroke-linecap="round" stroke-linejoin="round"/>
<path d="M1210.51 155.968L1182.29 176.735" stroke="white" stroke-width="2.9999" stroke-linecap="round" stroke-linejoin="round"/>
<path d="M331.096 402.329L302.878 423.096" stroke="white" stroke-width="2.9999" stroke-linecap="round" stroke-linejoin="round"/>
<path d="M748.218 173.565L720 194.332" stroke="white" stroke-width="2.9999" stroke-linecap="round" stroke-linejoin="round"/>
<path d="M1112.2 408.195L1083.99 428.962" stroke="white" stroke-width="2.9999" stroke-linecap="round" stroke-linejoin="round"/>
<path d="M1192.94 204.567L1198.38 166.504" stroke="#59A943" stroke-width="2.9999" stroke-linecap="round" stroke-linejoin="round"/>
<path d="M313.534 450.928L318.972 412.866" stroke="#59A943" stroke-width="2.9999" stroke-linecap="round" stroke-linejoin="round"/>
<path d="M730.656 222.164L736.094 184.101" stroke="#59A943" stroke-width="2.9999" stroke-linecap="round" stroke-linejoin="round"/>
<path d="M1094.64 456.794L1100.08 418.731" stroke="#59A943" stroke-width="2.9999" stroke-linecap="round" stroke-linejoin="round"/>
<path fill-rule="evenodd" clip-rule="evenodd" d="M1206.82 165.836C1206.82 169.634 1202.64 172.71 1197.48 172.71C1192.32 172.71 1188.14 169.634 1188.14 165.836C1188.14 162.04 1192.32 158.964 1197.48 158.964C1202.64 158.964 1206.82 162.04 1206.82 165.836Z" fill="#FEEA00"/>
<path fill-rule="evenodd" clip-rule="evenodd" d="M327.409 412.197C327.409 415.996 323.227 419.072 318.067 419.072C312.911 419.072 308.729 415.996 308.729 412.197C308.729 408.402 312.911 405.325 318.067 405.325C323.227 405.325 327.409 408.402 327.409 412.197Z" fill="#FEEA00"/>
<path fill-rule="evenodd" clip-rule="evenodd" d="M744.531 183.433C744.531 187.231 740.349 190.307 735.189 190.307C730.033 190.307 725.851 187.231 725.851 183.433C725.851 179.638 730.033 176.561 735.189 176.561C740.349 176.561 744.531 179.638 744.531 183.433Z" fill="#FEEA00"/>
<path fill-rule="evenodd" clip-rule="evenodd" d="M1108.52 418.063C1108.52 421.861 1104.33 424.938 1099.17 424.938C1094.02 424.938 1089.84 421.861 1089.84 418.063C1089.84 414.268 1094.02 411.191 1099.17 411.191C1104.33 411.191 1108.52 414.268 1108.52 418.063Z" fill="#FEEA00"/>
</svg>
