<svg width="213" height="56" viewBox="0 0 213 56" fill="none" xmlns="http://www.w3.org/2000/svg">
<path d="M5.31519 40.3453C5.53812 39.9697 5.66256 39.5692 5.66256 39.1921C5.66256 39.0841 5.65225 38.9787 5.63354 38.876C5.54957 38.4386 5.28618 38.0599 4.87202 37.7843C4.07881 37.2556 3.36995 37.5587 2.9722 38.0191C2.68248 38.3527 2.50269 38.8214 2.50269 39.2963C2.50269 39.7005 2.63209 40.1086 2.93403 40.4449C2.93403 40.4449 2.96724 40.4773 2.98442 40.4945C2.48627 40.5293 1.93584 40.3533 1.67818 39.7357C1.57893 39.4994 1.39265 39.3486 1.16553 39.3211C0.945277 39.2955 0.719301 39.3933 0.589898 39.5704C0.459351 39.7494 0.444844 39.9845 0.549435 40.2143C0.866262 40.9091 1.44266 41.408 2.17098 41.6198C2.91685 41.8363 3.72686 41.7149 4.40327 41.2896C4.95562 41.4282 5.53124 41.4221 6.05802 41.2954C6.11489 40.9304 6.17368 40.5655 6.23513 40.2002C5.94312 40.3029 5.62744 40.3525 5.31519 40.3453ZM4.4067 39.6425C4.3357 39.767 4.22691 39.8819 4.11011 39.9926C3.86962 39.846 3.71694 39.6803 3.68755 39.4925C3.68526 39.4784 3.68373 39.4635 3.68373 39.4463C3.68373 39.3139 3.75052 39.1005 3.86771 38.9436C3.93413 38.855 4.00475 38.8016 4.06544 38.7943C4.17996 38.7794 4.31166 38.8558 4.39983 38.9882C4.46549 39.0867 4.4987 39.1986 4.4987 39.3127C4.4987 39.4238 4.46777 39.5364 4.4067 39.6425Z" fill="#F4BFD9"/>
<path d="M32.0756 32.1593L33.3478 32.6811L33.4704 32.7368C33.4704 32.7368 33.5131 32.7563 33.5421 32.7689C33.5463 32.7708 33.5502 32.7727 33.554 32.7746C33.554 32.7746 36.0187 33.9125 36.0218 33.9148C36.0325 33.9186 36.0416 33.9194 36.0523 33.924C36.0584 33.9339 36.0645 33.9446 36.0718 33.9545L36.1684 34.1248L36.3741 34.7565C36.4405 34.9901 36.5085 35.2321 36.6096 35.4627C36.7161 35.7047 36.9497 35.8059 37.2047 35.7204C37.4196 35.6486 37.6166 35.4444 37.6166 35.1852C37.6166 35.1451 37.6128 35.1046 37.6025 35.0634C37.5597 34.8764 37.4998 34.6779 37.4227 34.4557L38.2942 35.1772L38.524 35.373C38.806 35.6123 39.1255 35.5287 39.3015 35.3486C39.474 35.1722 39.55 34.8588 39.3084 34.5851C38.8454 34.0591 38.2663 33.6602 37.6166 33.2499C37.7391 33.2113 37.8609 33.1773 37.98 33.1518L38.543 33.0819L39.0549 33.0224C39.358 32.9685 39.4905 32.6788 39.4855 32.4334C39.4798 32.1459 39.3053 31.9299 39.0503 31.8948C38.3339 31.7948 37.3242 32.1585 36.6413 32.5635C36.5795 32.5998 36.5215 32.6365 36.468 32.6723C35.6859 32.2547 34.8682 31.8707 34.0411 31.5333C34.0403 31.5333 34.0391 31.5333 34.038 31.5329C34.0372 31.5321 34.0361 31.5314 34.0342 31.5306C32.7676 31.0145 31.5828 30.6519 30.5044 30.4481C30.7251 30.8809 30.9293 31.323 31.1201 31.773C31.4396 31.9074 31.7599 32.0349 32.0756 32.1593Z" fill="#F4BFD9"/>
<path d="M25.9891 51.0334C25.6192 51.2319 25.7524 51.7621 26.025 51.9698C26.094 52.0224 26.1719 52.056 26.2536 52.0553C27.3774 52.0545 28.4947 51.9006 29.6601 51.7705C30.0605 51.7262 30.5495 51.6838 31.0293 51.596C31.5984 51.4922 32.1538 51.3235 32.5325 51.0051C32.9688 50.6398 32.8554 49.9272 32.3252 49.7168C31.4652 49.3779 30.1964 49.8004 29.3364 50.0279C28.6309 50.2157 27.9408 50.4181 27.256 50.6269C26.8636 50.7467 26.4723 50.8689 26.0826 50.9933C26.0482 51.0044 26.0169 51.0177 25.9891 51.0334Z" fill="#231F20"/>
<path d="M25.4699 47.2952C25.4715 47.3021 25.4711 47.3082 25.4719 47.3151C25.6238 48.5606 25.8081 49.8065 25.986 51.012L25.9891 51.0334C26.0169 51.0177 26.0483 51.0044 26.0826 50.9933C26.4723 50.8688 26.8636 50.7467 27.256 50.6269C27.127 49.7974 27.0274 48.9408 26.9323 48.1071C26.9323 48.1071 26.8369 47.2941 26.817 47.1265C26.8159 47.1196 26.8163 47.1139 26.8155 47.1078C26.7724 46.7539 26.7266 46.3951 26.6766 46.0336C26.2277 46.0355 25.7795 46.0374 25.331 46.0374C25.3707 46.4375 25.4173 46.8551 25.4699 47.2952Z" fill="#F4BFD9"/>
<path d="M11.7701 50.678C11.2784 50.7505 11.2902 51.5025 11.6124 51.6998C11.6311 51.7121 11.6506 51.722 11.6712 51.7292C12.7282 52.111 13.8313 52.3472 14.9711 52.6209C15.5911 52.7698 16.4175 53.0026 17.1515 53C17.4306 52.9996 17.697 52.9664 17.9325 52.8794C18.4669 52.6843 18.6032 51.9755 18.1761 51.5979C17.4832 50.9853 16.1461 50.9505 15.2601 50.8727C14.5329 50.8085 13.8145 50.7635 13.1 50.7276C12.69 50.707 12.2804 50.6887 11.872 50.6726C11.8353 50.6711 11.8021 50.6734 11.7701 50.678Z" fill="#231F20"/>
<path d="M12.556 46.9841C12.5537 46.9914 12.551 46.9979 12.5499 47.0059C12.2701 48.2209 12.0205 49.4477 11.7792 50.6353L11.7701 50.678C11.8021 50.6734 11.8353 50.6711 11.872 50.6727C12.2804 50.6887 12.69 50.707 13.1 50.7276C13.2614 49.9031 13.4592 49.0629 13.6527 48.2468C13.6527 48.2468 13.842 47.4468 13.8791 47.2853C13.8802 47.2796 13.8825 47.2746 13.8836 47.2685C13.981 46.8467 14.0764 46.415 14.165 45.9779C13.7119 45.9665 13.2584 45.9558 12.8053 45.9439C12.7224 46.2764 12.6396 46.6215 12.556 46.9841Z" fill="#F4BFD9"/>
<path d="M6.16766 45.2446C15.2247 45.4219 24.3377 45.8296 33.3913 45.3196C32.6504 39.9532 31.9008 34.2049 29.2127 29.4323C28.8292 28.7525 28.3783 28.1251 27.8766 27.5429C27.3741 27.9447 26.8403 28.3079 26.2811 28.6292C25.6017 29.019 24.8882 29.3498 24.1609 29.6203C24.0201 29.673 23.8789 29.7226 23.7369 29.771C22.6697 30.1319 21.5517 30.383 20.417 30.5103C18.8949 30.682 17.3446 30.6312 15.8502 30.3286C14.7199 30.0978 13.6225 29.7234 12.5937 29.1908C12.0627 28.9155 11.5753 28.6002 11.1204 28.2568C10.8451 28.6355 10.5806 29.0246 10.3375 29.4323C7.58034 34.0705 6.89145 39.9572 6.16766 45.2446Z" fill="#F1635D"/>
<path d="M27.5728 27.881C28.0557 28.4414 28.4897 29.0452 28.8588 29.6995C31.4461 34.2931 32.1676 39.8257 32.8806 44.9908C24.1668 45.4817 15.3956 45.0892 6.67832 44.9186C7.37495 39.8295 8.038 34.1637 10.6917 29.6995C10.9257 29.3071 11.1803 28.9326 11.4452 28.5681C11.1704 28.3608 10.9058 28.1448 10.66 27.9134C10.6482 27.9027 10.6367 27.8905 10.6245 27.8791C10.6001 27.9123 10.573 27.9421 10.5478 27.9753C10.3375 28.2608 10.139 28.5559 9.95384 28.8586C9.64198 29.3682 9.36027 29.8923 9.09574 30.4255C9.11445 30.4221 9.13353 30.4179 9.15186 30.4148C9.41944 30.3683 9.6351 30.5523 9.70191 30.7496C9.77061 30.9542 9.68664 31.1535 9.48853 31.2561C9.16674 31.4226 8.83541 31.5734 8.50026 31.7165C7.37419 34.3946 6.72069 37.298 6.23514 40.2002C6.17369 40.5655 6.1149 40.9304 6.05802 41.2953C5.85839 42.5859 5.68318 43.8704 5.50721 45.1293C5.43812 45.6275 5.94504 45.9283 6.29584 45.8256C6.35767 45.8565 6.42982 45.876 6.51571 45.8737C8.61172 45.8458 10.7081 45.8905 12.8053 45.9439C13.2584 45.9558 13.7119 45.9664 14.165 45.9779C16.285 46.0321 18.4051 46.0802 20.5259 46.0546C22.128 46.0355 23.7293 46.0397 25.331 46.0374C25.7795 46.0374 26.2277 46.0355 26.6766 46.0336C28.8783 46.0222 31.0804 45.9821 33.2814 45.8317C33.6311 45.9126 34.1098 45.6149 34.0422 45.1293C33.4364 40.785 32.8841 35.9433 31.1201 31.773C30.9293 31.323 30.7251 30.8809 30.5044 30.448C30.2273 29.903 29.9265 29.3712 29.5955 28.8586C29.2173 28.2703 28.7993 27.7176 28.3515 27.1943C28.1401 27.4 27.9213 27.5978 27.6938 27.7859C27.6541 27.818 27.6129 27.8486 27.5728 27.881Z" fill="#EE3424"/>
<path d="M35.2282 10.049C36.4436 8.80765 35.9962 6.87044 35.0541 5.59893C33.7517 3.83998 31.974 3.41856 29.9005 3.59491C29.875 3.63079 29.8441 3.66399 29.8021 3.693C28.1733 4.83205 29.4417 7.89383 30.2907 9.12487C31.4144 10.7548 33.591 11.724 35.2282 10.049ZM33.6086 5.91041C34.7239 5.77414 34.7365 7.88657 33.475 7.55753C32.6592 7.34491 32.7936 6.00966 33.6086 5.91041ZM31.2457 6.52001C32.3611 6.38335 32.3737 8.49617 31.1121 8.16712C30.2975 7.95451 30.4311 6.61887 31.2457 6.52001Z" fill="#F4BFD9"/>
<path d="M14.7532 23.1756C15.8369 22.7934 16.5336 21.8233 16.903 20.773C17.5877 18.8193 17.048 16.7884 15.2581 15.666C13.9081 14.8199 11.8485 14.4644 10.4556 15.4169C9.78178 15.8769 9.39239 16.5932 9.22585 17.392C8.93811 18.7797 9.32463 20.4208 10.0724 21.4095C11.1089 22.78 13.0348 23.7802 14.7532 23.1756Z" fill="#F5A2C6"/>
<path d="M11.4417 27.7604C12.0979 28.4043 12.9976 28.8234 13.8809 29.2552C14.6218 29.6174 15.8445 30.0228 16.648 30.2118C18.0699 30.5469 19.2517 30.399 20.7134 30.2395C21.7291 30.1299 22.4212 29.7756 23.3755 29.4531C23.5186 29.4042 24.5005 29.133 24.6422 29.0796C25.2701 28.844 25.504 28.7325 26.112 28.3912C26.5938 28.1202 26.9734 27.5948 27.4135 27.2577C27.9174 26.8703 28.3854 26.3952 28.7954 25.9199C29.2065 25.4447 29.4282 25.2347 29.7057 24.6717C29.8038 24.4713 29.9819 23.8231 30.0597 23.6112C30.3414 22.8528 30.5672 21.8297 30.5886 21.0804C30.613 20.2139 30.2609 19.4468 30.0166 18.6131L28.8999 15.8445C30.6646 14.944 33.1122 13.0973 34.5574 11.7124C32.7156 12.0178 30.6762 10.9909 29.6856 9.14907C28.9234 7.73136 28.4106 4.87603 29.4962 3.39496C26.9841 3.66789 22.9923 4.33161 20.5206 5.10421L21.7573 4.75166C21.1053 4.95512 18.502 5.7338 18.502 5.7338C16.1498 6.82106 14.5222 7.79402 12.8715 8.98304C12.3226 9.42316 10.5591 11.0279 10.5591 11.0279C10.5591 11.0279 9.29468 13.1862 8.67298 14.6734C8.1527 16.1353 7.78773 17.8637 7.85262 19.4143C7.88698 20.2311 8.03421 21.9229 8.21171 22.7073C8.42127 23.638 8.99851 24.401 9.41955 25.2324C9.88486 26.1512 10.7038 27.0366 11.4417 27.7604ZM21.7436 6.20361C22.0719 5.85205 22.4738 5.60354 22.9078 5.47833C23.4102 5.33328 23.9549 5.35465 24.4714 5.573C25.3394 5.93983 25.9589 6.78458 25.9677 7.73773C25.9799 9.19322 24.5542 10.4193 23.0983 10.2994C21.137 10.1387 20.4919 7.54649 21.7436 6.20361ZM15.8476 9.84787C15.9835 9.48944 16.1785 9.14169 16.4224 8.847C16.6389 8.58553 16.8897 8.3439 17.1672 8.15686C17.6985 7.79996 18.3234 7.6423 18.9738 7.92439C19.7228 8.24885 20.2144 9.01535 20.4206 9.77917C20.7527 11.0014 20.3431 12.3352 19.1433 12.8925C17.8974 13.4719 16.4564 13.0295 15.8938 11.7488C15.6273 11.1438 15.6136 10.4651 15.8476 9.84787ZM10.6902 20.9479C10.092 20.1569 9.78282 18.8442 10.013 17.7342C10.1462 17.0952 10.4577 16.5222 10.9967 16.1542C12.1109 15.3923 13.7584 15.6767 14.8383 16.3535C16.2701 17.2513 16.7019 18.8759 16.1541 20.4387C15.8586 21.2788 15.3013 22.0548 14.4344 22.3606C13.0599 22.8442 11.5193 22.0442 10.6902 20.9479Z" fill="#F4BFD9"/>
<path d="M31.1121 8.16716C32.3737 8.4962 32.3611 6.38339 31.2457 6.52005C30.4311 6.61891 30.2975 7.95454 31.1121 8.16716Z" fill="#C0739C"/>
<path d="M33.475 7.55755C34.7366 7.88659 34.7239 5.77416 33.6086 5.91044C32.7936 6.00968 32.6592 7.34494 33.475 7.55755Z" fill="#C0739C"/>
<path d="M10.6245 27.8791C10.6367 27.8906 10.6482 27.9028 10.66 27.9134C10.9058 28.1448 11.1704 28.3608 11.4452 28.5681C11.8831 28.8987 12.3522 29.2021 12.8633 29.467C13.8535 29.9797 14.9097 30.34 15.9976 30.5622C17.4359 30.8534 18.9281 30.9023 20.3931 30.737C21.4852 30.6145 22.5612 30.3729 23.5884 30.0255C23.7251 29.9789 23.861 29.9312 23.9965 29.8804C24.6966 29.6201 25.3833 29.3018 26.0372 28.9265C26.5754 28.6173 27.0892 28.2677 27.5728 27.881C27.6129 27.8486 27.6541 27.818 27.6938 27.786C27.9213 27.5978 28.1401 27.4 28.3515 27.1943C28.6256 26.9286 28.8863 26.6492 29.1272 26.3545C29.4482 25.9613 29.7379 25.5426 29.9906 25.0979C30.0738 24.9506 30.1536 24.8009 30.2292 24.6475C30.3506 24.4009 30.4563 24.1524 30.5464 23.902C30.8327 23.1137 30.9728 22.3079 30.9896 21.5033C31.0083 20.5749 30.864 19.647 30.5937 18.7449C30.3243 17.8429 29.9288 16.9669 29.4448 16.1416C32.1275 15.1335 34.5644 12.7466 36.1894 10.627C36.2512 10.5456 36.2741 10.4617 36.2699 10.3804C37.2795 9.04664 37.0387 7.07391 36.2451 5.60353C35.0614 3.40903 32.2202 1.89323 29.7471 2.65171C29.6948 2.66774 29.6501 2.69255 29.6108 2.72118C26.7514 3.0403 23.8461 3.5369 21.0611 4.37592C21.0592 4.37668 21.0573 4.37745 21.0557 4.37783C20.9221 4.41829 20.7889 4.46029 20.6561 4.50152C20.429 4.57328 20.2015 4.64695 19.9759 4.7233C19.8556 4.76376 19.7354 4.8065 19.6155 4.84887C19.3869 4.9298 19.1586 5.01186 18.9322 5.09774C18.9509 4.86757 18.9601 4.63893 18.9628 4.41753C18.97 3.84762 18.8922 3.26627 18.7292 2.71965C18.4608 1.82146 17.9195 1.02596 17.1481 0.490026C15.877 -0.392124 14.0142 -0.10355 13.5687 1.52104C13.3504 2.31769 13.5328 3.18992 13.8039 3.94954C14.1638 4.96071 14.7207 5.89135 15.3678 6.74831C15.1842 6.85099 15.0013 6.95635 14.8204 7.06437C14.7978 7.07773 14.7757 7.09184 14.7532 7.10482C14.4543 7.28384 14.1581 7.47014 13.8672 7.66367C13.8584 7.66978 13.8489 7.67588 13.8405 7.68199C13.7649 7.73199 13.6901 7.78391 13.6153 7.83506C13.4244 7.34646 13.1778 6.87122 12.9347 6.44522C12.5934 5.84822 12.1598 5.28556 11.6384 4.8359C10.8665 4.16941 9.84696 3.74456 8.82357 3.98695C7.9689 4.18888 7.33984 4.93629 7.21501 5.79287C7.03599 7.0262 7.65704 8.16677 8.40864 9.09626C8.94572 9.76083 9.60724 10.333 10.3111 10.8331C9.27171 12.1149 8.45445 13.5742 7.93532 15.1515C7.47916 16.5344 7.25509 17.9911 7.27418 19.4477C7.2864 20.3676 7.38106 21.2742 7.562 22.1503C7.61047 22.3873 7.66774 22.6217 7.73034 22.8549C7.94448 23.6607 8.2342 24.4364 8.60637 25.1643C9.12131 26.1724 9.79162 27.0897 10.6245 27.8791ZM29.8021 3.69302C29.8441 3.66401 29.875 3.63082 29.9005 3.59494C31.974 3.41858 33.7517 3.84 35.0541 5.59896C35.9962 6.87046 36.4436 8.80767 35.2282 10.049C33.591 11.724 31.4144 10.7548 30.2907 9.12489C29.4417 7.89385 28.1733 4.83207 29.8021 3.69302ZM15.0868 1.04811C15.0861 1.04811 15.0853 1.04811 15.0845 1.04811C14.9799 1.08934 15.1555 1.01147 15.0868 1.04811ZM14.8849 1.16491C14.8841 1.16567 14.8834 1.16643 14.8826 1.16719C14.825 1.20574 14.9692 1.09276 14.8849 1.16491ZM14.5024 2.9712C14.4222 2.58184 14.4161 2.13981 14.4921 1.82031C14.565 1.51379 14.641 1.37448 14.8834 1.16644C14.8876 1.16339 14.8902 1.16185 14.8963 1.15726C14.9242 1.13818 14.9544 1.11985 14.9837 1.10268C15.0135 1.08474 15.0441 1.06947 15.0746 1.05382C15.0815 1.05038 15.0838 1.04962 15.088 1.04695C15.1509 1.02214 15.2185 1.00419 15.2845 0.987398C15.3193 0.979382 15.3536 0.97291 15.3876 0.966803C15.388 0.966803 15.3888 0.966803 15.3888 0.966803C15.3655 0.967566 15.3975 0.962603 15.4086 0.96184C15.4151 0.960693 15.4143 0.962603 15.3888 0.966803C15.3975 0.966803 15.4101 0.966032 15.4353 0.964123C15.5082 0.958397 15.5811 0.959927 15.6548 0.96298C15.7109 0.965271 15.7285 0.964886 15.7342 0.964123C15.7342 0.965267 15.743 0.968714 15.7869 0.975586C15.8636 0.989326 15.9396 1.0084 16.0144 1.02978C16.0533 1.04046 16.2133 1.10001 16.2201 1.09962C16.2133 1.09695 16.2083 1.09392 16.2022 1.09087C16.2171 1.09774 16.2209 1.09962 16.2201 1.09962C16.9053 1.4008 17.3825 1.97147 17.6569 2.65245C17.8581 3.14869 17.9474 3.6705 17.9646 4.20109C17.9795 4.66335 17.9016 5.10158 17.8268 5.54323C17.2347 5.79631 16.6522 6.07074 16.0808 6.36619C15.3964 5.31456 14.7562 4.19842 14.5024 2.9712ZM8.30749 7.16286C8.1529 6.738 8.0922 6.26963 8.16931 5.90242C8.23878 5.57758 8.42774 5.29166 8.60714 5.1573C8.91634 4.92712 9.13659 4.88667 9.51181 4.89927C9.87063 4.91224 10.2982 5.09241 10.6635 5.33212C11.7407 6.04021 12.3152 7.27736 12.7415 8.4687C12.0525 8.99891 11.4101 9.58829 10.828 10.2315C9.77749 9.40354 8.7625 8.41222 8.30749 7.16286ZM8.52087 21.8682C8.34337 21.0837 8.24031 20.2753 8.20596 19.4584C8.14107 17.9078 8.37353 16.3562 8.89382 14.8942C9.1656 14.1326 9.52899 13.4142 9.96071 12.739C9.9611 12.7386 9.96148 12.7382 9.96262 12.7375C10.084 12.547 10.2119 12.36 10.344 12.1767C10.3527 12.1649 10.3615 12.1538 10.3695 12.1424C10.4902 11.9778 10.6138 11.816 10.7417 11.6572C10.7608 11.6339 10.7787 11.6106 10.7974 11.5877C10.8738 11.4946 10.9536 11.4045 11.0326 11.3129C11.0856 11.3457 11.1383 11.3805 11.1918 11.4129C11.6013 11.6622 11.9308 11.0541 11.5597 10.7838C11.5502 10.7766 11.5406 10.7697 11.5307 10.7628C12.0193 10.2525 12.5434 9.77647 13.0923 9.33635C13.3477 9.63562 13.9802 9.44399 13.9283 9.00845C13.918 8.91836 13.9012 8.82715 13.8836 8.73553C14.1291 8.56032 14.3772 8.38855 14.6303 8.22365C14.7032 8.1767 14.7772 8.13317 14.8505 8.08698C15.0609 7.95376 15.2697 7.82131 15.4846 7.69496C15.5563 7.65298 15.6296 7.61404 15.7021 7.57281C15.7762 7.53006 15.8518 7.48922 15.9274 7.44723C15.9411 7.46403 15.9548 7.48158 15.969 7.49837C16.2251 7.79955 16.7213 7.43349 16.5629 7.10216C16.9607 6.89527 17.3672 6.70098 17.7787 6.5147C17.9493 6.79793 18.4631 6.8697 18.6158 6.52043C18.6754 6.38263 18.7231 6.23833 18.7651 6.0906C18.904 6.03411 19.0422 5.97457 19.183 5.91999C19.1918 5.91731 19.2002 5.91387 19.2086 5.91043C19.8426 5.66499 20.487 5.44092 21.139 5.23746V5.2367C23.6106 4.4641 26.1891 3.97702 28.7012 3.70409C27.6156 5.18516 28.4817 7.7755 29.244 9.1932C30.2345 11.035 31.9206 12.1061 33.7624 11.8007C32.3172 13.1856 30.7529 14.414 28.9882 15.3144C28.9512 15.2652 28.9119 15.2194 28.8672 15.1812C28.4977 14.8644 28.0347 15.2534 28.2198 15.6786C28.0492 15.7546 27.8774 15.8275 27.703 15.8966C27.2884 16.06 27.4476 16.6245 27.8851 16.5577C28.1465 16.5172 28.4065 16.4608 28.6649 16.3917C29.0989 17.1757 29.4604 17.9934 29.7074 18.8339C29.9517 19.6676 30.083 20.523 30.0586 21.3895C30.0372 22.1388 29.8998 22.8969 29.6181 23.6554C29.5402 23.8672 29.4505 24.0737 29.3524 24.2741C29.0749 24.8372 28.7207 25.3563 28.3095 25.8316C27.8996 26.3068 27.4316 26.7377 26.9277 27.1252C26.4876 27.4622 26.0196 27.7669 25.5379 28.0379C24.9298 28.3792 24.2984 28.6674 23.6705 28.9029C23.5289 28.9563 23.3861 29.0067 23.243 29.0555C22.2887 29.3781 21.2874 29.5999 20.2717 29.7094C18.8101 29.869 17.3191 29.7961 15.8972 29.4609C15.0937 29.272 14.3127 28.9991 13.5718 28.6368C12.6885 28.2051 11.9212 27.6535 11.265 27.0095C10.5272 26.2858 9.92903 25.4445 9.46372 24.5257C9.04268 23.6943 8.73043 22.7988 8.52087 21.8682Z" fill="#EB99C2"/>
<path d="M22.9953 9.35963C23.9095 9.49018 25.0909 8.73398 25.0046 7.7377C24.929 6.86127 24.2114 6.4349 23.3995 6.37345C22.9487 6.33909 22.6105 6.43147 22.3043 6.79678C22.0394 7.11398 21.9226 7.53424 21.9455 7.94345C21.981 8.57175 22.3074 9.26115 22.9953 9.35963ZM22.3295 7.65984C22.4387 7.06168 23.3048 6.93723 23.6747 7.3701C24.0763 7.8419 23.8976 8.50991 23.2571 8.62061C22.7613 8.70573 22.241 8.14233 22.3295 7.65984Z" fill="white"/>
<path d="M18.6402 12.1725C19.596 11.7877 19.9846 10.7502 19.5262 9.81312C19.3109 9.37071 18.9578 8.91646 18.4532 8.80233C18.0249 8.70461 17.379 8.92485 17.0843 9.25199C16.9194 9.43559 16.777 9.64096 16.6717 9.86503C16.4591 10.3174 16.4152 10.8312 16.5969 11.3018C16.9236 12.1477 17.7981 12.5103 18.6402 12.1725ZM16.9824 10.367C17.0912 9.7696 17.9577 9.64401 18.3272 10.0769C18.7288 10.5487 18.5505 11.2167 17.9088 11.3274C17.4141 11.4129 16.8939 10.8495 16.9824 10.367Z" fill="white"/>
<path d="M17.9089 11.3274C18.5505 11.2167 18.7288 10.5487 18.3272 10.0769C17.9577 9.64402 17.0912 9.76961 16.9824 10.367C16.8939 10.8495 17.4141 11.4129 17.9089 11.3274Z" fill="#231F20"/>
<path d="M23.2571 8.62062C23.8977 8.50992 24.0763 7.84191 23.6747 7.37011C23.3048 6.93724 22.4387 7.06169 22.3296 7.65985C22.241 8.14234 22.7613 8.70574 23.2571 8.62062Z" fill="#231F20"/>
<path d="M19.1433 12.8925C20.3431 12.3351 20.7527 11.0014 20.4206 9.77916C20.2144 9.01534 19.7228 8.24885 18.9739 7.92439C18.3234 7.6423 17.6985 7.79995 17.1672 8.15686C16.8897 8.3439 16.6389 8.58552 16.4225 8.847C16.1785 9.14168 15.9835 9.48943 15.8476 9.84787C15.6136 10.4651 15.6273 11.1438 15.8938 11.7488C16.4564 13.0295 17.8974 13.4719 19.1433 12.8925ZM16.6717 9.86504C16.7771 9.64097 16.9194 9.4356 17.0843 9.25199C17.379 8.92486 18.0249 8.70461 18.4532 8.80233C18.9578 8.91647 19.3109 9.37072 19.5262 9.81313C19.9846 10.7502 19.5961 11.7877 18.6402 12.1725C17.7982 12.5103 16.9237 12.1477 16.5969 11.3018C16.4152 10.8312 16.4591 10.3174 16.6717 9.86504Z" fill="#EB99C2"/>
<path d="M23.0983 10.2994C24.5542 10.4193 25.9799 9.19321 25.9677 7.73771C25.9589 6.78456 25.3394 5.93981 24.4714 5.57298C23.9549 5.35464 23.4102 5.33327 22.9079 5.47832C22.4738 5.60352 22.0719 5.85203 21.7436 6.20359C20.492 7.54648 21.1371 10.1387 23.0983 10.2994ZM22.3044 6.79679C22.6105 6.43149 22.9487 6.33911 23.3995 6.37346C24.2114 6.43492 24.9291 6.86129 25.0046 7.73771C25.0909 8.734 23.9095 9.49019 22.9953 9.35964C22.3074 9.26116 21.981 8.57177 21.9455 7.94346C21.9226 7.53426 22.0394 7.114 22.3044 6.79679Z" fill="#EB99C2"/>
<path d="M23.6636 23.313C21.7222 23.7619 20.0915 23.2187 18.8479 21.6842C18.5177 21.2765 17.8516 21.7418 18.0951 22.1991C20.3496 26.4312 28.1507 24.1932 27.5304 19.3366C27.4812 18.9541 26.8464 18.9957 26.8521 19.382C26.8781 21.346 25.5745 22.8721 23.6636 23.313Z" fill="#EF5091"/>
<path d="M17.8268 5.54322C17.9016 5.10157 17.9795 4.66334 17.9646 4.20107C17.9474 3.67049 17.8581 3.14867 17.6569 2.65244C17.3825 1.97145 16.9053 1.40079 16.2201 1.09961C16.2133 1.09999 16.0533 1.04045 16.0144 1.02976C15.9396 1.00839 15.8636 0.989314 15.7869 0.975572C15.743 0.968701 15.7342 0.965254 15.7342 0.964109C15.7285 0.964872 15.7109 0.965258 15.6548 0.962967C15.5811 0.959914 15.5082 0.958383 15.4353 0.964109C15.4101 0.966018 15.3975 0.966788 15.3887 0.966788C15.3887 0.966788 15.388 0.966788 15.3876 0.966788C15.3536 0.972896 15.3193 0.979368 15.2845 0.987384C15.2185 1.00418 15.1509 1.02212 15.088 1.04693C15.0838 1.04961 15.0815 1.05037 15.0746 1.05381C15.0441 1.06946 15.0135 1.08472 14.9837 1.10266C14.9543 1.11984 14.9242 1.13817 14.8963 1.15725C14.8902 1.16183 14.8875 1.16338 14.8833 1.16643C14.641 1.37447 14.565 1.51378 14.4921 1.8203C14.4161 2.13979 14.4222 2.58183 14.5024 2.97118C14.7562 4.19841 15.3964 5.31455 16.0808 6.36618C16.6522 6.07073 17.2347 5.7963 17.8268 5.54322Z" fill="#F4BFD9"/>
<path d="M12.7415 8.46868C12.3152 7.27734 11.7407 6.0402 10.6635 5.33211C10.2982 5.09239 9.87064 4.91223 9.51182 4.89925C9.13659 4.88666 8.91634 4.9271 8.60715 5.15728C8.42774 5.29165 8.23879 5.57756 8.16932 5.9024C8.09221 6.26962 8.1529 6.73799 8.3075 7.16284C8.76251 8.4122 9.7775 9.40353 10.828 10.2315C11.4101 9.58828 12.0525 8.99889 12.7415 8.46868Z" fill="#F4BFD9"/>
<path d="M9.70191 30.7496C9.63511 30.5523 9.41982 30.3683 9.15223 30.4149C9.13391 30.4179 9.11445 30.4221 9.09574 30.4255C7.98914 30.6252 6.76649 30.9951 5.4572 31.5287C5.45605 31.5295 5.45338 31.5295 5.45186 31.5306C4.61246 31.8726 3.78947 32.2597 3.0184 32.6727C2.96458 32.6364 2.90732 32.6002 2.84472 32.5635C2.16182 32.1585 1.15141 31.7948 0.434929 31.8948C0.180704 31.9299 0.00626186 32.1459 0.000154363 32.4334C-0.0051897 32.6788 0.128027 32.9685 0.430729 33.0224L0.943378 33.0819L1.50565 33.1518C1.62475 33.1773 1.74766 33.2113 1.87019 33.2499C1.2186 33.6602 0.641056 34.0587 0.177268 34.5851C-0.0639785 34.8588 0.0116034 35.1722 0.184904 35.3486C0.361258 35.5287 0.679991 35.6123 0.962081 35.373L1.19264 35.1772C1.19264 35.1772 1.7114 34.7474 2.06296 34.4557C1.99578 34.6466 1.93165 34.8531 1.88279 35.0634C1.87324 35.1046 1.86905 35.1451 1.86905 35.1852C1.86905 35.4444 2.06563 35.6486 2.2813 35.7204C2.53591 35.8059 2.76952 35.7047 2.87564 35.4627C2.97679 35.2333 3.04627 34.9909 3.11116 34.7565L3.31843 34.1248L3.41386 33.9545C3.42073 33.9442 3.4276 33.9339 3.43371 33.9232C3.44516 33.919 3.45509 33.9179 3.4673 33.9125C3.4673 33.9125 5.92672 32.7766 5.92748 32.7766C5.92862 32.7758 5.93015 32.775 5.93129 32.7746H5.93168L6.13743 32.6811L7.4097 32.1601C7.77042 32.0173 8.13725 31.8711 8.50026 31.7165C8.83541 31.5734 9.16674 31.4226 9.48853 31.2562C9.68664 31.1535 9.77062 30.9542 9.70191 30.7496Z" fill="#F4BFD9"/>
<path d="M60.1437 24.3571C61.4151 24.3571 62.6141 24.1617 63.7449 23.7692C68.8278 21.9898 71.5639 18.929 71.9523 14.5868C72.3397 10.1743 70.3588 6.14646 66.3051 4.47359C63.4134 3.29923 60.9954 2.84626 58.7831 3.04535C55.4733 3.34372 53.6001 4.63805 51.8023 6.52137C50.4966 7.87156 49.7393 9.62922 49.5285 11.7964C49.3889 13.1497 49.2904 14.4327 49.2329 15.6433C49.158 17.1967 49 32.1862 49 33.1098C49 35.0645 49.0877 37.7012 49.2622 39.2298C49.2981 39.869 49.3504 40.2946 49.4217 40.5081C49.8424 41.5025 50.5982 42 51.6879 42C52.7761 42 53.7063 41.5553 54.481 40.6695C54.832 40.2434 55.0608 39.5158 55.166 38.4846C55.1567 37.7054 55.1537 36.924 55.1537 36.1426C55.1537 32.6982 55.4297 24.3654 55.5354 23.478C57.0894 24.0634 58.6255 24.3571 60.1437 24.3571ZM55.7657 11.6599C56.1172 9.9576 57.2254 9.1059 59.0919 9.1059C61.3802 9.1059 63.317 9.58994 64.8998 11.1144C65.6047 11.753 65.9572 12.9367 65.9572 14.1069C65.9572 15.6314 64.9224 17.8224 61.8907 18.734C61.4079 18.8793 58.0858 19.9906 55.8191 17.192C55.5503 16.86 55.3963 16.1991 55.3963 15.1701C55.3963 14.1415 55.519 12.9724 55.7657 11.6599Z" fill="#DB87B9"/>
<path d="M75.7423 21C73.0855 21 70.4213 21.7781 68.311 23.0347C65.1779 24.9372 64 28.1747 64 31.9807C64 35.1404 65.1769 37.6903 67.529 39.6288C69.472 41.21 71.7899 42 74.4836 42C77.4488 42 79.6996 40.9774 81.2334 38.9286C81.6077 38.391 81.7962 37.87 81.7962 37.3679C81.7962 36.1091 81.0179 35.2392 79.3432 35.4273C79.0343 35.4617 78.2012 35.7324 76.8384 36.4509C75.9187 36.9169 74.3669 37.8606 71.3178 36.6651C69.8083 36.0747 68.9155 35.248 68.9155 32.9516C68.9155 32.3397 69 31.8015 69.1716 31.3349C71.3136 31.8548 73.4398 32.1145 75.5502 32.1145C80.5158 32.1145 83 30.6457 83 27.7102C83 27.3868 82.9646 27.0466 82.8986 26.6882C82.2513 23.251 79.7941 21 75.7423 21ZM76.7788 28.3194C76.4372 28.4098 74.6843 28.2097 71.5174 27.7196L70.9044 27.6527C71.3464 26.8961 72.6204 25.7915 73.6125 25.5156C73.9842 25.4116 74.3601 25.3813 74.7355 25.3813C75.5517 25.3813 76.2503 25.6039 76.8289 26.0496C77.4081 26.4953 77.6975 26.94 77.6975 27.3852C77.6975 27.8758 77.3912 28.1872 76.7788 28.3194Z" fill="#DB87B9"/>
<path d="M101.077 23.374C98.7681 21.7924 96.1535 21 93.2326 21C90.2107 21 88.2744 21.8446 87.4263 23.5333C86.7465 24.8358 86.4074 27.4398 86.4074 31.3437C86.4074 31.3437 86.3818 35.0028 86.3292 35.5652C86.2954 39.5054 86 45.7408 86 46.1977C86 47.1114 86.1521 47.956 86.4569 48.7305C87.0653 50.243 87.9452 51 89.0954 51C89.7038 51 90.2279 50.6676 90.6691 50.0007C91.0072 49.4737 91.1765 48.6311 91.1765 47.4746C91.1765 47.5796 91.0645 46.3001 90.8874 43.6332C90.7707 41.8702 90.8796 39.3538 90.8796 39.3538C91.6276 39.4301 92.3528 39.468 93.2352 39.468C95.5779 39.468 97.4116 39.257 98.7363 38.834C100.57 38.2378 102.072 37.1478 103.243 35.5631C104.414 33.9814 105 32.2042 105 30.2343C105 27.4193 103.692 25.1334 101.077 23.374ZM98.4508 33.0739C97.5345 33.7638 96.465 34.1976 95.2455 34.3748C94.499 34.4803 93.1436 34.4091 91.1765 34.1623C91.0775 31.7053 91.064 30.5959 91.2729 28.2818C91.363 27.092 92.0048 26.4267 92.7299 26.4174C93.4134 26.3637 93.3233 26.3739 93.8218 26.4149C97.0928 26.6828 98.9077 27.3711 99.6198 29.2806C99.7552 29.7052 99.8235 30.1114 99.8235 30.5001C99.8235 31.5265 99.3661 32.3855 98.4508 33.0739Z" fill="#DB87B9"/>
<path d="M113.538 21C110.915 21.1235 109.209 21.9609 108.427 23.5174C107.746 24.8201 107.408 27.4252 107.408 31.3324C107.408 31.3324 107.383 34.9937 107.331 35.5564C107.296 39.4996 107 45.7377 107 46.1948C107 47.1086 107.153 47.9537 107.457 48.7296C108.066 50.2425 108.945 51 110.096 51C110.705 51 111.228 50.6674 111.669 50.0001C112.007 49.4733 112.177 48.6297 112.177 47.4725C112.177 47.5781 112.066 46.2984 111.888 43.6298C111.77 41.8648 111.88 39.3479 111.88 39.3479C112.627 39.4237 113.353 39.4617 114.236 39.4617C116.578 39.4617 118.411 39.25 119.737 38.8277C121.569 38.2301 123.071 37.1406 124.243 35.5544C125.413 33.9713 126 32.1934 126 30.2219C126 27.4062 124.693 25.1184 122.078 23.358C119.558 21.6382 117.885 21 113.538 21ZM120.62 29.2681C120.756 29.6924 120.823 30.0989 120.823 30.4889C120.823 31.5149 120.365 32.3743 119.45 33.0642C118.535 33.754 117.465 34.1881 116.246 34.3644C115.5 34.4705 114.143 34.3997 112.177 34.1527C112.077 31.6943 112.064 30.5842 112.273 28.2682C112.363 27.0777 113.005 26.413 113.73 26.4033C114.414 26.3495 114.323 26.3602 114.822 26.4012C118.093 26.6687 119.908 27.3575 120.62 29.2681Z" fill="#DB87B9"/>
<path d="M133.273 22.8258C132.038 23.4512 131.055 24.3626 130.333 25.5699C129.444 27.0592 129 28.7449 129 30.6234C129 33.604 129.916 36.079 131.749 38.0472C133.581 40.0164 135.992 41 138.981 41C141.507 41 143.466 40.3159 144.852 38.9452C145.387 39.6628 146.01 40.1649 146.721 40.4526C147.29 40.7031 147.877 40.8294 148.483 40.8294C150.261 40.8294 151.098 40.0139 150.991 38.3828C150.955 37.3554 150.608 36.5842 149.949 36.0697C149.291 35.5558 148.623 35.0418 147.948 34.5268C147.272 34.0139 146.828 33.0844 146.614 31.7343C146.472 30.4935 146.311 29.2717 146.134 28.066C145.778 26.5767 145.066 25.3895 143.999 24.5028C142.745 23.4646 141.432 22.7392 140.064 22.3212C138.314 21.8201 135.209 21.8459 133.273 22.8258ZM141.917 30.5012C142.45 32.3524 142.488 33.8639 141.758 34.8536C141.051 35.8114 139.64 36.9285 136.589 35.9506C135.785 35.6929 135.203 35.2573 134.934 35.0248C133.745 33.9953 133.439 32.8519 133.439 31.1409C133.439 29.8955 133.793 28.7918 134.506 27.8309C135.217 26.8705 136.141 26.389 137.278 26.389C138.096 26.389 138.958 26.6473 139.865 27.1633C140.77 27.6798 141.455 28.7918 141.917 30.5012Z" fill="#DB87B9"/>
<path d="M171.306 4.4537C168.413 3.25851 166.005 3 163.783 3C160.927 3 158.6 3.95827 156.803 5.87584C155.497 7.25057 154.739 9.04124 154.528 11.2468C154.389 12.6258 154.29 13.931 154.233 15.1635C154.159 16.7452 154 32.0078 154 32.9482C154 34.9379 154.087 37.6236 154.263 39.1789C154.297 39.8297 154.349 40.263 154.421 40.4805C154.842 41.4935 155.598 42 156.687 42C157.776 42 158.706 41.5488 159.481 40.6447C159.832 40.2109 160.06 39.4706 160.165 38.4213C160.156 37.6273 160.153 36.8317 160.153 36.0362C160.153 32.5301 160.43 24.0453 160.535 23.1408C162.088 23.7368 163.625 24.0358 165.144 24.0358C166.414 24.0358 167.614 23.8368 168.744 23.4382C173.828 21.6255 176.564 18.5096 176.952 14.0879C177.34 9.59566 175.358 6.1575 171.306 4.4537ZM166.89 18.3111C166.408 18.4585 163.085 19.5899 160.818 16.7404C160.55 16.4029 160.395 15.7295 160.395 14.6823C160.395 13.6356 160.518 12.4446 160.765 11.1078C161.117 9.37503 162.226 8.50787 164.091 8.50787C166.38 8.50787 168.316 9.00016 169.9 10.5523C170.604 11.2031 170.957 12.4083 170.957 13.5993C170.957 15.153 169.922 17.3823 166.89 18.3111Z" fill="#DB87B9"/>
<path d="M177.452 13.0159C175.77 13.1834 174.004 13.8612 174 16.4856C173.997 19.428 176.296 19.9145 177.204 19.9903C177.709 20.0322 178.197 19.9341 178.693 19.7847C181.622 18.897 181.161 15.8512 180.531 14.7256C179.842 13.4966 178.703 12.8919 177.452 13.0159Z" fill="#DB87B9"/>
<path d="M176.95 23.0147C176.198 22.9534 175.368 23.0327 174.388 24.2662C173.66 25.2102 173.216 26.7818 173.054 28.9815C172.977 30.0122 172.982 32.1574 173.073 35.4133C173.162 37.2902 173.431 38.8612 174.168 40.0159C174.664 40.7964 175.445 40.9498 175.969 40.9916C176.919 41.0694 177.861 40.6233 178.532 38.9528C178.885 38.0781 178.915 37.2209 178.993 36.1541C179.024 35.7419 178.95 26.2801 178.848 25.407C178.622 23.5566 177.966 23.0973 176.95 23.0147Z" fill="#DB87B9"/>
<path d="M206.125 48.5442C205.257 47.9908 204.254 47.6216 203.232 47.48C206.445 43.4653 206.992 36.4275 206.992 33.4744C206.992 30.6814 206.476 27.9074 205.443 26.0329C204.122 23.628 202.818 22.4408 201.533 21.5924C199.857 20.5313 197.913 20 195.701 20C193.489 20 191.474 20.5313 189.653 21.5924C187.692 22.7245 186.354 24.2459 185.641 26.1559C185.214 27.2525 185 28.4197 185 29.6584C185 32.1342 185.784 34.2389 187.353 35.9724C189.066 37.8464 191.296 38.7484 194.044 38.6789C196.719 38.6083 199.198 37.696 201.482 35.9404C201.409 40.608 199.891 43.2033 197.628 44.8528C195.775 46.2043 194.418 44.2685 194.096 43.9508C193.133 43.0303 192.027 42.5721 190.778 42.5721C189.137 42.5721 188.442 43.4175 188.692 45.1103C188.977 46.766 189.797 48.1231 191.153 49.1816C192.508 50.2385 194.578 51.0602 196.007 51.0602C197.969 51.0602 199.429 50.6375 201.607 49.0554C201.609 49.0549 201.61 49.0529 201.611 49.0524C202.48 49.0107 203.373 49.1646 204.17 49.509C202.505 50.7678 201.549 52.8879 203.113 54.8525C205.558 57.9225 209.767 54.2064 208.35 51.0371C208.264 50.8388 208.161 50.652 208.046 50.4671C209.475 50.6231 210.746 51.5138 210.882 53.1546C211.01 54.6775 213.163 54.5045 212.99 52.9785C212.609 49.6825 209.348 47.6824 206.125 48.5442ZM200.363 30.0934C200.17 31.815 198.185 33.9475 194.397 33.4852C193.151 33.3328 192.228 32.9029 191.433 32.0946C190.634 31.2873 190.315 30.0445 190.409 29.0009C190.557 27.3524 191.194 26.403 193.146 25.5618C195.013 24.754 196.738 25.0614 197.573 25.275C199.943 25.8836 200.596 28.0119 200.363 30.0934ZM206.669 52.3896C206.582 52.9461 205.752 53.8507 205.168 53.7425C204.415 53.6004 203.961 52.266 204.916 51.4098C205.223 51.1313 205.587 50.9202 205.973 50.7601C206.416 51.2193 206.769 51.7851 206.669 52.3896Z" fill="#DB87B9"/>
</svg>
