<svg width="194" height="175" viewBox="0 0 194 175" fill="none" xmlns="http://www.w3.org/2000/svg">
<path fill-rule="evenodd" clip-rule="evenodd" d="M157.003 84.8596C157.003 114.488 132.986 138.507 103.357 138.507C73.7289 138.507 49.7123 114.488 49.7123 84.8596C49.7123 55.2328 73.7289 31.2141 103.357 31.2141C132.986 31.2141 157.003 55.2328 157.003 84.8596Z" fill="#FFEC00"/>
<path d="M1 130.072L33.2301 115.851" stroke="#FEEA00" stroke-width="2.9999"/>
<path d="M63.2354 142.65L47.6741 157.965" stroke="#FEEA00" stroke-width="2.9999"/>
<path d="M117.686 149.761L114.353 174.371" stroke="#FEEA00" stroke-width="2.9999"/>
<path d="M153.809 135.54L174.92 149.215" stroke="#FEEA00" stroke-width="2.9999"/>
<path d="M174.92 91.7871H193.813" stroke="#FEEA00" stroke-width="2.9999"/>
<path d="M166.031 54.5986L183.811 37.0964" stroke="#FEEA00" stroke-width="2.9999"/>
<path d="M121.577 25.6118L131.581 1" stroke="#FEEA00" stroke-width="2.9999"/>
<path d="M72.1265 29.4408L62.1247 14.1289" stroke="#FEEA00" stroke-width="2.9999"/>
<path d="M13.7818 55.1446L42.1213 62.8004" stroke="#FEEA00" stroke-width="2.9999"/>
</svg>
